MerriweatherSans-Regular.ufo
<glyph name="exclam" format="2">
  <advance width="294.0"/>
  <unicode hex="0021"/>
  <outline>
    <contour>
      <point x="103.0" y="247.0" type="line"/>
      <point x="198.0" y="247.0" type="line"/>
      <point x="210.0" y="869.0" type="line"/>
      <point x="89.0" y="869.0" type="line"/>
    </contour>
    <contour>
      <point x="143.0" y="-11.0" type="curve" smooth="yes"/>
      <point x="185.0" y="-11.0"/>
      <point x="223.0" y="26.0"/>
      <point x="222.0" y="75.0" type="curve" smooth="yes"/>
      <point x="221.0" y="114.0"/>
      <point x="197.0" y="148.0"/>
      <point x="150.0" y="148.0" type="curve" smooth="yes"/>
      <point x="110.0" y="148.0"/>
      <point x="70.0" y="110.0"/>
      <point x="72.0" y="63.0" type="curve" smooth="yes"/>
      <point x="73.0" y="21.0"/>
      <point x="105.0" y="-11.0"/>
    </contour>
  </outline>
</glyph>
<glyph name="numbersign" format="2">
  <advance width="763.0"/>
  <unicode hex="0023"/>
  <outline>
    <contour>
      <point x="184.0" y="0.0" type="line"/>
      <point x="275.0" y="0.0" type="line"/>
      <point x="338.0" y="670.0" type="line"/>
      <point x="245.0" y="670.0" type="line"/>
    </contour>
    <contour>
      <point x="428.0" y="0.0" type="line"/>
      <point x="518.0" y="0.0" type="line"/>
      <point x="580.0" y="670.0" type="line"/>
      <point x="487.0" y="670.0" type="line"/>
    </contour>
    <contour>
      <point x="673.0" y="430.0" type="line"/>
      <point x="673.0" y="504.0" type="line"/>
      <point x="118.0" y="504.0" type="line"/>
      <point x="118.0" y="430.0" type="line"/>
    </contour>
    <contour>
      <point x="651.0" y="173.0" type="line"/>
      <point x="651.0" y="250.0" type="line"/>
      <point x="101.0" y="250.0" type="line"/>
      <point x="101.0" y="173.0" type="line"/>
    </contour>
  </outline>
</glyph>
<glyph name="dollar" format="2">
  <advance width="670.0"/>
  <unicode hex="0024"/>
  <anchor x="329.0" y="0.0" name="bottom"/>
  <anchor x="325.0" y="-83.0" name="btm"/>
  <anchor x="346.0" y="830.0" name="top"/>
  <outline>
    <contour>
      <point x="309.0" y="734.0" type="line"/>
      <point x="389.0" y="734.0" type="line"/>
      <point x="390.0" y="860.0" type="line"/>
      <point x="310.0" y="860.0" type="line"/>
    </contour>
    <contour>
      <point x="289.0" y="-116.0" type="line"/>
      <point x="369.0" y="-116.0" type="line"/>
      <point x="370.0" y="7.0" type="line"/>
      <point x="290.0" y="7.0" type="line"/>
    </contour>
    <component base="S" xOffset="52.0"/>
  </outline>
</glyph>
<glyph name="percent" format="2">
  <advance width="958.0"/>
  <unicode hex="0025"/>
  <outline>
    <contour>
      <point x="209.0" y="325.0" type="curve" smooth="yes"/>
      <point x="307.0" y="327.0"/>
      <point x="396.0" y="398.0"/>
      <point x="396.0" y="529.0" type="curve" smooth="yes"/>
      <point x="396.0" y="642.0"/>
      <point x="344.0" y="733.0"/>
      <point x="224.0" y="730.0" type="curve" smooth="yes"/>
      <point x="126.0" y="728.0"/>
      <point x="37.0" y="656.0"/>
      <point x="37.0" y="525.0" type="curve" smooth="yes"/>
      <point x="37.0" y="417.0"/>
      <point x="100.0" y="323.0"/>
    </contour>
    <contour>
      <point x="272.0" y="0.0" type="line"/>
      <point x="365.0" y="0.0" type="line"/>
      <point x="682.0" y="747.0" type="line"/>
      <point x="589.0" y="747.0" type="line"/>
    </contour>
    <contour>
      <point x="216.0" y="396.0" type="curve" smooth="yes"/>
      <point x="163.0" y="396.0"/>
      <point x="132.0" y="453.0"/>
      <point x="132.0" y="529.0" type="curve" smooth="yes"/>
      <point x="132.0" y="609.0"/>
      <point x="163.0" y="659.0"/>
      <point x="218.0" y="659.0" type="curve" smooth="yes"/>
      <point x="271.0" y="659.0"/>
      <point x="301.0" y="606.0"/>
      <point x="301.0" y="525.0" type="curve" smooth="yes"/>
      <point x="301.0" y="445.0"/>
      <point x="271.0" y="396.0"/>
    </contour>
    <contour>
      <point x="734.0" y="25.0" type="curve" smooth="yes"/>
      <point x="832.0" y="27.0"/>
      <point x="921.0" y="98.0"/>
      <point x="921.0" y="229.0" type="curve" smooth="yes"/>
      <point x="921.0" y="341.0"/>
      <point x="869.0" y="433.0"/>
      <point x="749.0" y="430.0" type="curve" smooth="yes"/>
      <point x="651.0" y="427.0"/>
      <point x="562.0" y="355.0"/>
      <point x="562.0" y="225.0" type="curve" smooth="yes"/>
      <point x="562.0" y="116.0"/>
      <point x="625.0" y="22.0"/>
    </contour>
    <contour>
      <point x="741.0" y="96.0" type="curve" smooth="yes"/>
      <point x="688.0" y="96.0"/>
      <point x="657.0" y="153.0"/>
      <point x="657.0" y="229.0" type="curve" smooth="yes"/>
      <point x="657.0" y="309.0"/>
      <point x="688.0" y="359.0"/>
      <point x="743.0" y="359.0" type="curve" smooth="yes"/>
      <point x="796.0" y="359.0"/>
      <point x="826.0" y="306.0"/>
      <point x="826.0" y="225.0" type="curve" smooth="yes"/>
      <point x="826.0" y="145.0"/>
      <point x="796.0" y="96.0"/>
    </contour>
  </outline>
</glyph>
<glyph name="ampersand" format="2">
  <advance width="748.88889"/>
  <unicode hex="0026"/>
  <outline>
    <contour>
      <point x="471.533" y="103.578" type="curve"/>
      <point x="437.0" y="89.578"/>
      <point x="406.467" y="76.4"/>
      <point x="356.556" y="76.4" type="curve" smooth="yes"/>
      <point x="221.889" y="76.4"/>
      <point x="175.489" y="134.133"/>
      <point x="175.489" y="196.422" type="curve" smooth="yes"/>
      <point x="175.489" y="255.0"/>
      <point x="225.067" y="299.867"/>
      <point x="296.711" y="329.978" type="curve"/>
      <point x="305.822" y="333.622"/>
      <point x="335.778" y="342.156"/>
      <point x="345.711" y="345.8" type="curve"/>
      <point x="459.244" y="395.511"/>
      <point x="529.022" y="456.267"/>
      <point x="529.022" y="585.222" type="curve" smooth="yes"/>
      <point x="529.022" y="674.0"/>
      <point x="459.422" y="755.0"/>
      <point x="342.644" y="755.0" type="curve" smooth="yes"/>
      <point x="218.222" y="755.0"/>
      <point x="138.156" y="687.822"/>
      <point x="138.156" y="578.222" type="curve" smooth="yes"/>
      <point x="138.156" y="483.556"/>
      <point x="196.978" y="413.867"/>
      <point x="241.444" y="353.867" type="curve"/>
      <point x="255.2" y="335.933" type="line"/>
      <point x="305.2" y="266.933"/>
      <point x="408.911" y="129.244"/>
      <point x="470.911" y="66.244" type="curve" smooth="yes"/>
      <point x="528.667" y="16.956"/>
      <point x="570.267" y="-8.0"/>
      <point x="641.889" y="-8.0" type="curve" smooth="yes"/>
      <point x="667.778" y="-8.0"/>
      <point x="687.667" y="-4.0"/>
      <point x="701.2" y="0.0" type="curve"/>
      <point x="701.2" y="59.622" type="line"/>
      <point x="638.778" y="64.911"/>
      <point x="601.556" y="79.089"/>
      <point x="546.089" y="131.2" type="curve" smooth="yes"/>
      <point x="494.378" y="183.489"/>
      <point x="389.733" y="319.178"/>
      <point x="355.556" y="369.0" type="curve"/>
      <point x="339.556" y="389.0" type="line"/>
      <point x="274.378" y="485.0"/>
      <point x="244.556" y="502.889"/>
      <point x="244.556" y="581.222" type="curve" smooth="yes"/>
      <point x="244.556" y="646.667"/>
      <point x="288.889" y="674.378"/>
      <point x="341.178" y="674.378" type="curve" smooth="yes"/>
      <point x="402.756" y="674.378"/>
      <point x="431.8" y="621.8"/>
      <point x="431.8" y="583.4" type="curve" smooth="yes"/>
      <point x="431.8" y="485.889"/>
      <point x="372.867" y="439.778"/>
      <point x="280.0" y="407.778" type="curve"/>
      <point x="274.711" y="405.956"/>
      <point x="253.289" y="399.778"/>
      <point x="248.822" y="397.956" type="curve"/>
      <point x="150.156" y="358.956"/>
      <point x="66.844" y="294.244"/>
      <point x="66.844" y="192.533" type="curve" smooth="yes"/>
      <point x="66.844" y="60.067"/>
      <point x="185.178" y="-8.0"/>
      <point x="365.578" y="-8.0" type="curve" smooth="yes"/>
      <point x="430.889" y="-8.0"/>
      <point x="504.489" y="18.778"/>
      <point x="546.733" y="46.778" type="curve"/>
      <point x="554.022" y="51.244"/>
      <point x="560.267" y="62.311"/>
      <point x="566.556" y="67.778" type="curve"/>
      <point x="628.556" y="106.956"/>
      <point x="664.622" y="170.133"/>
      <point x="664.622" y="259.622" type="curve" smooth="yes"/>
      <point x="664.622" y="305.8"/>
      <point x="655.156" y="341.022"/>
      <point x="651.333" y="357.667" type="curve"/>
      <point x="551.644" y="357.667" type="line"/>
      <point x="555.289" y="344.489"/>
      <point x="566.933" y="305.622"/>
      <point x="566.933" y="259.8" type="curve" smooth="yes"/>
      <point x="566.933" y="193.644"/>
      <point x="539.467" y="152.4"/>
      <point x="495.822" y="125.289" type="curve"/>
      <point x="490.356" y="119.822"/>
      <point x="484.289" y="111.689"/>
    </contour>
  </outline>
</glyph>
<glyph name="parenleft" format="2">
  <advance width="413.0"/>
  <unicode hex="0028"/>
  <outline>
    <contour>
      <point x="277.0" y="-161.0" type="curve"/>
      <point x="351.0" y="-125.0" type="line"/>
      <point x="303.0" y="-89.0"/>
      <point x="155.0" y="63.0"/>
      <point x="163.0" y="353.0" type="curve" smooth="yes"/>
      <point x="171.0" y="634.0"/>
      <point x="315.0" y="781.0"/>
      <point x="351.0" y="809.0" type="curve"/>
      <point x="277.0" y="845.0" type="line"/>
      <point x="232.0" y="820.0"/>
      <point x="59.0" y="633.0"/>
      <point x="59.0" y="353.0" type="curve" smooth="yes"/>
      <point x="59.0" y="23.0"/>
      <point x="235.0" y="-134.0"/>
    </contour>
  </outline>
</glyph>
<glyph name="asterisk" format="2">
  <advance width="590.0"/>
  <unicode hex="002A"/>
  <outline>
    <contour>
      <point x="251.0" y="316.0" type="line"/>
      <point x="345.0" y="316.0" type="line"/>
      <point x="334.0" y="444.0" type="line"/>
      <point x="333.0" y="448.0"/>
      <point x="316.0" y="523.0"/>
      <point x="315.0" y="526.0" type="curve"/>
      <point x="379.0" y="471.0" type="line"/>
      <point x="485.0" y="401.0" type="line"/>
      <point x="533.0" y="484.0" type="line"/>
      <point x="417.0" y="540.0" type="line"/>
      <point x="337.0" y="564.0" type="line"/>
      <point x="417.0" y="591.0" type="line"/>
      <point x="530.0" y="650.0" type="line"/>
      <point x="484.0" y="729.0" type="line"/>
      <point x="376.0" y="658.0" type="line"/>
      <point x="373.0" y="656.0"/>
      <point x="317.0" y="603.0"/>
      <point x="315.0" y="601.0" type="curve"/>
      <point x="332.0" y="683.0" type="line"/>
      <point x="338.0" y="811.0" type="line"/>
      <point x="245.0" y="811.0" type="line"/>
      <point x="254.0" y="681.0" type="line"/>
      <point x="255.0" y="677.0"/>
      <point x="273.0" y="602.0"/>
      <point x="273.0" y="600.0" type="curve"/>
      <point x="210.0" y="655.0" type="line"/>
      <point x="103.0" y="726.0" type="line"/>
      <point x="57.0" y="645.0" type="line"/>
      <point x="171.0" y="587.0" type="line"/>
      <point x="175.0" y="586.0"/>
      <point x="250.0" y="565.0"/>
      <point x="252.0" y="563.0" type="curve"/>
      <point x="172.0" y="538.0" type="line"/>
      <point x="59.0" y="477.0" type="line"/>
      <point x="106.0" y="397.0" type="line"/>
      <point x="212.0" y="468.0" type="line"/>
      <point x="274.0" y="527.0" type="line"/>
      <point x="257.0" y="444.0" type="line"/>
    </contour>
  </outline>
</glyph>
<glyph name="plus" format="2">
  <advance width="680.0"/>
  <unicode hex="002B"/>
  <outline>
    <contour>
      <point x="296.0" y="139.0" type="line"/>
      <point x="383.0" y="139.0" type="line"/>
      <point x="383.0" y="254.0" type="line"/>
      <point x="379.0" y="338.0" type="line"/>
      <point x="448.0" y="334.0" type="line"/>
      <point x="568.0" y="334.0" type="line"/>
      <point x="568.0" y="421.0" type="line"/>
      <point x="448.0" y="421.0" type="line"/>
      <point x="379.0" y="416.0" type="line"/>
      <point x="383.0" y="500.0" type="line"/>
      <point x="383.0" y="611.0" type="line"/>
      <point x="296.0" y="611.0" type="line"/>
      <point x="296.0" y="500.0" type="line"/>
      <point x="300.0" y="416.0" type="line"/>
      <point x="219.0" y="421.0" type="line"/>
      <point x="112.0" y="421.0" type="line"/>
      <point x="112.0" y="334.0" type="line"/>
      <point x="219.0" y="334.0" type="line"/>
      <point x="300.0" y="338.0" type="line"/>
      <point x="296.0" y="254.0" type="line"/>
    </contour>
  </outline>
</glyph>
<glyph name="comma" format="2">
  <advance width="294.0"/>
  <unicode hex="002C"/>
  <outline>
    <contour>
      <point x="74.0" y="-199.0" type="line"/>
      <point x="110.0" y="-244.0" type="line"/>
      <point x="179.0" y="-218.0"/>
      <point x="239.0" y="-133.0"/>
      <point x="239.0" y="-26.0" type="curve" smooth="yes"/>
      <point x="239.0" y="30.0"/>
      <point x="214.0" y="107.0"/>
      <point x="146.0" y="132.0" type="curve"/>
      <point x="78.0" y="68.0" type="line"/>
      <point x="78.0" y="38.0" type="line"/>
      <point x="109.0" y="34.0"/>
      <point x="138.0" y="-20.0"/>
      <point x="138.0" y="-61.0" type="curve" smooth="yes"/>
      <point x="138.0" y="-116.0"/>
      <point x="110.0" y="-168.0"/>
      <point x="74.0" y="-187.0" type="curve"/>
    </contour>
  </outline>
</glyph>
<glyph name="period" format="2">
  <advance width="294.0"/>
  <unicode hex="002E"/>
  <outline>
    <contour>
      <point x="143.0" y="-11.0" type="curve" smooth="yes"/>
      <point x="185.0" y="-11.0"/>
      <point x="224.0" y="26.0"/>
      <point x="222.0" y="75.0" type="curve" smooth="yes"/>
      <point x="221.0" y="114.0"/>
      <point x="197.0" y="148.0"/>
      <point x="150.0" y="148.0" type="curve" smooth="yes"/>
      <point x="110.0" y="148.0"/>
      <point x="71.0" y="110.0"/>
      <point x="72.0" y="63.0" type="curve" smooth="yes"/>
      <point x="73.0" y="21.0"/>
      <point x="106.0" y="-11.0"/>
    </contour>
  </outline>
</glyph>
<glyph name="slash" format="2">
  <advance width="417.88889"/>
  <unicode hex="002F"/>
  <outline>
    <contour>
      <point x="19.4" y="-177.0" type="line"/>
      <point x="120.378" y="-177.0" type="line"/>
      <point x="398.489" y="781.0" type="line"/>
      <point x="296.689" y="781.0" type="line"/>
    </contour>
  </outline>
</glyph>
<glyph name="zero" format="2">
  <advance width="677.0"/>
  <unicode hex="0030"/>
  <outline>
    <contour>
      <point x="335.0" y="-8.0" type="curve" smooth="yes"/>
      <point x="496.0" y="-8.0"/>
      <point x="602.0" y="150.0"/>
      <point x="604.0" y="379.0" type="curve" smooth="yes"/>
      <point x="606.0" y="585.0"/>
      <point x="543.0" y="754.0"/>
      <point x="347.0" y="754.0" type="curve" smooth="yes"/>
      <point x="192.0" y="754.0"/>
      <point x="75.0" y="609.0"/>
      <point x="72.0" y="382.0" type="curve" smooth="yes"/>
      <point x="69.0" y="178.0"/>
      <point x="143.0" y="-8.0"/>
    </contour>
    <contour>
      <point x="339.0" y="82.0" type="curve" smooth="yes"/>
      <point x="231.0" y="86.0"/>
      <point x="183.0" y="232.0"/>
      <point x="183.0" y="386.0" type="curve" smooth="yes"/>
      <point x="183.0" y="555.0"/>
      <point x="237.0" y="663.0"/>
      <point x="341.0" y="663.0" type="curve" smooth="yes"/>
      <point x="448.0" y="663.0"/>
      <point x="494.0" y="532.0"/>
      <point x="494.0" y="373.0" type="curve" smooth="yes"/>
      <point x="494.0" y="189.0"/>
      <point x="443.0" y="80.0"/>
    </contour>
  </outline>
</glyph>
<glyph name="one" format="2">
  <advance width="448.0"/>
  <unicode hex="0031"/>
  <outline>
    <contour>
      <point x="185.0" y="0.0" type="line"/>
      <point x="296.0" y="0.0" type="line"/>
      <point x="296.0" y="744.0" type="line"/>
      <point x="248.0" y="753.0" type="line"/>
      <point x="220.0" y="728.0"/>
      <point x="127.0" y="677.0"/>
      <point x="63.0" y="658.0" type="curve"/>
      <point x="76.0" y="594.0" type="line"/>
      <point x="113.0" y="601.0"/>
      <point x="147.0" y="610.0"/>
      <point x="185.0" y="620.0" type="curve"/>
    </contour>
  </outline>
</glyph>
<glyph name="two" format="2">
  <advance width="620.0"/>
  <unicode hex="0032"/>
  <outline>
    <contour>
      <point x="85.0" y="0.0" type="line"/>
      <point x="551.0" y="0.0" type="line"/>
      <point x="551.0" y="90.0" type="line"/>
      <point x="240.0" y="86.0" type="line"/>
      <point x="407.0" y="203.0"/>
      <point x="522.0" y="373.0"/>
      <point x="522.0" y="523.0" type="curve" smooth="yes"/>
      <point x="522.0" y="651.0"/>
      <point x="451.0" y="749.0"/>
      <point x="297.0" y="749.0" type="curve" smooth="yes"/>
      <point x="186.0" y="749.0"/>
      <point x="109.0" y="695.0"/>
      <point x="71.0" y="654.0" type="curve"/>
      <point x="118.0" y="591.0" type="line"/>
      <point x="153.0" y="629.0"/>
      <point x="214.0" y="660.0"/>
      <point x="283.0" y="660.0" type="curve" smooth="yes"/>
      <point x="361.0" y="660.0"/>
      <point x="408.0" y="608.0"/>
      <point x="408.0" y="516.0" type="curve" smooth="yes"/>
      <point x="408.0" y="355.0"/>
      <point x="232.0" y="168.0"/>
      <point x="69.0" y="57.0" type="curve"/>
    </contour>
  </outline>
</glyph>
<glyph name="four" format="2">
  <advance width="659.0"/>
  <unicode hex="0034"/>
  <outline>
    <contour>
      <point x="83.0" y="146.0" type="line"/>
      <point x="626.0" y="146.0" type="line"/>
      <point x="626.0" y="229.0" type="line"/>
      <point x="176.0" y="229.0" type="line"/>
      <point x="219.0" y="303.0" type="line"/>
      <point x="295.0" y="448.0"/>
      <point x="335.0" y="570.0"/>
      <point x="411.0" y="715.0" type="curve"/>
      <point x="344.0" y="756.0" type="line"/>
      <point x="306.0" y="756.0" type="line"/>
      <point x="211.0" y="562.0"/>
      <point x="152.0" y="391.0"/>
      <point x="57.0" y="197.0" type="curve"/>
    </contour>
    <contour>
      <point x="405.0" y="0.0" type="line"/>
      <point x="513.0" y="0.0" type="line"/>
      <point x="513.0" y="478.0" type="line"/>
      <point x="414.0" y="478.0" type="line"/>
      <point x="405.0" y="229.0" type="line"/>
    </contour>
  </outline>
</glyph>
<glyph name="five" format="2">
  <advance width="604.68889"/>
  <unicode hex="0035"/>
  <outline>
    <contour>
      <point x="160.0" y="-10.822" type="curve" smooth="yes"/>
      <point x="401.067" y="-10.822"/>
      <point x="533.222" y="129.778"/>
      <point x="533.222" y="260.711" type="curve" smooth="yes"/>
      <point x="533.222" y="394.822"/>
      <point x="456.689" y="470.6"/>
      <point x="313.289" y="470.6" type="curve" smooth="yes"/>
      <point x="278.578" y="470.6"/>
      <point x="240.578" y="465.422"/>
      <point x="199.333" y="456.067" type="curve"/>
      <point x="217.8" y="644.244" type="line"/>
      <point x="501.867" y="644.244" type="line"/>
      <point x="512.578" y="743.0" type="line"/>
      <point x="129.822" y="743.0" type="line"/>
      <point x="101.933" y="374.956" type="line"/>
      <point x="126.111" y="359.956" type="line"/>
      <point x="174.822" y="375.311"/>
      <point x="220.889" y="384.556"/>
      <point x="260.422" y="384.556" type="curve" smooth="yes"/>
      <point x="369.822" y="384.556"/>
      <point x="415.867" y="347.089"/>
      <point x="415.867" y="253.889" type="curve" smooth="yes"/>
      <point x="415.867" y="151.533"/>
      <point x="296.467" y="72.4"/>
      <point x="131.356" y="72.4" type="curve" smooth="yes"/>
      <point x="120.822" y="72.4"/>
      <point x="109.467" y="73.222"/>
      <point x="98.933" y="73.4" type="curve"/>
      <point x="98.933" y="-4.822" type="line"/>
      <point x="116.111" y="-9.822"/>
      <point x="143.644" y="-10.822"/>
    </contour>
  </outline>
</glyph>
<glyph name="nine" format="2">
  <advance width="685.48889"/>
  <unicode hex="0039"/>
  <outline>
    <contour>
      <point x="82.444" y="484.867" type="curve" smooth="yes"/>
      <point x="82.444" y="364.978"/>
      <point x="155.156" y="255.333"/>
      <point x="284.578" y="255.333" type="curve" smooth="yes"/>
      <point x="360.933" y="255.333"/>
      <point x="406.467" y="279.867"/>
      <point x="422.644" y="298.044" type="curve"/>
      <point x="396.933" y="363.667" type="line"/>
      <point x="378.467" y="355.022"/>
      <point x="360.644" y="344.378"/>
      <point x="314.533" y="344.378" type="curve" smooth="yes"/>
      <point x="247.844" y="344.378"/>
      <point x="198.444" y="403.356"/>
      <point x="198.444" y="521.578" type="curve" smooth="yes"/>
      <point x="198.444" y="597.578"/>
      <point x="250.667" y="670.956"/>
      <point x="331.956" y="670.956" type="curve" smooth="yes"/>
      <point x="445.511" y="670.956"/>
      <point x="480.511" y="561.622"/>
      <point x="476.867" y="416.933" type="curve" smooth="yes"/>
      <point x="473.222" y="269.711"/>
      <point x="343.422" y="61.844"/>
      <point x="142.844" y="12.022" type="curve"/>
      <point x="179.733" y="-58.067" type="line"/>
      <point x="365.311" y="-21.667"/>
      <point x="600.222" y="181.556"/>
      <point x="600.222" y="465.044" type="curve"/>
      <point x="600.222" y="620.933"/>
      <point x="513.733" y="753.289"/>
      <point x="347.778" y="753.289" type="curve" smooth="yes"/>
      <point x="178.444" y="753.289"/>
      <point x="82.444" y="642.978"/>
    </contour>
  </outline>
</glyph>
<glyph name="less" format="2">
  <advance width="668.0"/>
  <unicode hex="003C"/>
  <outline>
    <contour>
      <point x="82.0" y="340.0" type="line"/>
      <point x="554.0" y="123.0" type="line"/>
      <point x="554.0" y="225.0" type="line"/>
      <point x="185.0" y="383.0" type="line"/>
      <point x="185.0" y="372.0" type="line"/>
      <point x="554.0" y="533.0" type="line"/>
      <point x="554.0" y="633.0" type="line"/>
      <point x="82.0" y="415.0" type="line"/>
    </contour>
  </outline>
</glyph>
<glyph name="equal" format="2">
  <advance width="683.0"/>
  <unicode hex="003D"/>
  <outline>
    <contour>
      <point x="118.0" y="463.0" type="line"/>
      <point x="565.0" y="463.0" type="line"/>
      <point x="565.0" y="545.0" type="line"/>
      <point x="118.0" y="545.0" type="line"/>
    </contour>
    <contour>
      <point x="118.0" y="211.0" type="line"/>
      <point x="565.0" y="211.0" type="line"/>
      <point x="565.0" y="292.0" type="line"/>
      <point x="118.0" y="292.0" type="line"/>
    </contour>
  </outline>
</glyph>
<glyph name="question" format="2">
  <advance width="511.0"/>
  <unicode hex="003F"/>
  <outline>
    <contour>
      <point x="178.0" y="241.0" type="curve"/>
      <point x="259.0" y="241.0" type="line"/>
      <point x="245.0" y="290.0"/>
      <point x="233.0" y="321.0"/>
      <point x="238.0" y="366.0" type="curve" smooth="yes"/>
      <point x="245.0" y="452.0"/>
      <point x="425.0" y="468.0"/>
      <point x="450.0" y="612.0" type="curve" smooth="yes"/>
      <point x="479.0" y="755.0"/>
      <point x="400.0" y="898.0"/>
      <point x="165.0" y="898.0" type="curve" smooth="yes"/>
      <point x="116.0" y="898.0"/>
      <point x="70.0" y="885.0"/>
      <point x="59.0" y="877.0" type="curve"/>
      <point x="59.0" y="799.0" type="line"/>
      <point x="71.0" y="802.0"/>
      <point x="99.0" y="808.0"/>
      <point x="147.0" y="808.0" type="curve" smooth="yes"/>
      <point x="293.0" y="808.0"/>
      <point x="375.0" y="735.0"/>
      <point x="343.0" y="607.0" type="curve" smooth="yes"/>
      <point x="327.0" y="520.0"/>
      <point x="130.0" y="482.0"/>
      <point x="134.0" y="376.0" type="curve" smooth="yes"/>
      <point x="136.0" y="319.0"/>
      <point x="156.0" y="268.0"/>
    </contour>
    <contour>
      <point x="232.0" y="-11.0" type="curve" smooth="yes"/>
      <point x="273.0" y="-11.0"/>
      <point x="312.0" y="25.0"/>
      <point x="310.0" y="73.0" type="curve" smooth="yes"/>
      <point x="309.0" y="111.0"/>
      <point x="285.0" y="144.0"/>
      <point x="240.0" y="144.0" type="curve" smooth="yes"/>
      <point x="201.0" y="144.0"/>
      <point x="162.0" y="106.0"/>
      <point x="163.0" y="62.0" type="curve" smooth="yes"/>
      <point x="164.0" y="20.0"/>
      <point x="197.0" y="-11.0"/>
    </contour>
  </outline>
</glyph>
<glyph name="at" format="2">
  <advance width="1083.88889"/>
  <unicode hex="0040"/>
  <outline>
    <contour>
      <point x="522.222" y="-232.289" type="curve" smooth="yes"/>
      <point x="621.2" y="-232.289"/>
      <point x="711.711" y="-206.689"/>
      <point x="754.956" y="-180.156" type="curve"/>
      <point x="735.6" y="-114.489" type="line"/>
      <point x="700.711" y="-132.2"/>
      <point x="634.2" y="-157.622"/>
      <point x="532.222" y="-157.622" type="curve" smooth="yes"/>
      <point x="356.889" y="-157.622"/>
      <point x="189.467" y="-61.4"/>
      <point x="189.467" y="217.356" type="curve" smooth="yes"/>
      <point x="189.467" y="492.889"/>
      <point x="373.956" y="679.333"/>
      <point x="594.133" y="679.333" type="curve" smooth="yes"/>
      <point x="759.289" y="679.333"/>
      <point x="895.422" y="622.689"/>
      <point x="895.422" y="387.044" type="curve" smooth="yes"/>
      <point x="895.422" y="212.756"/>
      <point x="803.2" y="78.733"/>
      <point x="731.378" y="78.733" type="curve" smooth="yes"/>
      <point x="708.022" y="78.733"/>
      <point x="707.778" y="124.289"/>
      <point x="721.133" y="212.289" type="curve" smooth="yes"/>
      <point x="735.667" y="305.111"/>
      <point x="764.667" y="437.6"/>
      <point x="783.311" y="508.6" type="curve"/>
      <point x="698.244" y="493.422" type="line"/>
      <point x="670.244" y="512.6"/>
      <point x="626.244" y="520.422"/>
      <point x="584.244" y="520.422" type="curve" smooth="yes"/>
      <point x="394.933" y="520.422"/>
      <point x="312.4" y="348.178"/>
      <point x="309.222" y="212.533" type="curve" smooth="yes"/>
      <point x="306.222" y="66.356"/>
      <point x="381.756" y="-2.0"/>
      <point x="447.578" y="-2.0" type="curve" smooth="yes"/>
      <point x="556.422" y="-2.0"/>
      <point x="636.356" y="139.178"/>
      <point x="676.533" y="260.0" type="curve"/>
      <point x="674.533" y="260.0"/>
      <point x="653.867" y="260.0"/>
      <point x="651.867" y="260.0" type="curve"/>
      <point x="626.222" y="169.0"/>
      <point x="624.4" y="120.0"/>
      <point x="627.222" y="89.0" type="curve" smooth="yes"/>
      <point x="631.4" y="30.0"/>
      <point x="654.289" y="-2.0"/>
      <point x="703.6" y="-2.0" type="curve" smooth="yes"/>
      <point x="843.489" y="-2.0"/>
      <point x="984.267" y="144.978"/>
      <point x="984.267" y="403.689" type="curve" smooth="yes"/>
      <point x="984.267" y="629.0"/>
      <point x="830.778" y="753.0"/>
      <point x="611.178" y="753.0" type="curve" smooth="yes"/>
      <point x="324.289" y="753.0"/>
      <point x="100.267" y="537.356"/>
      <point x="100.267" y="208.422" type="curve" smooth="yes"/>
      <point x="100.267" y="-91.0"/>
      <point x="287.222" y="-232.289"/>
    </contour>
    <contour>
      <point x="471.889" y="88.267" type="curve" smooth="yes"/>
      <point x="422.556" y="88.267"/>
      <point x="403.378" y="145.822"/>
      <point x="406.022" y="231.289" type="curve" smooth="yes"/>
      <point x="408.667" y="330.4"/>
      <point x="469.2" y="443.333"/>
      <point x="574.178" y="443.333" type="curve" smooth="yes"/>
      <point x="604.422" y="443.333"/>
      <point x="643.289" y="434.156"/>
      <point x="658.578" y="409.111" type="curve"/>
      <point x="643.578" y="297.467"/>
      <point x="539.711" y="88.267"/>
    </contour>
  </outline>
</glyph>
<glyph name="A" format="2">
  <advance width="687.0"/>
  <unicode hex="0041"/>
  <anchor x="344.0" y="0.0" name="bottom"/>
  <anchor x="332.0" y="-83.0" name="btm"/>
  <anchor x="618.0" y="10.0" name="ogonek"/>
  <anchor x="343.0" y="830.0" name="top"/>
  <outline>
    <contour>
      <point x="125.0" y="0.0" type="line"/>
      <point x="326.0" y="566.0" type="line"/>
      <point x="348.0" y="636.0" type="line"/>
      <point x="369.0" y="566.0" type="line"/>
      <point x="559.0" y="0.0" type="line"/>
      <point x="677.0" y="0.0" type="line"/>
      <point x="399.0" y="751.0" type="line"/>
      <point x="294.0" y="751.0" type="line"/>
      <point x="10.0" y="0.0" type="line"/>
    </contour>
    <contour>
      <point x="147.0" y="188.0" type="line"/>
      <point x="529.0" y="188.0" type="line"/>
      <point x="508.0" y="269.0" type="line"/>
      <point x="167.0" y="269.0" type="line"/>
    </contour>
  </outline>
</glyph>
<glyph name="B" format="2">
  <advance width="661.11111"/>
  <unicode hex="0042"/>
  <anchor x="330.556" y="0.0" name="bottom"/>
  <anchor x="355.0" y="-83.0" name="btm"/>
  <anchor x="326.089" y="830.178" name="top"/>
  <outline>
    <contour>
      <point x="94.467" y="0.0" type="line"/>
      <point x="152.733" y="0.0" type="line"/>
      <point x="188.444" y="-2.0"/>
      <point x="257.867" y="-7.0"/>
      <point x="316.111" y="-7.0" type="curve" smooth="yes"/>
      <point x="547.644" y="-7.0"/>
      <point x="616.822" y="88.533"/>
      <point x="616.822" y="223.356" type="curve" smooth="yes"/>
      <point x="616.822" y="315.244"/>
      <point x="546.422" y="395.689"/>
      <point x="455.956" y="400.756" type="curve"/>
      <point x="535.178" y="421.4"/>
      <point x="568.778" y="502.556"/>
      <point x="568.778" y="572.867" type="curve" smooth="yes"/>
      <point x="568.778" y="679.578"/>
      <point x="491.356" y="750.0"/>
      <point x="320.622" y="750.0" type="curve" smooth="yes"/>
      <point x="247.267" y="750.0"/>
      <point x="198.089" y="743.0"/>
      <point x="149.733" y="743.0" type="curve"/>
      <point x="94.467" y="744.0" type="line"/>
    </contour>
    <contour>
      <point x="210.644" y="425.311" type="curve"/>
      <point x="210.644" y="660.422" type="line"/>
      <point x="224.111" y="665.422"/>
      <point x="282.511" y="667.422"/>
      <point x="301.156" y="667.422" type="curve" smooth="yes"/>
      <point x="400.2" y="667.422"/>
      <point x="455.311" y="632.378"/>
      <point x="455.311" y="557.222" type="curve" smooth="yes"/>
      <point x="455.311" y="466.644"/>
      <point x="405.978" y="422.956"/>
      <point x="338.178" y="422.956" type="curve" smooth="yes"/>
      <point x="302.556" y="422.956"/>
      <point x="246.267" y="419.844"/>
    </contour>
    <contour>
      <point x="210.644" y="88.333" type="curve"/>
      <point x="210.644" y="337.978" type="line"/>
      <point x="237.8" y="341.8"/>
      <point x="293.044" y="340.333"/>
      <point x="330.8" y="340.333" type="curve" smooth="yes"/>
      <point x="445.422" y="340.333"/>
      <point x="498.467" y="301.4"/>
      <point x="498.467" y="211.422" type="curve" smooth="yes"/>
      <point x="498.467" y="110.267"/>
      <point x="434.667" y="77.156"/>
      <point x="326.867" y="77.156" type="curve" smooth="yes"/>
      <point x="291.578" y="77.156"/>
      <point x="227.111" y="78.156"/>
    </contour>
  </outline>
</glyph>
<glyph name="C" format="2">
  <advance width="641.0"/>
  <unicode hex="0043"/>
  <anchor x="321.0" y="0.0" name="bottom"/>
  <anchor x="382.0" y="-83.0" name="btm"/>
  <anchor x="388.0" y="830.0" name="top"/>
  <outline>
    <contour>
      <point x="46.0" y="368.0" type="curve" smooth="yes"/>
      <point x="46.0" y="143.0"/>
      <point x="183.0" y="-8.0"/>
      <point x="393.0" y="-8.0" type="curve" smooth="yes"/>
      <point x="485.0" y="-8.0"/>
      <point x="537.0" y="14.0"/>
      <point x="580.0" y="31.0" type="curve"/>
      <point x="580.0" y="124.0" type="line"/>
      <point x="554.0" y="101.0"/>
      <point x="473.0" y="78.0"/>
      <point x="397.0" y="78.0" type="curve" smooth="yes"/>
      <point x="246.0" y="78.0"/>
      <point x="154.0" y="201.0"/>
      <point x="154.0" y="375.0" type="curve" smooth="yes"/>
      <point x="154.0" y="551.0"/>
      <point x="247.0" y="663.0"/>
      <point x="397.0" y="663.0" type="curve" smooth="yes"/>
      <point x="509.0" y="663.0"/>
      <point x="555.0" y="634.0"/>
      <point x="569.0" y="626.0" type="curve"/>
      <point x="585.0" y="723.0" type="line"/>
      <point x="559.0" y="729.0"/>
      <point x="503.0" y="751.0"/>
      <point x="390.0" y="751.0" type="curve" smooth="yes"/>
      <point x="208.0" y="751.0"/>
      <point x="46.0" y="614.0"/>
    </contour>
  </outline>
</glyph>
<glyph name="D" format="2">
  <advance width="719.0"/>
  <unicode hex="0044"/>
  <anchor x="360.0" y="0.0" name="bottom"/>
  <anchor x="320.0" y="-83.0" name="btm"/>
  <anchor x="360.0" y="372.0" name="center"/>
  <anchor x="356.0" y="830.0" name="top"/>
  <outline>
    <contour>
      <point x="95.0" y="0.0" type="line"/>
      <point x="109.0" y="0.0"/>
      <point x="122.0" y="0.0"/>
      <point x="136.0" y="0.0" type="curve" smooth="yes"/>
      <point x="189.0" y="0.0"/>
      <point x="264.0" y="-7.0"/>
      <point x="313.0" y="-8.0" type="curve" smooth="yes"/>
      <point x="538.0" y="-12.0"/>
      <point x="678.0" y="139.0"/>
      <point x="678.0" y="393.0" type="curve" smooth="yes"/>
      <point x="678.0" y="619.0"/>
      <point x="564.0" y="751.0"/>
      <point x="325.0" y="751.0" type="curve" smooth="yes"/>
      <point x="263.0" y="751.0"/>
      <point x="197.0" y="743.0"/>
      <point x="149.0" y="743.0" type="curve" smooth="yes"/>
      <point x="131.0" y="743.0"/>
      <point x="113.0" y="743.0"/>
      <point x="95.0" y="743.0" type="curve"/>
    </contour>
    <contour>
      <point x="204.0" y="82.0" type="curve"/>
      <point x="204.0" y="665.0" type="line"/>
      <point x="226.0" y="669.0"/>
      <point x="260.0" y="672.0"/>
      <point x="300.0" y="672.0" type="curve" smooth="yes"/>
      <point x="475.0" y="672.0"/>
      <point x="564.0" y="596.0"/>
      <point x="564.0" y="376.0" type="curve" smooth="yes"/>
      <point x="564.0" y="163.0"/>
      <point x="467.0" y="76.0"/>
      <point x="331.0" y="73.0" type="curve" smooth="yes"/>
      <point x="289.0" y="72.0"/>
      <point x="237.0" y="75.0"/>
    </contour>
  </outline>
</glyph>
<glyph name="E" format="2">
  <advance width="594.0"/>
  <unicode hex="0045"/>
  <anchor x="297.0" y="0.0" name="bottom"/>
  <anchor x="327.0" y="-83.0" name="btm"/>
  <anchor x="544.0" y="10.0" name="ogonek"/>
  <anchor x="321.0" y="830.0" name="top"/>
  <anchor x="20.0" y="743.0" name="topleft"/>
  <outline>
    <contour>
      <point x="95.0" y="0.0" type="line"/>
      <point x="558.0" y="0.0" type="line"/>
      <point x="558.0" y="85.0" type="line"/>
      <point x="204.0" y="85.0" type="line"/>
      <point x="204.0" y="341.0" type="line"/>
      <point x="438.0" y="341.0" type="line"/>
      <point x="438.0" y="425.0" type="line"/>
      <point x="204.0" y="425.0" type="line"/>
      <point x="204.0" y="659.0" type="line"/>
      <point x="522.0" y="659.0" type="line"/>
      <point x="522.0" y="743.0" type="line"/>
      <point x="95.0" y="743.0" type="line"/>
    </contour>
  </outline>
</glyph>
<glyph name="F" format="2">
  <advance width="529.0"/>
  <unicode hex="0046"/>
  <anchor x="265.0" y="0.0" name="bottom"/>
  <anchor x="334.0" y="-83.0" name="btm"/>
  <anchor x="330.0" y="830.0" name="top"/>
  <outline>
    <contour>
      <point x="95.0" y="0.0" type="line"/>
      <point x="204.0" y="0.0" type="line"/>
      <point x="204.0" y="332.0" type="line"/>
      <point x="442.0" y="332.0" type="line"/>
      <point x="442.0" y="416.0" type="line"/>
      <point x="204.0" y="416.0" type="line"/>
      <point x="204.0" y="659.0" type="line"/>
      <point x="521.0" y="659.0" type="line"/>
      <point x="521.0" y="743.0" type="line"/>
      <point x="95.0" y="743.0" type="line"/>
    </contour>
  </outline>
</glyph>
<glyph name="G" format="2">
  <advance width="700.0"/>
  <unicode hex="0047"/>
  <anchor x="350.0" y="0.0" name="bottom"/>
  <anchor x="393.0" y="-83.0" name="btm"/>
  <anchor x="394.0" y="830.0" name="top"/>
  <outline>
    <contour>
      <point x="48.0" y="368.0" type="curve" smooth="yes"/>
      <point x="48.0" y="153.0"/>
      <point x="173.0" y="-8.0"/>
      <point x="393.0" y="-8.0" type="curve" smooth="yes"/>
      <point x="543.0" y="-8.0"/>
      <point x="600.0" y="43.0"/>
      <point x="643.0" y="46.0" type="curve"/>
      <point x="643.0" y="372.0" type="line"/>
      <point x="403.0" y="372.0" type="line"/>
      <point x="403.0" y="293.0" type="line"/>
      <point x="568.0" y="286.0" type="line"/>
      <point x="538.0" y="306.0" type="line"/>
      <point x="538.0" y="103.0" type="line"/>
      <point x="510.0" y="84.0"/>
      <point x="444.0" y="75.0"/>
      <point x="391.0" y="75.0" type="curve" smooth="yes"/>
      <point x="234.0" y="75.0"/>
      <point x="161.0" y="209.0"/>
      <point x="161.0" y="381.0" type="curve" smooth="yes"/>
      <point x="161.0" y="561.0"/>
      <point x="256.0" y="666.0"/>
      <point x="386.0" y="666.0" type="curve" smooth="yes"/>
      <point x="495.0" y="666.0"/>
      <point x="548.0" y="648.0"/>
      <point x="596.0" y="624.0" type="curve"/>
      <point x="601.0" y="722.0" type="line"/>
      <point x="536.0" y="734.0"/>
      <point x="504.0" y="751.0"/>
      <point x="393.0" y="751.0" type="curve" smooth="yes"/>
      <point x="201.0" y="751.0"/>
      <point x="48.0" y="623.0"/>
    </contour>
  </outline>
</glyph>
<glyph name="H" format="2">
  <advance width="758.0"/>
  <unicode hex="0048"/>
  <anchor x="379.0" y="0.0" name="bottom"/>
  <anchor x="376.0" y="-83.0" name="btm"/>
  <anchor x="379.0" y="372.0" name="center"/>
  <anchor x="379.0" y="830.0" name="top"/>
  <anchor x="20.0" y="743.0" name="topleft"/>
  <outline>
    <contour>
      <point x="95.0" y="0.0" type="line"/>
      <point x="204.0" y="0.0" type="line"/>
      <point x="204.0" y="333.0" type="line"/>
      <point x="554.0" y="333.0" type="line"/>
      <point x="554.0" y="0.0" type="line"/>
      <point x="663.0" y="0.0" type="line"/>
      <point x="663.0" y="743.0" type="line"/>
      <point x="554.0" y="743.0" type="line"/>
      <point x="554.0" y="417.0" type="line"/>
      <point x="204.0" y="417.0" type="line"/>
      <point x="204.0" y="743.0" type="line"/>
      <point x="95.0" y="743.0" type="line"/>
    </contour>
  </outline>
</glyph>
<glyph name="J" format="2">
  <advance width="348.0"/>
  <unicode hex="004A"/>
  <anchor x="174.0" y="0.0" name="bottom"/>
  <anchor x="131.0" y="-83.0" name="btm"/>
  <anchor x="184.0" y="830.0" name="top"/>
  <outline>
    <contour>
      <point x="13.0" y="-162.0" type="line"/>
      <point x="95.0" y="-149.0"/>
      <point x="209.0" y="-85.0"/>
      <point x="232.0" y="42.0" type="curve" smooth="yes"/>
      <point x="245.0" y="113.0"/>
      <point x="241.0" y="202.0"/>
      <point x="241.0" y="299.0" type="curve" smooth="yes"/>
      <point x="241.0" y="743.0" type="line"/>
      <point x="131.0" y="743.0" type="line"/>
      <point x="131.0" y="297.0" type="line" smooth="yes"/>
      <point x="131.0" y="193.0"/>
      <point x="131.0" y="91.0"/>
      <point x="115.0" y="32.0" type="curve" smooth="yes"/>
      <point x="94.0" y="-44.0"/>
      <point x="31.0" y="-86.0"/>
      <point x="-21.0" y="-105.0" type="curve"/>
    </contour>
  </outline>
</glyph>
<glyph name="K" format="2">
  <advance width="669.0"/>
  <unicode hex="004B"/>
  <anchor x="335.0" y="0.0" name="bottom"/>
  <anchor x="338.0" y="-83.0" name="btm"/>
  <anchor x="338.0" y="830.0" name="top"/>
  <outline>
    <contour>
      <point x="95.0" y="0.0" type="line"/>
      <point x="204.0" y="0.0" type="line"/>
      <point x="204.0" y="297.0" type="line"/>
      <point x="177.0" y="204.0" type="line"/>
      <point x="312.0" y="360.0" type="line"/>
      <point x="324.0" y="375.0" type="line"/>
      <point x="626.0" y="743.0" type="line"/>
      <point x="498.0" y="743.0" type="line"/>
      <point x="204.0" y="370.0" type="line"/>
      <point x="204.0" y="743.0" type="line"/>
      <point x="95.0" y="743.0" type="line"/>
    </contour>
    <contour>
      <point x="480.0" y="55.0" type="curve" smooth="yes"/>
      <point x="498.0" y="25.0"/>
      <point x="501.0" y="13.0"/>
      <point x="510.0" y="0.0" type="curve"/>
      <point x="636.0" y="0.0" type="line"/>
      <point x="625.0" y="18.0"/>
      <point x="615.0" y="36.0"/>
      <point x="604.0" y="54.0" type="curve"/>
      <point x="539.0" y="169.0"/>
      <point x="384.0" y="382.0"/>
      <point x="352.0" y="443.0" type="curve"/>
      <point x="313.0" y="397.0" type="line"/>
      <point x="275.0" y="377.0" type="line"/>
      <point x="326.0" y="291.0"/>
      <point x="426.0" y="154.0"/>
    </contour>
  </outline>
</glyph>
<glyph name="L" format="2">
  <advance width="527.0"/>
  <unicode hex="004C"/>
  <anchor x="264.0" y="0.0" name="bottom"/>
  <anchor x="294.0" y="-83.0" name="btm"/>
  <anchor x="264.0" y="372.0" name="center"/>
  <anchor x="149.0" y="830.0" name="top"/>
  <anchor x="507.0" y="743.0" name="topright"/>
  <outline>
    <contour>
      <point x="95.0" y="0.0" type="line"/>
      <point x="501.0" y="0.0" type="line"/>
      <point x="501.0" y="85.0" type="line"/>
      <point x="206.0" y="85.0" type="line"/>
      <point x="206.0" y="743.0" type="line"/>
      <point x="95.0" y="743.0" type="line"/>
    </contour>
  </outline>
</glyph>
<glyph name="M" format="2">
  <advance width="935.8"/>
  <unicode hex="004D"/>
  <anchor x="468.4" y="0.0" name="bottom"/>
  <anchor x="470.467" y="-83.0" name="btm"/>
  <anchor x="469.756" y="800.0" name="top"/>
  <outline>
    <contour>
      <point x="59.489" y="0.0" type="line"/>
      <point x="172.244" y="0.0" type="line"/>
      <point x="210.822" y="450.622" type="line"/>
      <point x="225.533" y="655.6" type="line"/>
      <point x="279.711" y="450.622" type="line"/>
      <point x="433.711" y="-7.0" type="line"/>
      <point x="504.089" y="-7.0" type="line"/>
      <point x="650.556" y="450.622" type="line"/>
      <point x="701.444" y="655.6" type="line"/>
      <point x="715.267" y="450.622" type="line"/>
      <point x="759.489" y="0.0" type="line"/>
      <point x="876.311" y="0.0" type="line"/>
      <point x="787.311" y="743.0" type="line"/>
      <point x="629.578" y="743.0" type="line"/>
      <point x="505.222" y="325.044" type="line"/>
      <point x="470.467" y="165.8" type="line"/>
      <point x="431.822" y="325.044" type="line"/>
      <point x="300.756" y="743.0" type="line"/>
      <point x="136.022" y="743.0" type="line"/>
    </contour>
  </outline>
</glyph>
<glyph name="N" format="2">
  <advance width="765.51111"/>
  <unicode hex="004E"/>
  <anchor x="382.844" y="0.0" name="bottom"/>
  <anchor x="365.844" y="-83.0" name="btm"/>
  <anchor x="388.6" y="830.0" name="top"/>
  <outline>
    <contour>
      <point x="93.644" y="0.0" type="line"/>
      <point x="201.467" y="0.0" type="line"/>
      <point x="201.467" y="446.689" type="line"/>
      <point x="189.444" y="672.067" type="line"/>
      <point x="145.978" y="672.067" type="line"/>
      <point x="260.733" y="462.756" type="line"/>
      <point x="560.267" y="0.0" type="line"/>
      <point x="671.867" y="0.0" type="line"/>
      <point x="671.867" y="743.0" type="line"/>
      <point x="563.222" y="743.0" type="line"/>
      <point x="563.222" y="285.2" type="line"/>
      <point x="575.644" y="77.444" type="line"/>
      <point x="611.333" y="77.444" type="line"/>
      <point x="512.178" y="261.6" type="line"/>
      <point x="201.467" y="743.0" type="line"/>
      <point x="93.644" y="743.0" type="line"/>
    </contour>
  </outline>
</glyph>
<glyph name="O" format="2">
  <advance width="766.0"/>
  <unicode hex="004F"/>
  <anchor x="383.0" y="0.0" name="bottom"/>
  <anchor x="382.0" y="-83.0" name="btm"/>
  <anchor x="383.0" y="372.0" name="center"/>
  <anchor x="689.0" y="10.0" name="ogonek"/>
  <anchor x="395.0" y="830.0" name="top"/>
  <anchor x="20.0" y="743.0" name="topleft"/>
  <anchor x="746.0" y="743.0" name="topright"/>
  <outline>
    <contour>
      <point x="380.0" y="-8.0" type="curve" smooth="yes"/>
      <point x="570.0" y="-4.0"/>
      <point x="712.0" y="124.0"/>
      <point x="717.0" y="372.0" type="curve" smooth="yes"/>
      <point x="722.0" y="602.0"/>
      <point x="592.0" y="751.0"/>
      <point x="395.0" y="751.0" type="curve" smooth="yes"/>
      <point x="206.0" y="751.0"/>
      <point x="54.0" y="625.0"/>
      <point x="49.0" y="377.0" type="curve" smooth="yes"/>
      <point x="44.0" y="152.0"/>
      <point x="174.0" y="-12.0"/>
    </contour>
    <contour>
      <point x="383.0" y="76.0" type="curve" smooth="yes"/>
      <point x="235.0" y="76.0"/>
      <point x="159.0" y="216.0"/>
      <point x="159.0" y="370.0" type="curve" smooth="yes"/>
      <point x="159.0" y="574.0"/>
      <point x="266.0" y="668.0"/>
      <point x="391.0" y="668.0" type="curve" smooth="yes"/>
      <point x="534.0" y="668.0"/>
      <point x="607.0" y="533.0"/>
      <point x="607.0" y="377.0" type="curve" smooth="yes"/>
      <point x="607.0" y="181.0"/>
      <point x="519.0" y="76.0"/>
    </contour>
  </outline>
</glyph>
<glyph name="P" format="2">
  <advance width="620.0"/>
  <unicode hex="0050"/>
  <anchor x="310.0" y="0.0" name="bottom"/>
  <anchor x="338.0" y="-83.0" name="btm"/>
  <anchor x="338.0" y="830.0" name="top"/>
  <outline>
    <contour>
      <point x="95.0" y="0.0" type="line"/>
      <point x="204.0" y="0.0" type="line"/>
      <point x="204.0" y="257.0" type="line"/>
      <point x="223.0" y="257.0"/>
      <point x="252.0" y="255.0"/>
      <point x="300.0" y="255.0" type="curve" smooth="yes"/>
      <point x="485.0" y="255.0"/>
      <point x="584.0" y="349.0"/>
      <point x="584.0" y="510.0" type="curve" smooth="yes"/>
      <point x="584.0" y="679.0"/>
      <point x="485.0" y="751.0"/>
      <point x="325.0" y="751.0" type="curve" smooth="yes"/>
      <point x="259.0" y="751.0"/>
      <point x="203.0" y="743.0"/>
      <point x="146.0" y="743.0" type="curve" smooth="yes"/>
      <point x="95.0" y="743.0" type="line"/>
    </contour>
    <contour>
      <point x="204.0" y="340.0" type="curve"/>
      <point x="204.0" y="664.0" type="line"/>
      <point x="231.0" y="670.0"/>
      <point x="262.0" y="672.0"/>
      <point x="292.0" y="673.0" type="curve" smooth="yes"/>
      <point x="411.0" y="677.0"/>
      <point x="476.0" y="628.0"/>
      <point x="476.0" y="509.0" type="curve" smooth="yes"/>
      <point x="476.0" y="363.0"/>
      <point x="389.0" y="335.0"/>
      <point x="293.0" y="335.0" type="curve" smooth="yes"/>
      <point x="265.0" y="335.0"/>
      <point x="236.0" y="335.0"/>
    </contour>
  </outline>
</glyph>
<glyph name="Q" format="2">
  <advance width="766.0"/>
  <unicode hex="0051"/>
  <anchor x="383.0" y="0.0" name="bottom"/>
  <anchor x="383.0" y="-83.0" name="btm"/>
  <anchor x="383.0" y="830.0" name="top"/>
  <anchor x="383.0" y="372.0" name="center"/>
  <anchor x="689.0" y="10.0" name="ogonek"/>
  <anchor x="20.0" y="743.0" name="topleft"/>
  <anchor x="746.0" y="743.0" name="topright"/>
  <outline>
    <contour>
      <point x="598.0" y="-144.0" type="curve" smooth="yes"/>
      <point x="636.0" y="-144.0"/>
      <point x="653.0" y="-134.0"/>
      <point x="668.0" y="-124.0" type="curve"/>
      <point x="668.0" y="-46.0" type="line"/>
      <point x="645.0" y="-54.0"/>
      <point x="623.0" y="-55.0"/>
      <point x="598.0" y="-55.0" type="curve" smooth="yes"/>
      <point x="523.0" y="-55.0"/>
      <point x="497.0" y="-30.0"/>
      <point x="458.0" y="33.0" type="curve"/>
      <point x="406.0" y="33.0" type="line"/>
      <point x="358.0" y="16.0" type="line"/>
      <point x="444.0" y="-114.0"/>
      <point x="489.0" y="-144.0"/>
    </contour>
    <component base="O"/>
  </outline>
</glyph>
<glyph name="R" format="2">
  <advance width="673.04444"/>
  <unicode hex="0052"/>
  <anchor x="337.022" y="0.0" name="bottom"/>
  <anchor x="339.911" y="-83.0" name="btm"/>
  <anchor x="320.911" y="830.0" name="top"/>
  <outline>
    <contour>
      <point x="211.644" y="0.0" type="line"/>
      <point x="211.644" y="309.778" type="line"/>
      <point x="332.111" y="309.778"/>
      <point x="365.289" y="311.667"/>
      <point x="406.111" y="317.667" type="curve" smooth="yes"/>
      <point x="520.644" y="335.844"/>
      <point x="591.822" y="405.422"/>
      <point x="591.822" y="539.156" type="curve" smooth="yes"/>
      <point x="591.822" y="692.133"/>
      <point x="486.022" y="751.0"/>
      <point x="337.156" y="751.0" type="curve" smooth="yes"/>
      <point x="258.933" y="751.0"/>
      <point x="193.378" y="743.0"/>
      <point x="145.911" y="743.0" type="curve" smooth="yes"/>
      <point x="128.489" y="743.0"/>
      <point x="111.889" y="743.0"/>
      <point x="94.467" y="743.0" type="curve"/>
      <point x="94.467" y="0.0" type="line"/>
    </contour>
    <contour>
      <point x="211.644" y="393.822" type="curve"/>
      <point x="211.644" y="655.6" type="line"/>
      <point x="241.933" y="661.778"/>
      <point x="281.044" y="664.6"/>
      <point x="319.8" y="664.6" type="curve" smooth="yes"/>
      <point x="434.978" y="664.6"/>
      <point x="473.889" y="620.289"/>
      <point x="473.889" y="534.333" type="curve" smooth="yes"/>
      <point x="473.889" y="437.378"/>
      <point x="419.978" y="390.822"/>
      <point x="323.511" y="390.822" type="curve" smooth="yes"/>
      <point x="297.689" y="390.822"/>
      <point x="232.644" y="390.822"/>
    </contour>
    <contour>
      <point x="511.689" y="0.0" type="curve"/>
      <point x="644.4" y="0.0" type="line"/>
      <point x="633.578" y="18.0"/>
      <point x="624.4" y="36.0"/>
      <point x="614.4" y="54.822" type="curve" smooth="yes"/>
      <point x="560.867" y="150.822"/>
      <point x="521.0" y="307.8"/>
      <point x="441.822" y="341.8" type="curve"/>
      <point x="371.667" y="347.6" type="line"/>
      <point x="326.911" y="313.422" type="line"/>
      <point x="409.6" y="300.911"/>
      <point x="443.511" y="144.289"/>
      <point x="484.689" y="54.822" type="curve" smooth="yes"/>
      <point x="499.689" y="22.822"/>
      <point x="502.867" y="13.0"/>
    </contour>
  </outline>
</glyph>
<glyph name="S" format="2">
  <advance width="559.4"/>
  <unicode hex="0053"/>
  <anchor x="280.2" y="0.0" name="bottom"/>
  <anchor x="276.911" y="-83.0" name="btm"/>
  <anchor x="298.089" y="830.0" name="top"/>
  <outline>
    <contour>
      <point x="275.622" y="-8.0" type="curve" smooth="yes"/>
      <point x="422.689" y="-8.0"/>
      <point x="525.044" y="58.422"/>
      <point x="525.044" y="194.889" type="curve" smooth="yes"/>
      <point x="525.044" y="312.6"/>
      <point x="418.956" y="372.178"/>
      <point x="319.4" y="423.489" type="curve" smooth="yes"/>
      <point x="215.244" y="477.067"/>
      <point x="174.778" y="502.533"/>
      <point x="174.778" y="572.156" type="curve" smooth="yes"/>
      <point x="174.778" y="632.778"/>
      <point x="238.311" y="660.489"/>
      <point x="311.444" y="660.489" type="curve" smooth="yes"/>
      <point x="390.378" y="660.489"/>
      <point x="430.867" y="640.422"/>
      <point x="465.222" y="619.067" type="curve"/>
      <point x="487.756" y="711.289" type="line"/>
      <point x="461.756" y="728.289"/>
      <point x="402.089" y="751.0"/>
      <point x="311.378" y="751.0" type="curve" smooth="yes"/>
      <point x="188.0" y="751.0"/>
      <point x="62.244" y="701.933"/>
      <point x="62.244" y="558.4" type="curve" smooth="yes"/>
      <point x="62.244" y="448.733"/>
      <point x="156.778" y="377.8"/>
      <point x="247.889" y="333.156" type="curve" smooth="yes"/>
      <point x="354.667" y="281.911"/>
      <point x="409.156" y="252.689"/>
      <point x="409.156" y="183.244" type="curve" smooth="yes"/>
      <point x="409.156" y="113.689"/>
      <point x="359.311" y="85.222"/>
      <point x="268.267" y="85.222" type="curve" smooth="yes"/>
      <point x="198.133" y="85.222"/>
      <point x="127.311" y="108.4"/>
      <point x="89.422" y="130.578" type="curve"/>
      <point x="64.956" y="35.178" type="line"/>
      <point x="91.311" y="18.178"/>
      <point x="177.8" y="-8.0"/>
    </contour>
  </outline>
</glyph>
<glyph name="T" format="2">
  <advance width="636.0"/>
  <unicode hex="0054"/>
  <anchor x="318.0" y="0.0" name="bottom"/>
  <anchor x="314.0" y="-83.0" name="btm"/>
  <anchor x="318.0" y="372.0" name="center"/>
  <anchor x="314.0" y="830.0" name="top"/>
  <outline>
    <contour>
      <point x="263.0" y="0.0" type="line"/>
      <point x="373.0" y="0.0" type="line"/>
      <point x="373.0" y="659.0" type="line"/>
      <point x="605.0" y="659.0" type="line"/>
      <point x="605.0" y="743.0" type="line"/>
      <point x="31.0" y="743.0" type="line"/>
      <point x="31.0" y="659.0" type="line"/>
      <point x="263.0" y="659.0" type="line"/>
    </contour>
  </outline>
</glyph>
<glyph name="U" format="2">
  <advance width="714.0"/>
  <unicode hex="0055"/>
  <anchor x="357.0" y="0.0" name="bottom"/>
  <anchor x="363.0" y="-83.0" name="btm"/>
  <anchor x="643.0" y="10.0" name="ogonek"/>
  <anchor x="364.0" y="830.0" name="top"/>
  <anchor x="694.0" y="743.0" name="topright"/>
  <outline>
    <contour>
      <point x="362.0" y="-8.0" type="curve" smooth="yes"/>
      <point x="548.0" y="-8.0"/>
      <point x="637.0" y="105.0"/>
      <point x="637.0" y="308.0" type="curve" smooth="yes"/>
      <point x="637.0" y="743.0" type="line"/>
      <point x="529.0" y="743.0" type="line"/>
      <point x="529.0" y="335.0" type="line" smooth="yes"/>
      <point x="529.0" y="130.0"/>
      <point x="466.0" y="77.0"/>
      <point x="365.0" y="77.0" type="curve" smooth="yes"/>
      <point x="251.0" y="77.0"/>
      <point x="186.0" y="130.0"/>
      <point x="186.0" y="335.0" type="curve" smooth="yes"/>
      <point x="187.0" y="743.0" type="line"/>
      <point x="78.0" y="743.0" type="line"/>
      <point x="78.0" y="309.0" type="line" smooth="yes"/>
      <point x="77.0" y="108.0"/>
      <point x="158.0" y="-8.0"/>
    </contour>
  </outline>
</glyph>
<glyph name="V" format="2">
  <advance width="662.0"/>
  <unicode hex="0056"/>
  <anchor x="331.0" y="0.0" name="bottom"/>
  <anchor x="332.0" y="-83.0" name="btm"/>
  <anchor x="332.0" y="830.0" name="top"/>
  <outline>
    <contour>
      <point x="289.0" y="-6.0" type="line"/>
      <point x="380.0" y="-6.0" type="line"/>
      <point x="651.0" y="743.0" type="line"/>
      <point x="537.0" y="743.0" type="line"/>
      <point x="369.0" y="243.0" type="line"/>
      <point x="335.0" y="128.0" type="line"/>
      <point x="302.0" y="243.0" type="line"/>
      <point x="126.0" y="743.0" type="line"/>
      <point x="11.0" y="743.0" type="line"/>
    </contour>
  </outline>
</glyph>
<glyph name="W" format="2">
  <advance width="941.62222"/>
  <unicode hex="0057"/>
  <anchor x="471.311" y="0.0" name="bottom"/>
  <anchor x="469.533" y="-83.0" name="btm"/>
  <anchor x="469.533" y="830.0" name="top"/>
  <outline>
    <contour>
      <point x="212.689" y="-8.0" type="line"/>
      <point x="316.289" y="-8.0" type="line"/>
      <point x="452.889" y="466.2" type="line"/>
      <point x="488.489" y="668.733" type="line"/>
      <point x="452.711" y="669.556" type="line"/>
      <point x="489.022" y="466.2" type="line"/>
      <point x="623.444" y="-8.0" type="line"/>
      <point x="739.867" y="-8.0" type="line"/>
      <point x="932.222" y="743.0" type="line"/>
      <point x="814.222" y="743.0" type="line"/>
      <point x="708.667" y="268.356" type="line"/>
      <point x="677.133" y="77.333" type="line"/>
      <point x="696.489" y="77.333" type="line"/>
      <point x="653.667" y="269.178" type="line"/>
      <point x="516.644" y="743.0" type="line"/>
      <point x="426.978" y="743.0" type="line"/>
      <point x="292.844" y="269.178" type="line"/>
      <point x="258.6" y="77.511" type="line"/>
      <point x="275.956" y="77.511" type="line"/>
      <point x="242.6" y="269.178" type="line"/>
      <point x="129.222" y="743.0" type="line"/>
      <point x="9.4" y="743.0" type="line"/>
    </contour>
  </outline>
</glyph>
<glyph name="X" format="2">
  <advance width="647.33333"/>
  <unicode hex="0058"/>
  <anchor x="323.667" y="0.0" name="bottom"/>
  <anchor x="315.844" y="-83.0" name="btm"/>
  <anchor x="315.844" y="830.0" name="top"/>
  <outline>
    <contour>
      <point x="20.111" y="0.0" type="line"/>
      <point x="145.111" y="0.0" type="line"/>
      <point x="270.8" y="217.044" type="line"/>
      <point x="333.311" y="323.844" type="line"/>
      <point x="301.489" y="322.844" type="line"/>
      <point x="365.822" y="217.044" type="line"/>
      <point x="494.689" y="0.0" type="line"/>
      <point x="627.222" y="0.0" type="line"/>
      <point x="370.244" y="400.756" type="line"/>
      <point x="383.644" y="354.756" type="line"/>
      <point x="622.222" y="743.0" type="line"/>
      <point x="497.689" y="743.0" type="line"/>
      <point x="383.289" y="547.0" type="line"/>
      <point x="316.378" y="432.511" type="line"/>
      <point x="341.2" y="432.511" type="line"/>
      <point x="272.933" y="547.0" type="line"/>
      <point x="153.178" y="744.0" type="line"/>
      <point x="21.822" y="743.0" type="line"/>
      <point x="269.978" y="356.0" type="line"/>
      <point x="263.511" y="400.889" type="line"/>
    </contour>
  </outline>
</glyph>
<glyph name="Y" format="2">
  <advance width="617.0"/>
  <unicode hex="0059"/>
  <anchor x="309.0" y="0.0" name="bottom"/>
  <anchor x="314.0" y="-83.0" name="btm"/>
  <anchor x="314.0" y="830.0" name="top"/>
  <anchor x="20.0" y="743.0" name="topleft"/>
  <outline>
    <contour>
      <point x="255.0" y="0.0" type="line"/>
      <point x="366.0" y="0.0" type="line"/>
      <point x="366.0" y="317.0" type="line"/>
      <point x="348.0" y="256.0" type="line"/>
      <point x="606.0" y="743.0" type="line"/>
      <point x="492.0" y="743.0" type="line"/>
      <point x="331.0" y="421.0" type="line"/>
      <point x="305.0" y="346.0" type="line"/>
      <point x="323.0" y="346.0" type="line"/>
      <point x="292.0" y="421.0" type="line"/>
      <point x="127.0" y="743.0" type="line"/>
      <point x="11.0" y="743.0" type="line"/>
      <point x="273.0" y="256.0" type="line"/>
      <point x="255.0" y="318.0" type="line"/>
    </contour>
  </outline>
</glyph>
<glyph name="Z" format="2">
  <advance width="632.0"/>
  <unicode hex="005A"/>
  <anchor x="316.0" y="0.0" name="bottom"/>
  <anchor x="314.0" y="-83.0" name="btm"/>
  <anchor x="316.0" y="372.0" name="center"/>
  <anchor x="332.0" y="830.0" name="top"/>
  <outline>
    <contour>
      <point x="65.0" y="0.0" type="line"/>
      <point x="565.0" y="0.0" type="line"/>
      <point x="565.0" y="85.0" type="line"/>
      <point x="187.0" y="85.0" type="line"/>
      <point x="223.0" y="127.0" type="line"/>
      <point x="594.0" y="704.0" type="line"/>
      <point x="571.0" y="743.0" type="line"/>
      <point x="85.0" y="743.0" type="line"/>
      <point x="85.0" y="656.0" type="line"/>
      <point x="451.0" y="656.0" type="line"/>
      <point x="423.0" y="622.0" type="line"/>
      <point x="43.0" y="41.0" type="line"/>
    </contour>
  </outline>
</glyph>
<glyph name="asciicircum" format="2">
  <advance width="666.0"/>
  <unicode hex="005E"/>
  <outline>
    <contour>
      <point x="90.0" y="239.0" type="line"/>
      <point x="283.0" y="748.0" type="line"/>
      <point x="383.0" y="748.0" type="line"/>
      <point x="575.0" y="239.0" type="line"/>
      <point x="472.0" y="239.0" type="line"/>
      <point x="328.0" y="642.0" type="line"/>
      <point x="337.0" y="642.0" type="line"/>
      <point x="193.0" y="239.0" type="line"/>
    </contour>
  </outline>
</glyph>
<glyph name="underscore" format="2">
  <advance width="826.88889"/>
  <unicode hex="005F"/>
  <outline>
    <contour>
      <point x="-19.467" y="-202.467" type="line"/>
      <point x="846.356" y="-202.467" type="line"/>
      <point x="846.356" y="-132.8" type="line"/>
      <point x="-19.467" y="-132.8" type="line"/>
    </contour>
  </outline>
</glyph>
<glyph name="grave" format="2">
  <advance width="291.0"/>
  <unicode hex="0060"/>
  <anchor x="212.0" y="830.0" name="_top"/>
  <outline>
    <contour>
      <point x="266.0" y="676.0" type="line"/>
      <point x="211.0" y="738.0"/>
      <point x="147.0" y="811.0"/>
      <point x="101.0" y="871.0" type="curve"/>
      <point x="24.0" y="805.0" type="line"/>
      <point x="57.0" y="755.0"/>
      <point x="172.0" y="650.0"/>
      <point x="212.0" y="632.0" type="curve"/>
    </contour>
  </outline>
</glyph>
<glyph name="a" format="2">
  <advance width="552.0"/>
  <unicode hex="0061"/>
  <anchor x="276.0" y="0.0" name="bottom"/>
  <anchor x="277.0" y="-100.0" name="btm"/>
  <anchor x="491.0" y="25.0" name="ogonek"/>
  <anchor x="269.0" y="830.0" name="top"/>
  <outline>
    <contour>
      <point x="216.0" y="-8.0" type="curve" smooth="yes"/>
      <point x="282.0" y="-8.0"/>
      <point x="343.0" y="20.0"/>
      <point x="373.0" y="47.0" type="curve"/>
      <point x="389.0" y="90.0" type="line"/>
      <point x="366.0" y="112.0" type="line"/>
      <point x="355.0" y="99.0"/>
      <point x="298.0" y="72.0"/>
      <point x="248.0" y="72.0" type="curve" smooth="yes"/>
      <point x="183.0" y="72.0"/>
      <point x="152.0" y="102.0"/>
      <point x="152.0" y="158.0" type="curve" smooth="yes"/>
      <point x="152.0" y="201.0"/>
      <point x="178.0" y="224.0"/>
      <point x="214.0" y="241.0" type="curve" smooth="yes"/>
      <point x="254.0" y="260.0"/>
      <point x="326.0" y="268.0"/>
      <point x="366.0" y="268.0" type="curve"/>
      <point x="390.0" y="306.0" type="line"/>
      <point x="366.0" y="336.0" type="line"/>
      <point x="303.0" y="336.0"/>
      <point x="219.0" y="326.0"/>
      <point x="154.0" y="300.0" type="curve" smooth="yes"/>
      <point x="88.0" y="272.0"/>
      <point x="46.0" y="221.0"/>
      <point x="46.0" y="149.0" type="curve" smooth="yes"/>
      <point x="46.0" y="51.0"/>
      <point x="118.0" y="-8.0"/>
    </contour>
    <contour>
      <point x="474.0" y="0.0" type="line"/>
      <point x="474.0" y="388.0" type="line" smooth="yes"/>
      <point x="474.0" y="534.0"/>
      <point x="394.0" y="565.0"/>
      <point x="275.0" y="565.0" type="curve" smooth="yes"/>
      <point x="189.0" y="565.0"/>
      <point x="91.0" y="526.0"/>
      <point x="71.0" y="514.0" type="curve"/>
      <point x="97.0" y="434.0" type="line"/>
      <point x="123.0" y="452.0"/>
      <point x="199.0" y="475.0"/>
      <point x="263.0" y="475.0" type="curve" smooth="yes"/>
      <point x="328.0" y="475.0"/>
      <point x="366.0" y="459.0"/>
      <point x="366.0" y="392.0" type="curve" smooth="yes"/>
      <point x="366.0" y="83.0" type="line"/>
      <point x="373.0" y="83.0" type="line"/>
      <point x="373.0" y="0.0" type="line"/>
    </contour>
  </outline>
</glyph>
<glyph name="b" format="2">
  <advance width="604.0"/>
  <unicode hex="0062"/>
  <anchor x="302.0" y="0.0" name="bottom"/>
  <anchor x="313.0" y="-83.0" name="btm"/>
  <anchor x="363.0" y="830.0" name="top"/>
  <outline>
    <contour>
      <point x="81.0" y="811.0" type="line"/>
      <point x="81.0" y="31.0" type="line"/>
      <point x="188.0" y="81.0" type="line"/>
      <point x="188.0" y="483.0" type="line"/>
      <point x="184.0" y="486.0" type="line"/>
      <point x="188.0" y="581.0" type="line"/>
      <point x="188.0" y="811.0" type="line"/>
    </contour>
    <contour>
      <point x="276.0" y="-9.0" type="curve" smooth="yes"/>
      <point x="445.0" y="-9.0"/>
      <point x="557.0" y="119.0"/>
      <point x="557.0" y="299.0" type="curve" smooth="yes"/>
      <point x="557.0" y="479.0"/>
      <point x="455.0" y="564.0"/>
      <point x="337.0" y="564.0" type="curve" smooth="yes"/>
      <point x="236.0" y="564.0"/>
      <point x="193.0" y="512.0"/>
      <point x="170.0" y="488.0" type="curve"/>
      <point x="188.0" y="435.0" type="line"/>
      <point x="212.0" y="453.0"/>
      <point x="254.0" y="480.0"/>
      <point x="308.0" y="480.0" type="curve" smooth="yes"/>
      <point x="398.0" y="480.0"/>
      <point x="449.0" y="418.0"/>
      <point x="448.0" y="284.0" type="curve" smooth="yes"/>
      <point x="446.0" y="145.0"/>
      <point x="378.0" y="70.0"/>
      <point x="289.0" y="70.0" type="curve" smooth="yes"/>
      <point x="241.0" y="70.0"/>
      <point x="207.0" y="77.0"/>
      <point x="188.0" y="90.0" type="curve"/>
      <point x="81.0" y="31.0" type="line"/>
      <point x="102.0" y="18.0"/>
      <point x="199.0" y="-9.0"/>
    </contour>
  </outline>
</glyph>
<glyph name="c" format="2">
  <advance width="492.55556"/>
  <unicode hex="0063"/>
  <anchor x="246.778" y="0.0" name="bottom"/>
  <anchor x="280.489" y="-83.0" name="btm"/>
  <anchor x="301.133" y="830.178" name="top"/>
  <outline>
    <contour>
      <point x="46.822" y="271.822" type="curve" smooth="yes"/>
      <point x="46.822" y="112.822"/>
      <point x="134.644" y="-8.0"/>
      <point x="294.489" y="-8.0" type="curve" smooth="yes"/>
      <point x="364.489" y="-8.0"/>
      <point x="431.489" y="13.178"/>
      <point x="465.489" y="45.356" type="curve"/>
      <point x="443.489" y="111.689" type="line"/>
      <point x="419.022" y="97.044"/>
      <point x="367.733" y="80.467"/>
      <point x="312.622" y="80.467" type="curve" smooth="yes"/>
      <point x="224.578" y="80.467"/>
      <point x="154.533" y="153.556"/>
      <point x="159.356" y="291.822" type="curve" smooth="yes"/>
      <point x="164.0" y="422.556"/>
      <point x="241.467" y="473.711"/>
      <point x="316.156" y="473.711" type="curve" smooth="yes"/>
      <point x="372.267" y="473.711"/>
      <point x="409.844" y="464.244"/>
      <point x="438.489" y="445.133" type="curve"/>
      <point x="455.844" y="536.0" type="line"/>
      <point x="438.489" y="547.533"/>
      <point x="387.422" y="564.0"/>
      <point x="317.422" y="564.0" type="curve" smooth="yes"/>
      <point x="136.644" y="564.0"/>
      <point x="46.822" y="436.822"/>
    </contour>
  </outline>
</glyph>
<glyph name="d" format="2">
  <advance width="604.0"/>
  <unicode hex="0064"/>
  <anchor x="302.0" y="0.0" name="bottom"/>
  <anchor x="296.0" y="-83.0" name="btm"/>
  <anchor x="302.0" y="279.0" name="center"/>
  <anchor x="176.0" y="830.0" name="top"/>
  <anchor x="584.0" y="557.0" name="topright"/>
  <outline>
    <contour>
      <point x="421.0" y="0.0" type="line"/>
      <point x="523.0" y="0.0" type="line"/>
      <point x="523.0" y="813.0" type="line"/>
      <point x="416.0" y="813.0" type="line"/>
      <point x="416.0" y="581.0" type="line"/>
      <point x="420.0" y="478.0" type="line"/>
      <point x="416.0" y="475.0" type="line"/>
      <point x="416.0" y="77.0" type="line"/>
      <point x="421.0" y="75.0" type="line"/>
    </contour>
    <contour>
      <point x="267.0" y="-8.0" type="curve" smooth="yes"/>
      <point x="368.0" y="-8.0"/>
      <point x="411.0" y="44.0"/>
      <point x="435.0" y="69.0" type="curve"/>
      <point x="416.0" y="122.0" type="line"/>
      <point x="393.0" y="104.0"/>
      <point x="350.0" y="77.0"/>
      <point x="296.0" y="77.0" type="curve" smooth="yes"/>
      <point x="206.0" y="77.0"/>
      <point x="155.0" y="139.0"/>
      <point x="157.0" y="272.0" type="curve" smooth="yes"/>
      <point x="158.0" y="412.0"/>
      <point x="227.0" y="486.0"/>
      <point x="315.0" y="486.0" type="curve" smooth="yes"/>
      <point x="363.0" y="486.0"/>
      <point x="396.0" y="479.0"/>
      <point x="416.0" y="461.0" type="curve"/>
      <point x="458.0" y="531.0" type="line"/>
      <point x="445.0" y="542.0"/>
      <point x="395.0" y="564.0"/>
      <point x="326.0" y="564.0" type="curve" smooth="yes"/>
      <point x="158.0" y="564.0"/>
      <point x="47.0" y="438.0"/>
      <point x="47.0" y="258.0" type="curve" smooth="yes"/>
      <point x="47.0" y="77.0"/>
      <point x="150.0" y="-8.0"/>
    </contour>
  </outline>
</glyph>
<glyph name="e" format="2">
  <advance width="553.86667"/>
  <unicode hex="0065"/>
  <anchor x="277.022" y="0.0" name="bottom"/>
  <anchor x="297.667" y="-83.0" name="btm"/>
  <anchor x="402.0" y="25.0" name="ogonek"/>
  <anchor x="295.2" y="830.178" name="top"/>
  <outline>
    <contour>
      <point x="296.667" y="-8.0" type="curve" smooth="yes"/>
      <point x="367.222" y="-8.0"/>
      <point x="451.044" y="13.067"/>
      <point x="488.044" y="43.067" type="curve"/>
      <point x="466.333" y="109.333" type="line"/>
      <point x="438.8" y="92.511"/>
      <point x="364.8" y="78.689"/>
      <point x="327.444" y="78.689" type="curve" smooth="yes"/>
      <point x="236.8" y="78.689"/>
      <point x="166.644" y="120.4"/>
      <point x="161.178" y="246.067" type="curve" smooth="yes"/>
      <point x="154.889" y="424.8"/>
      <point x="215.156" y="482.311"/>
      <point x="293.2" y="482.311" type="curve" smooth="yes"/>
      <point x="385.867" y="482.311"/>
      <point x="403.578" y="406.356"/>
      <point x="398.578" y="326.0" type="curve"/>
      <point x="124.022" y="326.0" type="line"/>
      <point x="114.022" y="252.689" type="line"/>
      <point x="501.689" y="252.689" type="line"/>
      <point x="506.511" y="277.689"/>
      <point x="506.867" y="311.4"/>
      <point x="506.867" y="352.578" type="curve" smooth="yes"/>
      <point x="503.222" y="496.489"/>
      <point x="410.733" y="565.822"/>
      <point x="299.022" y="564.0" type="curve" smooth="yes"/>
      <point x="134.6" y="562.178"/>
      <point x="46.822" y="441.178"/>
      <point x="46.822" y="279.178" type="curve" smooth="yes"/>
      <point x="46.822" y="99.178"/>
      <point x="136.533" y="-8.0"/>
    </contour>
  </outline>
</glyph>
<glyph name="f" format="2">
  <advance width="396.0"/>
  <unicode hex="0066"/>
  <anchor x="198.0" y="0.0" name="bottom"/>
  <anchor x="187.0" y="-83.0" name="btm"/>
  <anchor x="184.0" y="1004.0" name="top"/>
  <outline>
    <contour>
      <point x="121.0" y="0.0" type="line"/>
      <point x="229.0" y="0.0" type="line"/>
      <point x="229.0" y="476.0" type="line"/>
      <point x="366.0" y="476.0" type="line"/>
      <point x="366.0" y="557.0" type="line"/>
      <point x="229.0" y="557.0" type="line"/>
      <point x="229.0" y="629.0" type="line" smooth="yes"/>
      <point x="229.0" y="700.0"/>
      <point x="262.0" y="735.0"/>
      <point x="308.0" y="735.0" type="curve" smooth="yes"/>
      <point x="352.0" y="735.0"/>
      <point x="372.0" y="732.0"/>
      <point x="392.0" y="726.0" type="curve"/>
      <point x="392.0" y="811.0" type="line"/>
      <point x="382.0" y="814.0"/>
      <point x="353.0" y="821.0"/>
      <point x="323.0" y="821.0" type="curve" smooth="yes"/>
      <point x="233.0" y="821.0"/>
      <point x="121.0" y="771.0"/>
      <point x="121.0" y="605.0" type="curve" smooth="yes"/>
      <point x="121.0" y="557.0" type="line"/>
      <point x="37.0" y="535.0" type="line"/>
      <point x="37.0" y="476.0" type="line"/>
      <point x="121.0" y="476.0" type="line"/>
    </contour>
  </outline>
</glyph>
<glyph name="g" format="2">
  <advance width="601.64444"/>
  <unicode hex="0067"/>
  <anchor x="300.911" y="-273.0" name="bottom"/>
  <anchor x="282.333" y="830.178" name="top"/>
  <outline>
    <contour>
      <point x="290.089" y="-252.0" type="curve" smooth="yes"/>
      <point x="438.622" y="-253.178"/>
      <point x="564.356" y="-182.822"/>
      <point x="564.356" y="-67.267" type="curve" smooth="yes"/>
      <point x="564.356" y="10.267"/>
      <point x="529.711" y="90.222"/>
      <point x="357.578" y="90.222" type="curve" smooth="yes"/>
      <point x="258.0" y="90.222" type="line" smooth="yes"/>
      <point x="212.0" y="90.222"/>
      <point x="194.467" y="101.156"/>
      <point x="194.467" y="141.556" type="curve" smooth="yes"/>
      <point x="194.467" y="167.667"/>
      <point x="212.4" y="193.311"/>
      <point x="236.578" y="202.956" type="curve"/>
      <point x="165.2" y="221.067" type="line"/>
      <point x="115.044" y="192.244"/>
      <point x="88.289" y="147.533"/>
      <point x="87.467" y="109.356" type="curve" smooth="yes"/>
      <point x="87.289" y="74.822"/>
      <point x="98.533" y="35.289"/>
      <point x="149.822" y="17.533" type="curve" smooth="yes"/>
      <point x="157.711" y="15.356"/>
      <point x="164.533" y="9.0"/>
      <point x="173.244" y="6.822" type="curve" smooth="yes"/>
      <point x="196.178" y="1.178"/>
      <point x="225.111" y="0.0"/>
      <point x="262.622" y="0.0" type="curve" smooth="yes"/>
      <point x="317.778" y="0.0" type="line" smooth="yes"/>
      <point x="429.778" y="0.0"/>
      <point x="453.644" y="-32.933"/>
      <point x="453.644" y="-91.511" type="curve" smooth="yes"/>
      <point x="453.644" y="-148.044"/>
      <point x="379.733" y="-175.978"/>
      <point x="294.444" y="-175.978" type="curve" smooth="yes"/>
      <point x="200.511" y="-175.978"/>
      <point x="164.756" y="-137.956"/>
      <point x="164.756" y="-72.444" type="curve" smooth="yes"/>
      <point x="164.756" y="-14.333"/>
      <point x="199.511" y="2.711"/>
      <point x="220.622" y="21.822" type="curve"/>
      <point x="146.6" y="32.533" type="line"/>
      <point x="104.511" y="16.178"/>
      <point x="52.222" y="-25.533"/>
      <point x="52.222" y="-88.178" type="curve" smooth="yes"/>
      <point x="52.222" y="-198.933"/>
      <point x="143.467" y="-251.644"/>
    </contour>
    <contour>
      <point x="281.733" y="190.133" type="curve" smooth="yes"/>
      <point x="413.889" y="190.133"/>
      <point x="509.822" y="256.422"/>
      <point x="509.822" y="378.889" type="curve" smooth="yes"/>
      <point x="509.822" y="508.711"/>
      <point x="407.711" y="566.822"/>
      <point x="283.733" y="564.0" type="curve" smooth="yes"/>
      <point x="155.822" y="562.178"/>
      <point x="60.822" y="503.067"/>
      <point x="60.822" y="373.067" type="curve" smooth="yes"/>
      <point x="60.822" y="264.489"/>
      <point x="155.889" y="190.133"/>
    </contour>
    <contour>
      <point x="284.556" y="265.044" type="curve" smooth="yes"/>
      <point x="206.933" y="265.044"/>
      <point x="174.111" y="316.311"/>
      <point x="174.111" y="377.533" type="curve" smooth="yes"/>
      <point x="174.111" y="466.622"/>
      <point x="227.978" y="488.089"/>
      <point x="289.911" y="488.089" type="curve" smooth="yes"/>
      <point x="361.956" y="488.089"/>
      <point x="397.067" y="448.689"/>
      <point x="397.067" y="375.533" type="curve" smooth="yes"/>
      <point x="397.067" y="290.089"/>
      <point x="352.889" y="265.044"/>
    </contour>
    <contour>
      <point x="448.4" y="469.844" type="line"/>
      <point x="588.711" y="469.844" type="line"/>
      <point x="588.711" y="560.289" type="line"/>
      <point x="532.467" y="560.289" type="line" smooth="yes"/>
      <point x="480.4" y="560.289"/>
      <point x="431.422" y="534.867"/>
      <point x="416.956" y="516.4" type="curve"/>
    </contour>
  </outline>
</glyph>
<glyph name="h" format="2">
  <advance width="629.0"/>
  <unicode hex="0068"/>
  <anchor x="315.0" y="0.0" name="bottom"/>
  <anchor x="328.0" y="-83.0" name="btm"/>
  <anchor x="315.0" y="492.0" name="center"/>
  <anchor x="140.0" y="869.0" name="top"/>
  <outline>
    <contour>
      <point x="86.0" y="0.0" type="line"/>
      <point x="193.0" y="0.0" type="line"/>
      <point x="193.0" y="424.0" type="line"/>
      <point x="238.0" y="457.0"/>
      <point x="294.0" y="474.0"/>
      <point x="331.0" y="475.0" type="curve" smooth="yes"/>
      <point x="416.0" y="479.0"/>
      <point x="439.0" y="438.0"/>
      <point x="439.0" y="347.0" type="curve" smooth="yes"/>
      <point x="439.0" y="0.0" type="line"/>
      <point x="546.0" y="0.0" type="line"/>
      <point x="546.0" y="339.0" type="line" smooth="yes"/>
      <point x="546.0" y="502.0"/>
      <point x="496.0" y="568.0"/>
      <point x="375.0" y="565.0" type="curve" smooth="yes"/>
      <point x="302.0" y="563.0"/>
      <point x="223.0" y="529.0"/>
      <point x="182.0" y="497.0" type="curve"/>
      <point x="188.0" y="484.0" type="line"/>
      <point x="193.0" y="581.0" type="line"/>
      <point x="193.0" y="813.0" type="line"/>
      <point x="86.0" y="813.0" type="line"/>
    </contour>
  </outline>
</glyph>
<glyph name="k" format="2">
  <advance width="574.4"/>
  <unicode hex="006B"/>
  <anchor x="287.2" y="0.0" name="bottom"/>
  <anchor x="300.733" y="-83.0" name="btm"/>
  <anchor x="334.489" y="830.0" name="top"/>
  <outline>
    <contour>
      <point x="545.6" y="557.0" type="line"/>
      <point x="411.244" y="557.0" type="line"/>
      <point x="165.533" y="284.333" type="line"/>
      <point x="193.467" y="265.333" type="line"/>
      <point x="197.0" y="386.556" type="line"/>
      <point x="197.0" y="811.0" type="line"/>
      <point x="82.0" y="811.0" type="line"/>
      <point x="82.0" y="331.0" type="line"/>
      <point x="82.0" y="0.0" type="line"/>
      <point x="197.0" y="0.0" type="line"/>
      <point x="197.0" y="108.111" type="line"/>
      <point x="194.822" y="204.333" type="line"/>
      <point x="184.889" y="177.267" type="line"/>
    </contour>
    <contour>
      <point x="251.867" y="274.2" type="line"/>
      <point x="439.289" y="0.0" type="line"/>
      <point x="570.356" y="0.0" type="line"/>
      <point x="329.844" y="348.778" type="line"/>
    </contour>
  </outline>
</glyph>
<glyph name="l" format="2">
  <advance width="299.0"/>
  <unicode hex="006C"/>
  <anchor x="150.0" y="0.0" name="bottom"/>
  <anchor x="141.0" y="-83.0" name="btm"/>
  <anchor x="150.0" y="492.0" name="center"/>
  <anchor x="151.0" y="878.0" name="top"/>
  <anchor x="279.0" y="983.0" name="topright"/>
  <outline>
    <contour>
      <point x="96.0" y="0.0" type="line"/>
      <point x="204.0" y="0.0" type="line"/>
      <point x="204.0" y="813.0" type="line"/>
      <point x="96.0" y="813.0" type="line"/>
    </contour>
  </outline>
</glyph>
<glyph name="m" format="2">
  <advance width="963.0"/>
  <unicode hex="006D"/>
  <anchor x="482.0" y="0.0" name="bottom"/>
  <anchor x="489.0" y="-83.0" name="btm"/>
  <anchor x="486.0" y="830.0" name="top"/>
  <outline>
    <contour>
      <point x="86.0" y="0.0" type="line"/>
      <point x="193.0" y="0.0" type="line"/>
      <point x="193.0" y="424.0" type="line"/>
      <point x="238.0" y="457.0"/>
      <point x="294.0" y="474.0"/>
      <point x="330.0" y="475.0" type="curve" smooth="yes"/>
      <point x="415.0" y="479.0"/>
      <point x="432.0" y="438.0"/>
      <point x="432.0" y="347.0" type="curve" smooth="yes"/>
      <point x="432.0" y="0.0" type="line"/>
      <point x="539.0" y="0.0" type="line"/>
      <point x="539.0" y="349.0" type="line" smooth="yes"/>
      <point x="539.0" y="512.0"/>
      <point x="494.0" y="568.0"/>
      <point x="374.0" y="565.0" type="curve" smooth="yes"/>
      <point x="301.0" y="563.0"/>
      <point x="224.0" y="525.0"/>
      <point x="182.0" y="497.0" type="curve"/>
      <point x="182.0" y="556.0" type="line"/>
      <point x="86.0" y="556.0" type="line"/>
    </contour>
    <contour>
      <point x="533.0" y="424.0" type="line"/>
      <point x="576.0" y="455.0"/>
      <point x="632.0" y="474.0"/>
      <point x="671.0" y="475.0" type="curve" smooth="yes"/>
      <point x="757.0" y="479.0"/>
      <point x="772.0" y="438.0"/>
      <point x="772.0" y="347.0" type="curve" smooth="yes"/>
      <point x="772.0" y="0.0" type="line"/>
      <point x="880.0" y="0.0" type="line"/>
      <point x="880.0" y="349.0" type="line" smooth="yes"/>
      <point x="880.0" y="512.0"/>
      <point x="832.0" y="567.0"/>
      <point x="712.0" y="565.0" type="curve" smooth="yes"/>
      <point x="635.0" y="563.0"/>
      <point x="551.0" y="525.0"/>
      <point x="510.0" y="491.0" type="curve"/>
    </contour>
  </outline>
</glyph>
<glyph name="n" format="2">
  <advance width="625.0"/>
  <unicode hex="006E"/>
  <anchor x="313.0" y="0.0" name="bottom"/>
  <anchor x="319.0" y="-83.0" name="btm"/>
  <anchor x="317.0" y="830.0" name="top"/>
  <outline>
    <contour>
      <point x="86.0" y="0.0" type="line"/>
      <point x="193.0" y="0.0" type="line"/>
      <point x="193.0" y="424.0" type="line"/>
      <point x="238.0" y="457.0"/>
      <point x="293.0" y="475.0"/>
      <point x="330.0" y="476.0" type="curve" smooth="yes"/>
      <point x="417.0" y="481.0"/>
      <point x="434.0" y="440.0"/>
      <point x="434.0" y="347.0" type="curve" smooth="yes"/>
      <point x="434.0" y="0.0" type="line"/>
      <point x="542.0" y="0.0" type="line"/>
      <point x="542.0" y="347.0" type="line" smooth="yes"/>
      <point x="542.0" y="510.0"/>
      <point x="496.0" y="568.0"/>
      <point x="376.0" y="565.0" type="curve" smooth="yes"/>
      <point x="303.0" y="563.0"/>
      <point x="224.0" y="525.0"/>
      <point x="182.0" y="497.0" type="curve"/>
      <point x="182.0" y="556.0" type="line"/>
      <point x="86.0" y="556.0" type="line"/>
    </contour>
  </outline>
</glyph>
<glyph name="o" format="2">
  <advance width="592.0"/>
  <unicode hex="006F"/>
  <anchor x="296.0" y="0.0" name="bottom"/>
  <anchor x="293.0" y="-83.0" name="btm"/>
  <anchor x="296.0" y="279.0" name="center"/>
  <anchor x="320.0" y="25.0" name="ogonek"/>
  <anchor x="301.0" y="830.0" name="top"/>
  <anchor x="572.0" y="557.0" name="topright"/>
  <outline>
    <contour>
      <point x="291.0" y="-8.0" type="curve" smooth="yes"/>
      <point x="435.0" y="-8.0"/>
      <point x="542.0" y="88.0"/>
      <point x="545.0" y="267.0" type="curve" smooth="yes"/>
      <point x="547.0" y="425.0"/>
      <point x="479.0" y="564.0"/>
      <point x="301.0" y="564.0" type="curve" smooth="yes"/>
      <point x="158.0" y="564.0"/>
      <point x="49.0" y="469.0"/>
      <point x="47.0" y="290.0" type="curve" smooth="yes"/>
      <point x="45.0" y="131.0"/>
      <point x="113.0" y="-8.0"/>
    </contour>
    <contour>
      <point x="294.0" y="68.0" type="curve" smooth="yes"/>
      <point x="199.0" y="70.0"/>
      <point x="156.0" y="169.0"/>
      <point x="156.0" y="289.0" type="curve" smooth="yes"/>
      <point x="156.0" y="417.0"/>
      <point x="205.0" y="489.0"/>
      <point x="298.0" y="487.0" type="curve" smooth="yes"/>
      <point x="394.0" y="486.0"/>
      <point x="437.0" y="391.0"/>
      <point x="437.0" y="271.0" type="curve" smooth="yes"/>
      <point x="437.0" y="143.0"/>
      <point x="388.0" y="66.0"/>
    </contour>
  </outline>
</glyph>
<glyph name="p" format="2">
  <advance width="604.0"/>
  <unicode hex="0070"/>
  <anchor x="302.0" y="0.0" name="bottom"/>
  <anchor x="309.0" y="-83.0" name="btm"/>
  <anchor x="342.0" y="830.0" name="top"/>
  <outline>
    <contour>
      <point x="81.0" y="-247.0" type="line"/>
      <point x="188.0" y="-247.0" type="line"/>
      <point x="188.0" y="-68.0" type="line"/>
      <point x="187.0" y="24.0" type="line"/>
      <point x="188.0" y="35.0" type="line"/>
      <point x="188.0" y="477.0" type="line"/>
      <point x="178.0" y="489.0" type="line"/>
      <point x="178.0" y="557.0" type="line"/>
      <point x="81.0" y="557.0" type="line"/>
    </contour>
    <contour>
      <point x="278.0" y="-8.0" type="curve" smooth="yes"/>
      <point x="447.0" y="-8.0"/>
      <point x="557.0" y="119.0"/>
      <point x="557.0" y="299.0" type="curve" smooth="yes"/>
      <point x="557.0" y="479.0"/>
      <point x="455.0" y="564.0"/>
      <point x="337.0" y="564.0" type="curve" smooth="yes"/>
      <point x="236.0" y="564.0"/>
      <point x="193.0" y="512.0"/>
      <point x="170.0" y="488.0" type="curve"/>
      <point x="188.0" y="435.0" type="line"/>
      <point x="212.0" y="453.0"/>
      <point x="254.0" y="480.0"/>
      <point x="308.0" y="480.0" type="curve" smooth="yes"/>
      <point x="398.0" y="480.0"/>
      <point x="449.0" y="418.0"/>
      <point x="448.0" y="284.0" type="curve" smooth="yes"/>
      <point x="446.0" y="145.0"/>
      <point x="378.0" y="70.0"/>
      <point x="289.0" y="70.0" type="curve" smooth="yes"/>
      <point x="241.0" y="70.0"/>
      <point x="209.0" y="77.0"/>
      <point x="188.0" y="95.0" type="curve"/>
      <point x="147.0" y="26.0" type="line"/>
      <point x="160.0" y="15.0"/>
      <point x="209.0" y="-8.0"/>
    </contour>
  </outline>
</glyph>
<glyph name="q" format="2">
  <advance width="612.17778"/>
  <unicode hex="0071"/>
  <anchor x="306.089" y="0.0" name="bottom"/>
  <anchor x="291.644" y="-83.0" name="btm"/>
  <anchor x="277.778" y="830.178" name="top"/>
  <outline>
    <contour>
      <point x="416.822" y="-68.0" type="line"/>
      <point x="416.822" y="-247.0" type="line"/>
      <point x="531.822" y="-247.0" type="line"/>
      <point x="531.822" y="557.0" type="line"/>
      <point x="431.067" y="537.822" type="line"/>
      <point x="427.822" y="489.0" type="line"/>
      <point x="416.822" y="477.0" type="line"/>
      <point x="416.822" y="98.0" type="line"/>
      <point x="419.0" y="53.0" type="line"/>
    </contour>
    <contour>
      <point x="266.467" y="-8.0" type="curve" smooth="yes"/>
      <point x="367.289" y="-8.0"/>
      <point x="412.0" y="43.467"/>
      <point x="434.822" y="68.289" type="curve"/>
      <point x="416.822" y="125.378" type="line"/>
      <point x="393.822" y="107.733"/>
      <point x="350.533" y="83.044"/>
      <point x="298.667" y="83.044" type="curve" smooth="yes"/>
      <point x="212.933" y="83.044"/>
      <point x="163.178" y="140.778"/>
      <point x="165.0" y="272.178" type="curve" smooth="yes"/>
      <point x="166.0" y="409.156"/>
      <point x="232.511" y="480.667"/>
      <point x="317.667" y="480.667" type="curve" smooth="yes"/>
      <point x="363.178" y="480.667"/>
      <point x="396.0" y="474.556"/>
      <point x="416.822" y="457.267" type="curve"/>
      <point x="467.6" y="531.0" type="line"/>
      <point x="455.6" y="542.0"/>
      <point x="394.644" y="564.0"/>
      <point x="326.0" y="564.0" type="curve" smooth="yes"/>
      <point x="157.644" y="564.0"/>
      <point x="46.111" y="439.244"/>
      <point x="46.111" y="258.356" type="curve" smooth="yes"/>
      <point x="46.111" y="77.533"/>
      <point x="149.289" y="-8.0"/>
    </contour>
  </outline>
</glyph>
<glyph name="r" format="2">
  <advance width="406.57778"/>
  <unicode hex="0072"/>
  <anchor x="203.378" y="0.0" name="bottom"/>
  <anchor x="136.2" y="-83.0" name="btm"/>
  <anchor x="242.556" y="830.178" name="top"/>
  <outline>
    <contour>
      <point x="189.333" y="409.4" type="line"/>
      <point x="212.156" y="432.4"/>
      <point x="256.444" y="463.0"/>
      <point x="317.756" y="463.0" type="curve" smooth="yes"/>
      <point x="362.689" y="463.0"/>
      <point x="380.333" y="455.0"/>
      <point x="389.511" y="449.822" type="curve"/>
      <point x="389.511" y="558.178" type="line"/>
      <point x="380.511" y="563.178"/>
      <point x="362.222" y="565.178"/>
      <point x="337.467" y="565.178" type="curve" smooth="yes"/>
      <point x="269.044" y="565.178"/>
      <point x="196.756" y="515.822"/>
      <point x="182.044" y="484.978" type="curve"/>
    </contour>
    <contour>
      <point x="80.222" y="0.0" type="line"/>
      <point x="195.222" y="0.0" type="line"/>
      <point x="195.222" y="443.0" type="line"/>
      <point x="186.222" y="484.978" type="line"/>
      <point x="178.222" y="556.178" type="line"/>
      <point x="80.222" y="556.178" type="line"/>
    </contour>
  </outline>
</glyph>
<glyph name="s" format="2">
  <advance width="477.0"/>
  <unicode hex="0073"/>
  <anchor x="239.0" y="0.0" name="bottom"/>
  <anchor x="241.0" y="-83.0" name="btm"/>
  <anchor x="244.0" y="830.0" name="top"/>
  <outline>
    <contour>
      <point x="55.0" y="32.0" type="line"/>
      <point x="81.0" y="13.0"/>
      <point x="156.0" y="-8.0"/>
      <point x="232.0" y="-8.0" type="curve" smooth="yes"/>
      <point x="353.0" y="-8.0"/>
      <point x="428.0" y="47.0"/>
      <point x="428.0" y="148.0" type="curve" smooth="yes"/>
      <point x="428.0" y="243.0"/>
      <point x="340.0" y="292.0"/>
      <point x="265.0" y="322.0" type="curve" smooth="yes"/>
      <point x="197.0" y="350.0"/>
      <point x="156.0" y="374.0"/>
      <point x="157.0" y="426.0" type="curve" smooth="yes"/>
      <point x="158.0" y="462.0"/>
      <point x="194.0" y="485.0"/>
      <point x="263.0" y="485.0" type="curve" smooth="yes"/>
      <point x="314.0" y="485.0"/>
      <point x="366.0" y="469.0"/>
      <point x="383.0" y="455.0" type="curve"/>
      <point x="400.0" y="536.0" type="line"/>
      <point x="384.0" y="545.0"/>
      <point x="327.0" y="564.0"/>
      <point x="259.0" y="564.0" type="curve" smooth="yes"/>
      <point x="149.0" y="564.0"/>
      <point x="60.0" y="517.0"/>
      <point x="58.0" y="420.0" type="curve" smooth="yes"/>
      <point x="57.0" y="327.0"/>
      <point x="125.0" y="276.0"/>
      <point x="213.0" y="239.0" type="curve" smooth="yes"/>
      <point x="277.0" y="212.0"/>
      <point x="328.0" y="186.0"/>
      <point x="328.0" y="140.0" type="curve" smooth="yes"/>
      <point x="328.0" y="97.0"/>
      <point x="292.0" y="71.0"/>
      <point x="227.0" y="72.0" type="curve" smooth="yes"/>
      <point x="156.0" y="73.0"/>
      <point x="86.0" y="101.0"/>
      <point x="71.0" y="112.0" type="curve"/>
    </contour>
  </outline>
</glyph>
<glyph name="t" format="2">
  <advance width="415.0"/>
  <unicode hex="0074"/>
  <anchor x="208.0" y="0.0" name="bottom"/>
  <anchor x="240.0" y="-83.0" name="btm"/>
  <anchor x="208.0" y="279.0" name="center"/>
  <anchor x="184.0" y="913.0" name="top"/>
  <anchor x="395.0" y="557.0" name="topright"/>
  <outline>
    <contour>
      <point x="240.0" y="-8.0" type="curve" smooth="yes"/>
      <point x="296.0" y="-8.0"/>
      <point x="363.0" y="15.0"/>
      <point x="394.0" y="38.0" type="curve"/>
      <point x="375.0" y="99.0" type="line"/>
      <point x="356.0" y="89.0"/>
      <point x="309.0" y="78.0"/>
      <point x="280.0" y="78.0" type="curve" smooth="yes"/>
      <point x="227.0" y="78.0"/>
      <point x="218.0" y="87.0"/>
      <point x="218.0" y="194.0" type="curve" smooth="yes"/>
      <point x="218.0" y="476.0" type="line"/>
      <point x="375.0" y="476.0" type="line"/>
      <point x="375.0" y="557.0" type="line"/>
      <point x="218.0" y="557.0" type="line"/>
      <point x="218.0" y="684.0" type="line"/>
      <point x="154.0" y="684.0" type="line"/>
      <point x="140.0" y="639.0"/>
      <point x="130.0" y="604.0"/>
      <point x="122.0" y="582.0" type="curve" smooth="yes"/>
      <point x="110.0" y="550.0"/>
      <point x="88.0" y="548.0"/>
      <point x="39.0" y="534.0" type="curve"/>
      <point x="39.0" y="476.0" type="line"/>
      <point x="111.0" y="476.0" type="line"/>
      <point x="111.0" y="133.0" type="line" smooth="yes"/>
      <point x="111.0" y="18.0"/>
      <point x="168.0" y="-8.0"/>
    </contour>
  </outline>
</glyph>
<glyph name="u" format="2">
  <advance width="610.0"/>
  <unicode hex="0075"/>
  <anchor x="305.0" y="0.0" name="bottom"/>
  <anchor x="293.0" y="-83.0" name="btm"/>
  <anchor x="549.0" y="10.0" name="ogonek"/>
  <anchor x="310.0" y="830.0" name="top"/>
  <anchor x="590.0" y="557.0" name="topright"/>
  <outline>
    <contour>
      <point x="249.0" y="-8.0" type="curve" smooth="yes"/>
      <point x="310.0" y="-8.0"/>
      <point x="384.0" y="21.0"/>
      <point x="430.0" y="50.0" type="curve"/>
      <point x="429.0" y="74.0" type="line"/>
      <point x="429.0" y="35.0" type="line" smooth="yes"/>
      <point x="429.0" y="-4.0"/>
      <point x="449.0" y="-8.0"/>
      <point x="482.0" y="-8.0" type="curve" smooth="yes"/>
      <point x="524.0" y="-8.0" type="line"/>
      <point x="524.0" y="557.0" type="line"/>
      <point x="417.0" y="557.0" type="line"/>
      <point x="417.0" y="120.0" type="line"/>
      <point x="392.0" y="104.0"/>
      <point x="334.0" y="81.0"/>
      <point x="292.0" y="81.0" type="curve" smooth="yes"/>
      <point x="219.0" y="81.0"/>
      <point x="190.0" y="94.0"/>
      <point x="190.0" y="232.0" type="curve" smooth="yes"/>
      <point x="190.0" y="557.0" type="line"/>
      <point x="83.0" y="557.0" type="line"/>
      <point x="83.0" y="231.0" type="line" smooth="yes"/>
      <point x="83.0" y="88.0"/>
      <point x="107.0" y="-8.0"/>
    </contour>
  </outline>
</glyph>
<glyph name="v" format="2">
  <advance width="543.0"/>
  <unicode hex="0076"/>
  <anchor x="272.0" y="0.0" name="bottom"/>
  <anchor x="272.0" y="557.0" name="top"/>
  <outline>
    <contour>
      <point x="230.0" y="-8.0" type="line"/>
      <point x="320.0" y="-8.0" type="line"/>
      <point x="534.0" y="557.0" type="line"/>
      <point x="420.0" y="557.0" type="line"/>
      <point x="314.0" y="240.0" type="line"/>
      <point x="262.0" y="55.0" type="line"/>
      <point x="292.0" y="55.0" type="line"/>
      <point x="235.0" y="240.0" type="line"/>
      <point x="125.0" y="557.0" type="line"/>
      <point x="9.0" y="557.0" type="line"/>
    </contour>
  </outline>
</glyph>
<glyph name="w" format="2">
  <advance width="797.0"/>
  <unicode hex="0077"/>
  <anchor x="399.0" y="0.0" name="bottom"/>
  <anchor x="401.0" y="-80.0" name="btm"/>
  <anchor x="401.0" y="835.0" name="top"/>
  <outline>
    <contour>
      <point x="180.0" y="-8.0" type="line"/>
      <point x="282.0" y="-8.0" type="line"/>
      <point x="380.0" y="356.0" type="line"/>
      <point x="412.0" y="500.0" type="line"/>
      <point x="389.0" y="500.0" type="line"/>
      <point x="418.0" y="356.0" type="line"/>
      <point x="518.0" y="-8.0" type="line"/>
      <point x="617.0" y="-8.0" type="line"/>
      <point x="787.0" y="557.0" type="line"/>
      <point x="682.0" y="557.0" type="line"/>
      <point x="595.0" y="219.0" type="line"/>
      <point x="556.0" y="54.0" type="line"/>
      <point x="584.0" y="54.0" type="line"/>
      <point x="546.0" y="223.0" type="line"/>
      <point x="454.0" y="557.0" type="line"/>
      <point x="347.0" y="557.0" type="line"/>
      <point x="254.0" y="222.0" type="line"/>
      <point x="218.0" y="52.0" type="line"/>
      <point x="248.0" y="52.0" type="line"/>
      <point x="208.0" y="223.0" type="line"/>
      <point x="118.0" y="557.0" type="line"/>
      <point x="10.0" y="557.0" type="line"/>
    </contour>
  </outline>
</glyph>
<glyph name="x" format="2">
  <advance width="554.0"/>
  <unicode hex="0078"/>
  <anchor x="277.0" y="0.0" name="bottom"/>
  <anchor x="284.0" y="-83.0" name="btm"/>
  <anchor x="284.0" y="830.0" name="top"/>
  <outline>
    <contour>
      <point x="24.0" y="0.0" type="line"/>
      <point x="147.0" y="0.0" type="line"/>
      <point x="260.0" y="184.0" type="line"/>
      <point x="293.0" y="251.0" type="line"/>
      <point x="250.0" y="251.0" type="line"/>
      <point x="291.0" y="185.0" type="line"/>
      <point x="413.0" y="0.0" type="line"/>
      <point x="537.0" y="0.0" type="line"/>
      <point x="322.0" y="303.0" type="line"/>
      <point x="322.0" y="266.0" type="line"/>
      <point x="533.0" y="557.0" type="line"/>
      <point x="412.0" y="557.0" type="line"/>
      <point x="290.0" y="373.0" type="line"/>
      <point x="262.0" y="316.0" type="line"/>
      <point x="300.0" y="316.0" type="line"/>
      <point x="267.0" y="372.0" type="line"/>
      <point x="145.0" y="557.0" type="line"/>
      <point x="23.0" y="557.0" type="line"/>
      <point x="233.0" y="265.0" type="line"/>
      <point x="232.0" y="299.0" type="line"/>
    </contour>
  </outline>
</glyph>
<glyph name="y" format="2">
  <advance width="545.0"/>
  <unicode hex="0079"/>
  <anchor x="273.0" y="0.0" name="bottom"/>
  <anchor x="468.0" y="-103.0" name="btm"/>
  <anchor x="288.0" y="830.0" name="top"/>
  <outline>
    <contour>
      <point x="64.0" y="-241.0" type="line"/>
      <point x="70.0" y="-245.0"/>
      <point x="104.0" y="-248.0"/>
      <point x="119.0" y="-248.0" type="curve" smooth="yes"/>
      <point x="134.0" y="-248.0"/>
      <point x="157.0" y="-244.0"/>
      <point x="171.0" y="-240.0" type="curve" smooth="yes"/>
      <point x="242.0" y="-220.0"/>
      <point x="302.0" y="-152.0"/>
      <point x="346.0" y="-18.0" type="curve" smooth="yes"/>
      <point x="534.0" y="557.0" type="line"/>
      <point x="418.0" y="557.0" type="line"/>
      <point x="313.0" y="182.0" type="line"/>
      <point x="272.0" y="34.0" type="line"/>
      <point x="306.0" y="34.0" type="line"/>
      <point x="259.0" y="182.0" type="line"/>
      <point x="136.0" y="557.0" type="line"/>
      <point x="21.0" y="557.0" type="line"/>
      <point x="223.0" y="0.0" type="line"/>
      <point x="265.0" y="0.0" type="line"/>
      <point x="258.0" y="14.0" type="line"/>
      <point x="229.0" y="-131.0"/>
      <point x="152.0" y="-159.0"/>
      <point x="111.0" y="-159.0" type="curve" smooth="yes"/>
      <point x="100.0" y="-159.0"/>
      <point x="75.0" y="-157.0"/>
      <point x="64.0" y="-153.0" type="curve"/>
    </contour>
  </outline>
</glyph>
<glyph name="z" format="2">
  <advance width="518.0"/>
  <unicode hex="007A"/>
  <anchor x="259.0" y="0.0" name="bottom"/>
  <anchor x="259.0" y="-83.0" name="btm"/>
  <anchor x="259.0" y="279.0" name="center"/>
  <anchor x="261.0" y="830.0" name="top"/>
  <outline>
    <contour>
      <point x="61.0" y="0.0" type="line"/>
      <point x="473.0" y="0.0" type="line"/>
      <point x="473.0" y="78.0" type="line"/>
      <point x="186.0" y="78.0" type="line"/>
      <point x="214.0" y="119.0" type="line"/>
      <point x="483.0" y="510.0" type="line"/>
      <point x="466.0" y="557.0" type="line"/>
      <point x="69.0" y="557.0" type="line"/>
      <point x="69.0" y="475.0" type="line"/>
      <point x="338.0" y="475.0" type="line"/>
      <point x="310.0" y="434.0" type="line"/>
      <point x="40.0" y="40.0" type="line"/>
    </contour>
  </outline>
</glyph>
<glyph name="braceleft" format="2">
  <advance width="475.0"/>
  <unicode hex="007B"/>
  <outline>
    <contour>
      <point x="160.0" y="29.0" type="line"/>
      <point x="160.0" y="-67.0"/>
      <point x="181.0" y="-96.0"/>
      <point x="256.0" y="-96.0" type="curve" smooth="yes"/>
      <point x="310.0" y="-96.0"/>
      <point x="350.0" y="-90.0"/>
      <point x="392.0" y="-79.0" type="curve"/>
      <point x="392.0" y="-24.0" type="line"/>
      <point x="262.0" y="-24.0" type="line"/>
      <point x="262.0" y="279.0" type="line" smooth="yes"/>
      <point x="262.0" y="295.0"/>
      <point x="254.0" y="309.0"/>
      <point x="242.0" y="322.0" type="curve" smooth="yes"/>
      <point x="217.0" y="348.0"/>
      <point x="171.0" y="370.0"/>
      <point x="129.0" y="385.0" type="curve"/>
      <point x="129.0" y="373.0" type="line"/>
      <point x="170.0" y="390.0"/>
      <point x="216.0" y="407.0"/>
      <point x="240.0" y="431.0" type="curve" smooth="yes"/>
      <point x="254.0" y="443.0"/>
      <point x="262.0" y="458.0"/>
      <point x="262.0" y="477.0" type="curve" smooth="yes"/>
      <point x="262.0" y="779.0" type="line"/>
      <point x="392.0" y="779.0" type="line"/>
      <point x="392.0" y="839.0" type="line"/>
      <point x="350.0" y="844.0"/>
      <point x="310.0" y="851.0"/>
      <point x="256.0" y="851.0" type="curve" smooth="yes"/>
      <point x="181.0" y="851.0"/>
      <point x="160.0" y="822.0"/>
      <point x="160.0" y="726.0" type="curve" smooth="yes"/>
      <point x="160.0" y="476.0" type="line" smooth="yes"/>
      <point x="160.0" y="447.0"/>
      <point x="86.0" y="419.0"/>
      <point x="37.0" y="414.0" type="curve"/>
      <point x="37.0" y="345.0" type="line"/>
      <point x="86.0" y="340.0"/>
      <point x="160.0" y="307.0"/>
      <point x="160.0" y="279.0" type="curve" smooth="yes"/>
    </contour>
  </outline>
</glyph>
<glyph name="asciitilde" format="2">
  <advance width="702.0"/>
  <unicode hex="007E"/>
  <outline>
    <contour>
      <point x="162.0" y="327.0" type="line"/>
      <point x="185.0" y="358.0"/>
      <point x="210.0" y="382.0"/>
      <point x="256.0" y="382.0" type="curve" smooth="yes"/>
      <point x="326.0" y="382.0"/>
      <point x="347.0" y="300.0"/>
      <point x="441.0" y="300.0" type="curve" smooth="yes"/>
      <point x="524.0" y="300.0"/>
      <point x="577.0" y="348.0"/>
      <point x="596.0" y="399.0" type="curve"/>
      <point x="546.0" y="447.0" type="line"/>
      <point x="522.0" y="416.0"/>
      <point x="493.0" y="392.0"/>
      <point x="447.0" y="392.0" type="curve" smooth="yes"/>
      <point x="379.0" y="392.0"/>
      <point x="354.0" y="474.0"/>
      <point x="260.0" y="474.0" type="curve" smooth="yes"/>
      <point x="179.0" y="474.0"/>
      <point x="121.0" y="411.0"/>
      <point x="105.0" y="370.0" type="curve"/>
    </contour>
  </outline>
</glyph>
<glyph name="cent" format="2">
  <advance width="578.0"/>
  <unicode hex="00A2"/>
  <anchor x="274.0" y="0.0" name="bottom"/>
  <anchor x="307.0" y="-83.0" name="btm"/>
  <anchor x="328.0" y="830.0" name="top"/>
  <outline>
    <contour>
      <point x="300.0" y="521.0" type="line"/>
      <point x="374.0" y="521.0" type="line"/>
      <point x="377.0" y="672.0" type="line"/>
      <point x="304.0" y="672.0" type="line"/>
    </contour>
    <contour>
      <point x="284.0" y="-105.0" type="line"/>
      <point x="357.0" y="-105.0" type="line"/>
      <point x="359.0" y="45.0" type="line"/>
      <point x="287.0" y="45.0" type="line"/>
    </contour>
    <component base="c" xOffset="29.0"/>
  </outline>
</glyph>
<glyph name="sterling" format="2">
  <advance width="748.0"/>
  <unicode hex="00A3"/>
  <outline>
    <contour>
      <point x="71.0" y="39.0" type="curve" smooth="yes"/>
      <point x="71.0" y="15.0"/>
      <point x="102.0" y="-1.0"/>
      <point x="124.0" y="-1.0" type="curve" smooth="yes"/>
      <point x="163.0" y="-1.0"/>
      <point x="202.0" y="23.0"/>
      <point x="222.0" y="45.0" type="curve"/>
      <point x="267.0" y="50.0"/>
      <point x="334.0" y="-10.0"/>
      <point x="470.0" y="-10.0" type="curve" smooth="yes"/>
      <point x="606.0" y="-10.0"/>
      <point x="680.0" y="42.0"/>
      <point x="680.0" y="155.0" type="curve" smooth="yes"/>
      <point x="680.0" y="215.0"/>
      <point x="641.0" y="262.0"/>
      <point x="618.0" y="275.0" type="curve"/>
      <point x="542.0" y="236.0" type="line"/>
      <point x="557.0" y="231.0"/>
      <point x="579.0" y="200.0"/>
      <point x="579.0" y="163.0" type="curve" smooth="yes"/>
      <point x="579.0" y="112.0"/>
      <point x="553.0" y="67.0"/>
      <point x="458.0" y="67.0" type="curve" smooth="yes"/>
      <point x="371.0" y="67.0"/>
      <point x="344.0" y="94.0"/>
      <point x="283.0" y="104.0" type="curve"/>
      <point x="319.0" y="143.0"/>
      <point x="322.0" y="221.0"/>
      <point x="321.0" y="352.0" type="curve" smooth="yes"/>
      <point x="320.0" y="496.0" type="line" smooth="yes"/>
      <point x="319.0" y="643.0"/>
      <point x="378.0" y="670.0"/>
      <point x="433.0" y="670.0" type="curve" smooth="yes"/>
      <point x="493.0" y="670.0"/>
      <point x="526.0" y="649.0"/>
      <point x="553.0" y="625.0" type="curve"/>
      <point x="604.0" y="703.0" type="line"/>
      <point x="575.0" y="728.0"/>
      <point x="525.0" y="751.0"/>
      <point x="444.0" y="751.0" type="curve" smooth="yes"/>
      <point x="298.0" y="751.0"/>
      <point x="213.0" y="655.0"/>
      <point x="213.0" y="510.0" type="curve" smooth="yes"/>
      <point x="213.0" y="229.0" type="line" smooth="yes"/>
      <point x="213.0" y="192.0"/>
      <point x="211.0" y="153.0"/>
      <point x="199.0" y="126.0" type="curve"/>
      <point x="112.0" y="122.0"/>
      <point x="71.0" y="84.0"/>
    </contour>
    <contour>
      <point x="125.0" y="369.0" type="line"/>
      <point x="492.0" y="369.0" type="line"/>
      <point x="492.0" y="443.0" type="line"/>
      <point x="125.0" y="443.0" type="line"/>
    </contour>
  </outline>
</glyph>
<glyph name="currency" format="2">
  <advance width="746.0"/>
  <unicode hex="00A4"/>
  <outline>
    <contour>
      <point x="373.0" y="162.0" type="curve" smooth="yes"/>
      <point x="493.0" y="162.0"/>
      <point x="589.0" y="257.0"/>
      <point x="589.0" y="377.0" type="curve" smooth="yes"/>
      <point x="589.0" y="498.0"/>
      <point x="493.0" y="593.0"/>
      <point x="373.0" y="593.0" type="curve" smooth="yes"/>
      <point x="254.0" y="593.0"/>
      <point x="157.0" y="498.0"/>
      <point x="157.0" y="377.0" type="curve"/>
      <point x="157.0" y="257.0"/>
      <point x="254.0" y="162.0"/>
    </contour>
    <contour>
      <point x="374.0" y="242.0" type="curve" smooth="yes"/>
      <point x="302.0" y="242.0"/>
      <point x="244.0" y="303.0"/>
      <point x="244.0" y="377.0" type="curve" smooth="yes"/>
      <point x="244.0" y="452.0"/>
      <point x="302.0" y="513.0"/>
      <point x="374.0" y="513.0" type="curve" smooth="yes"/>
      <point x="445.0" y="513.0"/>
      <point x="502.0" y="452.0"/>
      <point x="502.0" y="377.0" type="curve" smooth="yes"/>
      <point x="502.0" y="303.0"/>
      <point x="445.0" y="242.0"/>
    </contour>
    <contour>
      <point x="208.0" y="492.0" type="line"/>
      <point x="270.0" y="553.0" type="line"/>
      <point x="159.0" y="666.0" type="line"/>
      <point x="97.0" y="603.0" type="line"/>
    </contour>
    <contour>
      <point x="539.0" y="491.0" type="line"/>
      <point x="652.0" y="604.0" type="line"/>
      <point x="590.0" y="667.0" type="line"/>
      <point x="477.0" y="554.0" type="line"/>
    </contour>
    <contour>
      <point x="159.0" y="88.0" type="line"/>
      <point x="271.0" y="200.0" type="line"/>
      <point x="208.0" y="262.0" type="line"/>
      <point x="97.0" y="150.0" type="line"/>
    </contour>
    <contour>
      <point x="588.0" y="90.0" type="line"/>
      <point x="650.0" y="152.0" type="line"/>
      <point x="539.0" y="264.0" type="line"/>
      <point x="477.0" y="202.0" type="line"/>
    </contour>
  </outline>
</glyph>
<glyph name="yen" format="2">
  <advance width="751.91111"/>
  <unicode hex="00A5"/>
  <outline>
    <contour>
      <point x="320.578" y="0.0" type="line"/>
      <point x="433.8" y="0.0" type="line"/>
      <point x="433.8" y="402.311" type="line"/>
      <point x="409.378" y="323.556" type="line"/>
      <point x="677.333" y="743.0" type="line"/>
      <point x="556.156" y="743.0" type="line"/>
      <point x="408.133" y="498.711" type="line"/>
      <point x="365.889" y="403.111" type="line"/>
      <point x="374.422" y="403.111"/>
      <point x="382.778" y="403.111"/>
      <point x="391.311" y="403.111" type="curve"/>
      <point x="346.244" y="496.067" type="line"/>
      <point x="202.933" y="743.0" type="line"/>
      <point x="79.467" y="743.0" type="line"/>
      <point x="347.067" y="316.156" type="line"/>
      <point x="320.578" y="402.311" type="line"/>
    </contour>
    <contour>
      <point x="135.067" y="325.289" type="line"/>
      <point x="608.556" y="325.289" type="line"/>
      <point x="608.556" y="399.556" type="line"/>
      <point x="135.067" y="399.556" type="line"/>
    </contour>
    <contour>
      <point x="135.067" y="140.867" type="line"/>
      <point x="608.556" y="140.867" type="line"/>
      <point x="608.556" y="215.133" type="line"/>
      <point x="135.067" y="215.133" type="line"/>
    </contour>
  </outline>
</glyph>
<glyph name="section" format="2">
  <advance width="666.91111"/>
  <unicode hex="00A7"/>
  <outline>
    <contour>
      <point x="112.489" y="649.289" type="curve" smooth="yes"/>
      <point x="112.489" y="441.156"/>
      <point x="461.356" y="463.756"/>
      <point x="461.356" y="301.889" type="curve" smooth="yes"/>
      <point x="461.356" y="260.889"/>
      <point x="433.4" y="198.0"/>
      <point x="414.4" y="172.0" type="curve"/>
      <point x="465.711" y="142.889" type="line"/>
      <point x="522.556" y="186.244"/>
      <point x="564.689" y="249.244"/>
      <point x="564.689" y="321.133" type="curve" smooth="yes"/>
      <point x="564.689" y="525.844"/>
      <point x="219.022" y="526.378"/>
      <point x="219.022" y="659.156" type="curve" smooth="yes"/>
      <point x="219.022" y="711.556"/>
      <point x="276.289" y="731.022"/>
      <point x="340.156" y="731.844" type="curve" smooth="yes"/>
      <point x="427.089" y="731.844"/>
      <point x="476.378" y="710.022"/>
      <point x="499.022" y="694.844" type="curve"/>
      <point x="519.2" y="781.0" type="line"/>
      <point x="491.022" y="798.0"/>
      <point x="432.022" y="817.0"/>
      <point x="340.2" y="817.0" type="curve" smooth="yes"/>
      <point x="239.844" y="817.0"/>
      <point x="112.489" y="779.222"/>
    </contour>
    <contour>
      <point x="556.378" y="73.889" type="curve" smooth="yes"/>
      <point x="556.378" y="275.933"/>
      <point x="207.8" y="239.556"/>
      <point x="207.8" y="393.244" type="curve" smooth="yes"/>
      <point x="207.8" y="434.244"/>
      <point x="235.756" y="492.0"/>
      <point x="255.578" y="518.0" type="curve"/>
      <point x="200.911" y="547.0" type="line"/>
      <point x="145.889" y="506.0"/>
      <point x="103.933" y="444.0"/>
      <point x="103.933" y="375.0" type="curve" smooth="yes"/>
      <point x="103.933" y="174.222"/>
      <point x="450.667" y="185.867"/>
      <point x="450.667" y="66.2" type="curve" smooth="yes"/>
      <point x="450.667" y="10.622"/>
      <point x="386.933" y="-8.844"/>
      <point x="316.6" y="-8.844" type="curve" smooth="yes"/>
      <point x="228.489" y="-9.844"/>
      <point x="161.089" y="18.156"/>
      <point x="134.444" y="37.156" type="curve"/>
      <point x="114.267" y="-49.0" type="line"/>
      <point x="144.444" y="-70.0"/>
      <point x="225.378" y="-94.0"/>
      <point x="316.556" y="-94.0" type="curve" smooth="yes"/>
      <point x="423.556" y="-94.0"/>
      <point x="556.378" y="-54.222"/>
    </contour>
  </outline>
</glyph>
<glyph name="dieresis" format="2">
  <advance width="421.0"/>
  <unicode hex="00A8"/>
  <anchor x="210.0" y="830.0" name="_top"/>
  <outline>
    <contour>
      <point x="93.0" y="666.0" type="curve" smooth="yes"/>
      <point x="132.0" y="666.0"/>
      <point x="168.0" y="695.0"/>
      <point x="168.0" y="738.0" type="curve" smooth="yes"/>
      <point x="168.0" y="773.0"/>
      <point x="149.0" y="802.0"/>
      <point x="105.0" y="802.0" type="curve" smooth="yes"/>
      <point x="68.0" y="802.0"/>
      <point x="29.0" y="770.0"/>
      <point x="29.0" y="729.0" type="curve" smooth="yes"/>
      <point x="29.0" y="690.0"/>
      <point x="58.0" y="666.0"/>
    </contour>
    <contour>
      <point x="317.0" y="666.0" type="curve" smooth="yes"/>
      <point x="356.0" y="666.0"/>
      <point x="392.0" y="695.0"/>
      <point x="392.0" y="738.0" type="curve" smooth="yes"/>
      <point x="392.0" y="773.0"/>
      <point x="373.0" y="802.0"/>
      <point x="329.0" y="802.0" type="curve" smooth="yes"/>
      <point x="291.0" y="802.0"/>
      <point x="253.0" y="770.0"/>
      <point x="253.0" y="729.0" type="curve" smooth="yes"/>
      <point x="253.0" y="690.0"/>
      <point x="282.0" y="666.0"/>
    </contour>
  </outline>
</glyph>
<glyph name="copyright" format="2">
  <advance width="1040.0"/>
  <unicode hex="00A9"/>
  <outline>
    <contour>
      <point x="95.0" y="470.0" type="curve" smooth="yes"/>
      <point x="95.0" y="232.0"/>
      <point x="282.0" y="40.0"/>
      <point x="520.0" y="40.0" type="curve" smooth="yes"/>
      <point x="757.0" y="40.0"/>
      <point x="945.0" y="232.0"/>
      <point x="945.0" y="470.0" type="curve" smooth="yes"/>
      <point x="945.0" y="708.0"/>
      <point x="757.0" y="898.0"/>
      <point x="520.0" y="898.0" type="curve" smooth="yes"/>
      <point x="282.0" y="898.0"/>
      <point x="95.0" y="708.0"/>
    </contour>
    <contour>
      <point x="164.0" y="470.0" type="curve" smooth="yes"/>
      <point x="164.0" y="672.0"/>
      <point x="315.0" y="837.0"/>
      <point x="520.0" y="837.0" type="curve" smooth="yes"/>
      <point x="724.0" y="837.0"/>
      <point x="875.0" y="672.0"/>
      <point x="875.0" y="470.0" type="curve" smooth="yes"/>
      <point x="875.0" y="268.0"/>
      <point x="724.0" y="103.0"/>
      <point x="520.0" y="103.0" type="curve" smooth="yes"/>
      <point x="315.0" y="103.0"/>
      <point x="164.0" y="268.0"/>
    </contour>
    <contour>
      <point x="303.0" y="467.0" type="curve" smooth="yes"/>
      <point x="303.0" y="346.0"/>
      <point x="383.0" y="234.0"/>
      <point x="518.0" y="234.0" type="curve" smooth="yes"/>
      <point x="583.0" y="234.0"/>
      <point x="642.0" y="253.0"/>
      <point x="674.0" y="280.0" type="curve"/>
      <point x="652.0" y="340.0" type="line"/>
      <point x="627.0" y="327.0"/>
      <point x="583.0" y="311.0"/>
      <point x="531.0" y="311.0" type="curve" smooth="yes"/>
      <point x="453.0" y="311.0"/>
      <point x="398.0" y="368.0"/>
      <point x="398.0" y="474.0" type="curve" smooth="yes"/>
      <point x="398.0" y="562.0"/>
      <point x="446.0" y="631.0"/>
      <point x="536.0" y="631.0" type="curve" smooth="yes"/>
      <point x="585.0" y="631.0"/>
      <point x="619.0" y="618.0"/>
      <point x="646.0" y="601.0" type="curve"/>
      <point x="662.0" y="681.0" type="line"/>
      <point x="645.0" y="690.0"/>
      <point x="608.0" y="708.0"/>
      <point x="545.0" y="708.0" type="curve" smooth="yes"/>
      <point x="388.0" y="708.0"/>
      <point x="303.0" y="604.0"/>
    </contour>
  </outline>
</glyph>
<glyph name="ordfeminine" format="2">
  <advance width="505.0"/>
  <unicode hex="00AA"/>
  <outline>
    <contour>
      <point x="210.0" y="331.0" type="curve" smooth="yes"/>
      <point x="267.0" y="331.0"/>
      <point x="314.0" y="354.0"/>
      <point x="336.0" y="377.0" type="curve"/>
      <point x="352.0" y="407.0" type="line"/>
      <point x="331.0" y="434.0" type="line"/>
      <point x="321.0" y="424.0"/>
      <point x="276.0" y="402.0"/>
      <point x="228.0" y="402.0" type="curve" smooth="yes"/>
      <point x="188.0" y="402.0"/>
      <point x="156.0" y="420.0"/>
      <point x="156.0" y="458.0" type="curve" smooth="yes"/>
      <point x="156.0" y="494.0"/>
      <point x="170.0" y="511.0"/>
      <point x="199.0" y="525.0" type="curve" smooth="yes"/>
      <point x="235.0" y="543.0"/>
      <point x="284.0" y="542.0"/>
      <point x="331.0" y="542.0" type="curve"/>
      <point x="352.0" y="575.0" type="line"/>
      <point x="331.0" y="602.0" type="line"/>
      <point x="277.0" y="602.0"/>
      <point x="207.0" y="596.0"/>
      <point x="149.0" y="574.0" type="curve" smooth="yes"/>
      <point x="97.0" y="554.0"/>
      <point x="62.0" y="518.0"/>
      <point x="62.0" y="452.0" type="curve" smooth="yes"/>
      <point x="62.0" y="374.0"/>
      <point x="123.0" y="331.0"/>
    </contour>
    <contour>
      <point x="428.0" y="335.0" type="line"/>
      <point x="428.0" y="569.0" type="line"/>
      <point x="428.0" y="636.0" type="line" smooth="yes"/>
      <point x="428.0" y="746.0"/>
      <point x="362.0" y="781.0"/>
      <point x="258.0" y="781.0" type="curve" smooth="yes"/>
      <point x="183.0" y="781.0"/>
      <point x="92.0" y="742.0"/>
      <point x="74.0" y="725.0" type="curve"/>
      <point x="102.0" y="666.0" type="line"/>
      <point x="123.0" y="681.0"/>
      <point x="193.0" y="705.0"/>
      <point x="237.0" y="705.0" type="curve" smooth="yes"/>
      <point x="298.0" y="705.0"/>
      <point x="331.0" y="699.0"/>
      <point x="331.0" y="633.0" type="curve" smooth="yes"/>
      <point x="331.0" y="402.0" type="line"/>
      <point x="336.0" y="402.0" type="line"/>
      <point x="336.0" y="371.0" type="line" smooth="yes"/>
      <point x="336.0" y="333.0"/>
      <point x="357.0" y="335.0"/>
      <point x="393.0" y="335.0" type="curve" smooth="yes"/>
    </contour>
  </outline>
</glyph>
<glyph name="guillemetleft" format="2">
  <advance width="945.0"/>
  <unicode hex="00AB"/>
  <outline>
    <contour>
      <point x="120.0" y="253.0" type="line"/>
      <point x="424.0" y="51.0" type="line"/>
      <point x="451.0" y="128.0" type="line"/>
      <point x="198.0" y="320.0" type="line"/>
      <point x="198.0" y="280.0" type="line"/>
      <point x="451.0" y="474.0" type="line"/>
      <point x="424.0" y="553.0" type="line"/>
      <point x="120.0" y="343.0" type="line"/>
    </contour>
    <contour>
      <point x="477.0" y="253.0" type="line"/>
      <point x="791.0" y="51.0" type="line"/>
      <point x="818.0" y="128.0" type="line"/>
      <point x="555.0" y="320.0" type="line"/>
      <point x="555.0" y="280.0" type="line"/>
      <point x="818.0" y="474.0" type="line"/>
      <point x="791.0" y="553.0" type="line"/>
      <point x="477.0" y="343.0" type="line"/>
    </contour>
  </outline>
</glyph>
<glyph name="logicalnot" format="2">
  <advance width="718.0"/>
  <unicode hex="00AC"/>
  <outline>
    <contour>
      <point x="117.0" y="336.0" type="line"/>
      <point x="503.0" y="336.0" type="line"/>
      <point x="503.0" y="158.0" type="line"/>
      <point x="601.0" y="158.0" type="line"/>
      <point x="601.0" y="416.0" type="line"/>
      <point x="117.0" y="416.0" type="line"/>
    </contour>
  </outline>
</glyph>
<glyph name="macron" format="2">
  <advance width="316.0"/>
  <unicode hex="00AF"/>
  <anchor x="157.0" y="830.0" name="_top"/>
  <outline>
    <contour>
      <point x="24.0" y="696.0" type="line"/>
      <point x="292.0" y="696.0" type="line"/>
      <point x="292.0" y="775.0" type="line"/>
      <point x="24.0" y="775.0" type="line"/>
    </contour>
  </outline>
</glyph>
<glyph name="degree" format="2">
  <advance width="448.91111"/>
  <unicode hex="00B0"/>
  <outline>
    <contour>
      <point x="57.178" y="624.0" type="curve" smooth="yes"/>
      <point x="57.178" y="528.467"/>
      <point x="131.889" y="456.578"/>
      <point x="224.778" y="456.578" type="curve" smooth="yes"/>
      <point x="318.378" y="456.578"/>
      <point x="392.556" y="527.111"/>
      <point x="392.556" y="624.0" type="curve" smooth="yes"/>
      <point x="392.556" y="719.533"/>
      <point x="318.022" y="791.422"/>
      <point x="224.778" y="791.422" type="curve" smooth="yes"/>
      <point x="130.533" y="791.422"/>
      <point x="57.178" y="720.711"/>
    </contour>
    <contour>
      <point x="135.844" y="624.0" type="curve" smooth="yes"/>
      <point x="135.844" y="678.289"/>
      <point x="175.311" y="717.756"/>
      <point x="224.778" y="717.756" type="curve" smooth="yes"/>
      <point x="273.422" y="717.756"/>
      <point x="313.889" y="678.111"/>
      <point x="313.889" y="624.0" type="curve" smooth="yes"/>
      <point x="313.889" y="569.711"/>
      <point x="273.6" y="530.244"/>
      <point x="224.778" y="530.244" type="curve" smooth="yes"/>
      <point x="175.489" y="530.244"/>
      <point x="135.844" y="569.889"/>
    </contour>
  </outline>
</glyph>
<glyph name="plusminus" format="2">
  <advance width="680.0"/>
  <unicode hex="00B1"/>
  <outline>
    <contour>
      <point x="122.0" y="0.0" type="line"/>
      <point x="558.0" y="0.0" type="line"/>
      <point x="558.0" y="81.0" type="line"/>
      <point x="122.0" y="81.0" type="line"/>
    </contour>
    <component base="plus"/>
  </outline>
</glyph>
<glyph name="acute" format="2">
  <advance width="290.0"/>
  <unicode hex="00B4"/>
  <anchor x="88.0" y="830.0" name="_top"/>
  <outline>
    <contour>
      <point x="79.0" y="632.0" type="line"/>
      <point x="114.0" y="646.0"/>
      <point x="242.0" y="764.0"/>
      <point x="266.0" y="805.0" type="curve"/>
      <point x="189.0" y="871.0" type="line"/>
      <point x="142.0" y="803.0"/>
      <point x="80.0" y="737.0"/>
      <point x="24.0" y="676.0" type="curve"/>
    </contour>
  </outline>
</glyph>
<glyph name="micro" format="2">
  <advance width="667.91111"/>
  <unicode hex="00B5"/>
  <outline>
    <contour>
      <point x="100.333" y="-181.0" type="line"/>
      <point x="207.089" y="-181.0" type="line"/>
      <point x="189.089" y="79.0" type="line"/>
      <point x="169.956" y="74.0" type="line"/>
      <point x="200.067" y="11.0"/>
      <point x="245.778" y="-8.0"/>
      <point x="321.067" y="-8.0" type="curve" smooth="yes"/>
      <point x="392.067" y="-8.0"/>
      <point x="428.6" y="32.644"/>
      <point x="451.711" y="59.0" type="curve"/>
      <point x="449.6" y="8.533"/>
      <point x="475.956" y="-9.0"/>
      <point x="512.556" y="-9.0" type="curve" smooth="yes"/>
      <point x="568.4" y="-9.0"/>
      <point x="613.111" y="32.0"/>
      <point x="620.111" y="42.0" type="curve"/>
      <point x="605.111" y="94.089" type="line"/>
      <point x="587.111" y="84.089"/>
      <point x="572.756" y="81.089"/>
      <point x="566.756" y="81.089" type="curve" smooth="yes"/>
      <point x="555.756" y="81.089"/>
      <point x="549.044" y="88.089"/>
      <point x="549.044" y="118.089" type="curve" smooth="yes"/>
      <point x="549.044" y="557.0" type="line"/>
      <point x="433.867" y="557.0" type="line"/>
      <point x="433.867" y="124.622" type="line"/>
      <point x="409.578" y="105.8"/>
      <point x="369.0" y="83.4"/>
      <point x="331.778" y="83.4" type="curve" smooth="yes"/>
      <point x="252.378" y="83.4"/>
      <point x="214.689" y="113.289"/>
      <point x="214.689" y="202.289" type="curve" smooth="yes"/>
      <point x="214.689" y="557.0" type="line"/>
      <point x="100.333" y="557.0" type="line"/>
    </contour>
  </outline>
</glyph>
<glyph name="paragraph" format="2">
  <advance width="652.64444"/>
  <unicode hex="00B6"/>
  <outline>
    <contour>
      <point x="250.222" y="0.0" type="line"/>
      <point x="346.089" y="0.0" type="line"/>
      <point x="346.089" y="753.689" type="line"/>
      <point x="460.711" y="753.689" type="line"/>
      <point x="460.711" y="0.0" type="line"/>
      <point x="556.578" y="0.0" type="line"/>
      <point x="556.578" y="826.0" type="line"/>
      <point x="498.511" y="827.0"/>
      <point x="368.067" y="835.0"/>
      <point x="321.0" y="835.0" type="curve" smooth="yes"/>
      <point x="135.044" y="835.0"/>
      <point x="39.044" y="747.6"/>
      <point x="39.044" y="609.0" type="curve" smooth="yes"/>
      <point x="39.044" y="447.0"/>
      <point x="113.756" y="379.0"/>
      <point x="250.222" y="379.0" type="curve"/>
    </contour>
  </outline>
</glyph>
<glyph name="cedilla" format="2">
  <advance width="237.0"/>
  <unicode hex="00B8"/>
  <anchor x="161.0" y="-83.0" name="_btm"/>
  <outline>
    <contour>
      <point x="23.0" y="-213.0" type="line"/>
      <point x="34.0" y="-221.0"/>
      <point x="68.0" y="-227.0"/>
      <point x="95.0" y="-227.0" type="curve" smooth="yes"/>
      <point x="151.0" y="-227.0"/>
      <point x="205.0" y="-194.0"/>
      <point x="212.0" y="-112.0" type="curve" smooth="yes"/>
      <point x="216.0" y="-58.0"/>
      <point x="207.0" y="-9.0"/>
      <point x="184.0" y="15.0" type="curve"/>
      <point x="163.0" y="17.0" type="line"/>
      <point x="123.0" y="15.0" type="line"/>
      <point x="132.0" y="-4.0"/>
      <point x="139.0" y="-30.0"/>
      <point x="132.0" y="-77.0" type="curve" smooth="yes"/>
      <point x="129.0" y="-130.0"/>
      <point x="102.0" y="-150.0"/>
      <point x="70.0" y="-150.0" type="curve" smooth="yes"/>
      <point x="55.0" y="-150.0"/>
      <point x="39.0" y="-149.0"/>
      <point x="30.0" y="-144.0" type="curve"/>
    </contour>
  </outline>
</glyph>
<glyph name="ordmasculine" format="2">
  <advance width="504.0"/>
  <unicode hex="00BA"/>
  <outline>
    <contour>
      <point x="54.0" y="562.0" type="curve" smooth="yes"/>
      <point x="53.0" y="422.0"/>
      <point x="125.0" y="331.0"/>
      <point x="250.0" y="331.0" type="curve" smooth="yes"/>
      <point x="348.0" y="331.0"/>
      <point x="448.0" y="392.0"/>
      <point x="450.0" y="552.0" type="curve" smooth="yes"/>
      <point x="452.0" y="688.0"/>
      <point x="384.0" y="781.0"/>
      <point x="260.0" y="781.0" type="curve" smooth="yes"/>
      <point x="166.0" y="781.0"/>
      <point x="57.0" y="722.0"/>
    </contour>
    <contour>
      <point x="156.0" y="562.0" type="curve" smooth="yes"/>
      <point x="156.0" y="668.0"/>
      <point x="198.0" y="708.0"/>
      <point x="255.0" y="709.0" type="curve" smooth="yes"/>
      <point x="316.0" y="710.0"/>
      <point x="349.0" y="649.0"/>
      <point x="349.0" y="551.0" type="curve" smooth="yes"/>
      <point x="349.0" y="445.0"/>
      <point x="316.0" y="404.0"/>
      <point x="255.0" y="403.0" type="curve" smooth="yes"/>
      <point x="193.0" y="402.0"/>
      <point x="156.0" y="464.0"/>
    </contour>
  </outline>
</glyph>
<glyph name="guillemetright" format="2">
  <advance width="945.0"/>
  <unicode hex="00BB"/>
  <outline>
    <contour>
      <point x="825.0" y="253.0" type="line"/>
      <point x="825.0" y="343.0" type="line"/>
      <point x="521.0" y="553.0" type="line"/>
      <point x="494.0" y="474.0" type="line"/>
      <point x="747.0" y="280.0" type="line"/>
      <point x="747.0" y="320.0" type="line"/>
      <point x="494.0" y="128.0" type="line"/>
      <point x="521.0" y="51.0" type="line"/>
    </contour>
    <contour>
      <point x="468.0" y="253.0" type="line"/>
      <point x="468.0" y="343.0" type="line"/>
      <point x="154.0" y="553.0" type="line"/>
      <point x="127.0" y="474.0" type="line"/>
      <point x="390.0" y="280.0" type="line"/>
      <point x="390.0" y="320.0" type="line"/>
      <point x="127.0" y="128.0" type="line"/>
      <point x="154.0" y="51.0" type="line"/>
    </contour>
  </outline>
</glyph>
<glyph name="questiondown" format="2">
  <advance width="511.0"/>
  <unicode hex="00BF"/>
  <outline>
    <contour>
      <point x="333.0" y="503.0" type="curve"/>
      <point x="252.0" y="503.0" type="line"/>
      <point x="266.0" y="454.0"/>
      <point x="278.0" y="423.0"/>
      <point x="273.0" y="378.0" type="curve" smooth="yes"/>
      <point x="266.0" y="292.0"/>
      <point x="86.0" y="276.0"/>
      <point x="61.0" y="132.0" type="curve" smooth="yes"/>
      <point x="32.0" y="-11.0"/>
      <point x="111.0" y="-154.0"/>
      <point x="346.0" y="-154.0" type="curve" smooth="yes"/>
      <point x="395.0" y="-154.0"/>
      <point x="441.0" y="-141.0"/>
      <point x="452.0" y="-133.0" type="curve"/>
      <point x="452.0" y="-55.0" type="line"/>
      <point x="440.0" y="-58.0"/>
      <point x="412.0" y="-64.0"/>
      <point x="364.0" y="-64.0" type="curve" smooth="yes"/>
      <point x="218.0" y="-64.0"/>
      <point x="136.0" y="9.0"/>
      <point x="168.0" y="137.0" type="curve" smooth="yes"/>
      <point x="184.0" y="224.0"/>
      <point x="381.0" y="262.0"/>
      <point x="377.0" y="368.0" type="curve" smooth="yes"/>
      <point x="375.0" y="425.0"/>
      <point x="355.0" y="476.0"/>
    </contour>
    <contour>
      <point x="279.0" y="755.0" type="curve" smooth="yes"/>
      <point x="238.0" y="755.0"/>
      <point x="199.0" y="719.0"/>
      <point x="201.0" y="671.0" type="curve" smooth="yes"/>
      <point x="202.0" y="633.0"/>
      <point x="226.0" y="600.0"/>
      <point x="271.0" y="600.0" type="curve" smooth="yes"/>
      <point x="310.0" y="600.0"/>
      <point x="349.0" y="638.0"/>
      <point x="348.0" y="682.0" type="curve" smooth="yes"/>
      <point x="347.0" y="724.0"/>
      <point x="314.0" y="755.0"/>
    </contour>
  </outline>
</glyph>
<glyph name="AE" format="2">
  <advance width="908.0"/>
  <unicode hex="00C6"/>
  <anchor x="454.0" y="0.0" name="bottom"/>
  <anchor x="675.0" y="-83.0" name="btm"/>
  <anchor x="498.0" y="830.0" name="top"/>
  <outline>
    <contour>
      <point x="-36.0" y="0.0" type="line"/>
      <point x="84.0" y="0.0" type="line"/>
      <point x="412.0" y="689.0" type="line"/>
      <point x="318.0" y="743.0" type="line"/>
    </contour>
    <contour>
      <point x="409.0" y="743.0" type="line"/>
      <point x="318.0" y="743.0" type="line"/>
      <point x="333.0" y="672.0" type="line"/>
      <point x="451.0" y="672.0" type="line"/>
    </contour>
    <contour>
      <point x="113.0" y="188.0" type="line"/>
      <point x="495.0" y="188.0" type="line"/>
      <point x="474.0" y="269.0" type="line"/>
      <point x="133.0" y="269.0" type="line"/>
    </contour>
    <contour>
      <point x="409.0" y="0.0" type="line"/>
      <point x="872.0" y="0.0" type="line"/>
      <point x="872.0" y="85.0" type="line"/>
      <point x="518.0" y="85.0" type="line"/>
      <point x="518.0" y="341.0" type="line"/>
      <point x="751.0" y="341.0" type="line"/>
      <point x="751.0" y="425.0" type="line"/>
      <point x="518.0" y="425.0" type="line"/>
      <point x="518.0" y="659.0" type="line"/>
      <point x="836.0" y="659.0" type="line"/>
      <point x="836.0" y="743.0" type="line"/>
      <point x="409.0" y="743.0" type="line"/>
    </contour>
  </outline>
</glyph>
<glyph name="Eth" format="2">
  <advance width="726.11111"/>
  <unicode hex="00D0"/>
  <anchor x="363.556" y="0.0" name="bottom"/>
  <anchor x="323.733" y="-83.0" name="btm"/>
  <anchor x="363.556" y="372.0" name="center"/>
  <anchor x="359.2" y="830.0" name="top"/>
  <outline>
    <contour>
      <point x="32.356" y="349.689" type="line"/>
      <point x="399.022" y="349.689" type="line"/>
      <point x="399.022" y="426.311" type="line"/>
      <point x="32.356" y="426.311" type="line"/>
    </contour>
    <component base="D"/>
  </outline>
</glyph>
<glyph name="multiply" format="2">
  <advance width="669.0"/>
  <unicode hex="00D7"/>
  <outline>
    <contour>
      <point x="114.0" y="214.0" type="line"/>
      <point x="178.0" y="152.0" type="line"/>
      <point x="335.0" y="319.0" type="line"/>
      <point x="492.0" y="152.0" type="line"/>
      <point x="556.0" y="214.0" type="line"/>
      <point x="391.0" y="379.0" type="line"/>
      <point x="556.0" y="546.0" type="line"/>
      <point x="492.0" y="609.0" type="line"/>
      <point x="335.0" y="436.0" type="line"/>
      <point x="178.0" y="609.0" type="line"/>
      <point x="114.0" y="546.0" type="line"/>
      <point x="279.0" y="378.0" type="line"/>
    </contour>
  </outline>
</glyph>
<glyph name="Oslash" format="2">
  <advance width="766.0"/>
  <unicode hex="00D8"/>
  <anchor x="383.0" y="0.0" name="bottom"/>
  <anchor x="375.0" y="830.0" name="top"/>
  <outline>
    <contour>
      <point x="180.0" y="-98.0" type="line"/>
      <point x="645.0" y="831.0" type="line"/>
      <point x="587.0" y="849.0" type="line"/>
      <point x="122.0" y="-80.0" type="line"/>
    </contour>
    <contour>
      <point x="380.0" y="-8.0" type="curve" smooth="yes"/>
      <point x="570.0" y="-4.0"/>
      <point x="712.0" y="124.0"/>
      <point x="717.0" y="372.0" type="curve" smooth="yes"/>
      <point x="722.0" y="602.0"/>
      <point x="592.0" y="751.0"/>
      <point x="395.0" y="751.0" type="curve" smooth="yes"/>
      <point x="206.0" y="751.0"/>
      <point x="54.0" y="625.0"/>
      <point x="49.0" y="377.0" type="curve" smooth="yes"/>
      <point x="44.0" y="152.0"/>
      <point x="174.0" y="-12.0"/>
    </contour>
    <contour>
      <point x="383.0" y="76.0" type="curve" smooth="yes"/>
      <point x="235.0" y="76.0"/>
      <point x="159.0" y="216.0"/>
      <point x="159.0" y="370.0" type="curve" smooth="yes"/>
      <point x="159.0" y="574.0"/>
      <point x="266.0" y="668.0"/>
      <point x="391.0" y="668.0" type="curve" smooth="yes"/>
      <point x="534.0" y="668.0"/>
      <point x="607.0" y="533.0"/>
      <point x="607.0" y="377.0" type="curve" smooth="yes"/>
      <point x="607.0" y="181.0"/>
      <point x="519.0" y="76.0"/>
    </contour>
  </outline>
</glyph>
<glyph name="Thorn" format="2">
  <advance width="616.0"/>
  <unicode hex="00DE"/>
  <anchor x="308.0" y="0.0" name="bottom"/>
  <anchor x="308.0" y="743.0" name="top"/>
  <outline>
    <contour>
      <point x="293.0" y="139.0" type="curve" smooth="yes"/>
      <point x="479.0" y="139.0"/>
      <point x="577.0" y="230.0"/>
      <point x="577.0" y="387.0" type="curve" smooth="yes"/>
      <point x="577.0" y="542.0"/>
      <point x="486.0" y="615.0"/>
      <point x="317.0" y="615.0" type="curve" smooth="yes"/>
      <point x="258.0" y="615.0"/>
      <point x="203.0" y="607.0"/>
      <point x="159.0" y="607.0" type="curve"/>
      <point x="196.0" y="526.0" type="line"/>
      <point x="222.0" y="534.0"/>
      <point x="252.0" y="536.0"/>
      <point x="281.0" y="537.0" type="curve" smooth="yes"/>
      <point x="408.0" y="541.0"/>
      <point x="469.0" y="494.0"/>
      <point x="469.0" y="386.0" type="curve" smooth="yes"/>
      <point x="469.0" y="244.0"/>
      <point x="381.0" y="218.0"/>
      <point x="283.0" y="218.0" type="curve" smooth="yes"/>
      <point x="256.0" y="218.0"/>
      <point x="229.0" y="219.0"/>
      <point x="196.0" y="224.0" type="curve"/>
      <point x="196.0" y="143.0" type="line"/>
      <point x="215.0" y="143.0"/>
      <point x="246.0" y="139.0"/>
    </contour>
    <contour>
      <point x="95.0" y="0.0" type="line"/>
      <point x="204.0" y="0.0" type="line"/>
      <point x="204.0" y="743.0" type="line"/>
      <point x="95.0" y="743.0" type="line"/>
    </contour>
  </outline>
</glyph>
<glyph name="germandbls" format="2">
  <advance width="619.0"/>
  <unicode hex="00DF"/>
  <anchor x="310.0" y="0.0" name="bottom"/>
  <anchor x="310.0" y="557.0" name="top"/>
  <outline>
    <contour>
      <point x="85.0" y="0.0" type="line"/>
      <point x="192.0" y="0.0" type="line"/>
      <point x="192.0" y="463.0" type="line" smooth="yes"/>
      <point x="192.0" y="642.0"/>
      <point x="251.0" y="695.0"/>
      <point x="333.0" y="695.0" type="curve" smooth="yes"/>
      <point x="395.0" y="695.0"/>
      <point x="429.0" y="671.0"/>
      <point x="429.0" y="623.0" type="curve" smooth="yes"/>
      <point x="429.0" y="537.0"/>
      <point x="327.0" y="507.0"/>
      <point x="327.0" y="416.0" type="curve" smooth="yes"/>
      <point x="327.0" y="261.0"/>
      <point x="494.0" y="249.0"/>
      <point x="495.0" y="141.0" type="curve" smooth="yes"/>
      <point x="495.0" y="85.0"/>
      <point x="453.0" y="67.0"/>
      <point x="414.0" y="67.0" type="curve" smooth="yes"/>
      <point x="354.0" y="67.0"/>
      <point x="315.0" y="83.0"/>
      <point x="297.0" y="93.0" type="curve"/>
      <point x="297.0" y="8.0" type="line"/>
      <point x="316.0" y="0.0"/>
      <point x="360.0" y="-8.0"/>
      <point x="410.0" y="-8.0" type="curve" smooth="yes"/>
      <point x="505.0" y="-8.0"/>
      <point x="604.0" y="34.0"/>
      <point x="604.0" y="153.0" type="curve" smooth="yes"/>
      <point x="604.0" y="315.0"/>
      <point x="426.0" y="328.0"/>
      <point x="426.0" y="428.0" type="curve" smooth="yes"/>
      <point x="426.0" y="495.0"/>
      <point x="536.0" y="528.0"/>
      <point x="536.0" y="636.0" type="curve" smooth="yes"/>
      <point x="536.0" y="724.0"/>
      <point x="453.0" y="771.0"/>
      <point x="351.0" y="771.0" type="curve" smooth="yes"/>
      <point x="203.0" y="771.0"/>
      <point x="85.0" y="682.0"/>
      <point x="85.0" y="472.0" type="curve" smooth="yes"/>
    </contour>
    <contour>
      <point x="18.0" y="476.0" type="line"/>
      <point x="90.0" y="476.0" type="line"/>
      <point x="117.0" y="509.0" type="line"/>
      <point x="101.0" y="560.0" type="line"/>
      <point x="18.0" y="539.0" type="line"/>
    </contour>
  </outline>
</glyph>
<glyph name="ae" format="2">
  <advance width="869.0"/>
  <unicode hex="00E6"/>
  <anchor x="435.0" y="0.0" name="bottom"/>
  <anchor x="441.0" y="830.0" name="top"/>
  <outline>
    <contour>
      <point x="615.0" y="-8.0" type="curve" smooth="yes"/>
      <point x="682.0" y="-8.0"/>
      <point x="768.0" y="12.0"/>
      <point x="804.0" y="42.0" type="curve"/>
      <point x="784.0" y="104.0" type="line"/>
      <point x="756.0" y="87.0"/>
      <point x="680.0" y="74.0"/>
      <point x="643.0" y="74.0" type="curve" smooth="yes"/>
      <point x="552.0" y="74.0"/>
      <point x="480.0" y="110.0"/>
      <point x="474.0" y="245.0" type="curve"/>
      <point x="468.0" y="428.0"/>
      <point x="531.0" y="488.0"/>
      <point x="611.0" y="488.0" type="curve" smooth="yes"/>
      <point x="708.0" y="488.0"/>
      <point x="726.0" y="406.0"/>
      <point x="721.0" y="326.0" type="curve"/>
      <point x="442.0" y="326.0" type="line"/>
      <point x="433.0" y="255.0" type="line"/>
      <point x="816.0" y="255.0" type="line"/>
      <point x="822.0" y="280.0"/>
      <point x="822.0" y="313.0"/>
      <point x="822.0" y="354.0" type="curve"/>
      <point x="817.0" y="494.0"/>
      <point x="728.0" y="566.0"/>
      <point x="617.0" y="564.0" type="curve" smooth="yes"/>
      <point x="454.0" y="562.0"/>
      <point x="368.0" y="441.0"/>
      <point x="368.0" y="279.0" type="curve" smooth="yes"/>
      <point x="368.0" y="90.0"/>
      <point x="457.0" y="-8.0"/>
    </contour>
    <contour>
      <point x="46.0" y="149.0" type="curve" smooth="yes"/>
      <point x="46.0" y="51.0"/>
      <point x="121.0" y="-8.0"/>
      <point x="219.0" y="-8.0" type="curve" smooth="yes"/>
      <point x="304.0" y="-8.0"/>
      <point x="381.0" y="23.0"/>
      <point x="434.0" y="95.0" type="curve"/>
      <point x="417.0" y="126.0" type="line"/>
      <point x="396.0" y="144.0" type="line"/>
      <point x="373.0" y="102.0"/>
      <point x="302.0" y="72.0"/>
      <point x="246.0" y="72.0" type="curve" smooth="yes"/>
      <point x="182.0" y="72.0"/>
      <point x="154.0" y="102.0"/>
      <point x="154.0" y="158.0" type="curve" smooth="yes"/>
      <point x="154.0" y="201.0"/>
      <point x="178.0" y="224.0"/>
      <point x="214.0" y="241.0" type="curve" smooth="yes"/>
      <point x="253.0" y="260.0"/>
      <point x="313.0" y="268.0"/>
      <point x="368.0" y="268.0" type="curve"/>
      <point x="390.0" y="306.0" type="line"/>
      <point x="367.0" y="336.0" type="line"/>
      <point x="295.0" y="336.0"/>
      <point x="218.0" y="327.0"/>
      <point x="154.0" y="300.0" type="curve" smooth="yes"/>
      <point x="91.0" y="272.0"/>
      <point x="46.0" y="221.0"/>
    </contour>
    <contour>
      <point x="100.0" y="442.0" type="line"/>
      <point x="128.0" y="460.0"/>
      <point x="208.0" y="484.0"/>
      <point x="257.0" y="484.0" type="curve" smooth="yes"/>
      <point x="331.0" y="484.0"/>
      <point x="367.0" y="472.0"/>
      <point x="367.0" y="392.0" type="curve" smooth="yes"/>
      <point x="367.0" y="290.0" type="line"/>
      <point x="463.0" y="290.0" type="line"/>
      <point x="463.0" y="388.0" type="line" smooth="yes"/>
      <point x="463.0" y="534.0"/>
      <point x="396.0" y="565.0"/>
      <point x="284.0" y="565.0" type="curve" smooth="yes"/>
      <point x="198.0" y="565.0"/>
      <point x="95.0" y="526.0"/>
      <point x="73.0" y="514.0" type="curve"/>
    </contour>
  </outline>
</glyph>
<glyph name="eth" format="2">
  <advance width="581.0"/>
  <unicode hex="00F0"/>
  <outline>
    <contour>
      <point x="296.0" y="-13.0" type="curve" smooth="yes"/>
      <point x="445.0" y="-11.0"/>
      <point x="544.0" y="90.0"/>
      <point x="544.0" y="297.0" type="curve" smooth="yes"/>
      <point x="544.0" y="493.0"/>
      <point x="467.0" y="657.0"/>
      <point x="329.0" y="764.0" type="curve" smooth="yes"/>
      <point x="321.0" y="770.0"/>
      <point x="312.0" y="777.0"/>
      <point x="303.0" y="783.0" type="curve" smooth="yes"/>
      <point x="253.0" y="817.0"/>
      <point x="197.0" y="845.0"/>
      <point x="134.0" y="865.0" type="curve"/>
      <point x="108.0" y="804.0" type="line"/>
      <point x="155.0" y="788.0"/>
      <point x="199.0" y="763.0"/>
      <point x="240.0" y="733.0" type="curve" smooth="yes"/>
      <point x="248.0" y="728.0"/>
      <point x="255.0" y="722.0"/>
      <point x="263.0" y="716.0" type="curve" smooth="yes"/>
      <point x="343.0" y="652.0"/>
      <point x="404.0" y="561.0"/>
      <point x="419.0" y="451.0" type="curve"/>
      <point x="458.0" y="432.0" type="line"/>
      <point x="443.0" y="499.0"/>
      <point x="388.0" y="563.0"/>
      <point x="296.0" y="563.0" type="curve" smooth="yes"/>
      <point x="147.0" y="564.0"/>
      <point x="46.0" y="453.0"/>
      <point x="46.0" y="270.0" type="curve" smooth="yes"/>
      <point x="46.0" y="96.0"/>
      <point x="144.0" y="-15.0"/>
    </contour>
    <contour>
      <point x="301.0" y="61.0" type="curve" smooth="yes"/>
      <point x="202.0" y="61.0"/>
      <point x="153.0" y="151.0"/>
      <point x="153.0" y="274.0" type="curve" smooth="yes"/>
      <point x="153.0" y="396.0"/>
      <point x="200.0" y="483.0"/>
      <point x="300.0" y="483.0" type="curve" smooth="yes"/>
      <point x="388.0" y="483.0"/>
      <point x="428.0" y="445.0"/>
      <point x="435.0" y="415.0" type="curve"/>
      <point x="439.0" y="363.0"/>
      <point x="437.0" y="321.0"/>
      <point x="437.0" y="271.0" type="curve" smooth="yes"/>
      <point x="437.0" y="143.0"/>
      <point x="384.0" y="61.0"/>
    </contour>
    <contour>
      <point x="205.0" y="638.0" type="line"/>
      <point x="284.0" y="726.0" type="line"/>
      <point x="296.0" y="743.0" type="line"/>
      <point x="325.0" y="767.0"/>
      <point x="387.0" y="840.0"/>
      <point x="387.0" y="840.0" type="curve"/>
      <point x="330.0" y="884.0" type="line"/>
      <point x="330.0" y="884.0"/>
      <point x="268.0" y="807.0"/>
      <point x="244.0" y="786.0" type="curve"/>
      <point x="231.0" y="771.0" type="line"/>
      <point x="148.0" y="682.0" type="line"/>
    </contour>
  </outline>
</glyph>
<glyph name="divide" format="2">
  <advance width="680.0"/>
  <unicode hex="00F7"/>
  <outline>
    <contour>
      <point x="338.0" y="502.0" type="curve" smooth="yes"/>
      <point x="379.0" y="502.0"/>
      <point x="418.0" y="535.0"/>
      <point x="418.0" y="581.0" type="curve" smooth="yes"/>
      <point x="418.0" y="619.0"/>
      <point x="396.0" y="649.0"/>
      <point x="349.0" y="649.0" type="curve" smooth="yes"/>
      <point x="309.0" y="649.0"/>
      <point x="269.0" y="614.0"/>
      <point x="269.0" y="570.0" type="curve" smooth="yes"/>
      <point x="269.0" y="529.0"/>
      <point x="301.0" y="502.0"/>
    </contour>
    <contour>
      <point x="337.0" y="110.0" type="curve" smooth="yes"/>
      <point x="379.0" y="110.0"/>
      <point x="418.0" y="142.0"/>
      <point x="418.0" y="188.0" type="curve" smooth="yes"/>
      <point x="418.0" y="226.0"/>
      <point x="395.0" y="256.0"/>
      <point x="349.0" y="256.0" type="curve" smooth="yes"/>
      <point x="309.0" y="256.0"/>
      <point x="269.0" y="221.0"/>
      <point x="269.0" y="177.0" type="curve" smooth="yes"/>
      <point x="269.0" y="136.0"/>
      <point x="300.0" y="110.0"/>
    </contour>
    <contour>
      <point x="112.0" y="336.0" type="line"/>
      <point x="568.0" y="336.0" type="line"/>
      <point x="568.0" y="419.0" type="line"/>
      <point x="112.0" y="419.0" type="line"/>
    </contour>
  </outline>
</glyph>
<glyph name="oslash" format="2">
  <advance width="599.82222"/>
  <unicode hex="00F8"/>
  <anchor x="322.0" y="830.0" name="top"/>
  <outline>
    <contour>
      <point x="142.956" y="-82.133" type="line"/>
      <point x="203.956" y="-99.6" type="line"/>
      <point x="457.333" y="640.489" type="line"/>
      <point x="396.333" y="657.133" type="line"/>
    </contour>
    <contour>
      <point x="294.911" y="-8.0" type="curve" smooth="yes"/>
      <point x="441.4" y="-8.0"/>
      <point x="549.822" y="88.0"/>
      <point x="552.822" y="267.0" type="curve" smooth="yes"/>
      <point x="554.822" y="425.0"/>
      <point x="486.289" y="564.0"/>
      <point x="304.911" y="564.0" type="curve" smooth="yes"/>
      <point x="159.244" y="564.0"/>
      <point x="49.178" y="469.0"/>
      <point x="47.0" y="290.0" type="curve"/>
      <point x="45.0" y="131.0"/>
      <point x="113.711" y="-8.0"/>
    </contour>
    <contour>
      <point x="297.911" y="73.689" type="curve" smooth="yes"/>
      <point x="205.756" y="75.511"/>
      <point x="164.711" y="172.556"/>
      <point x="164.711" y="288.467" type="curve" smooth="yes"/>
      <point x="164.711" y="412.911"/>
      <point x="211.044" y="483.311"/>
      <point x="301.911" y="481.489" type="curve"/>
      <point x="395.067" y="480.489"/>
      <point x="435.933" y="387.089"/>
      <point x="435.933" y="271.533" type="curve" smooth="yes"/>
      <point x="435.933" y="146.378"/>
      <point x="389.6" y="71.867"/>
    </contour>
  </outline>
</glyph>
<glyph name="thorn" format="2">
  <advance width="604.0"/>
  <unicode hex="00FE"/>
  <anchor x="302.0" y="0.0" name="bottom"/>
  <anchor x="302.0" y="557.0" name="top"/>
  <anchor x="313.0" y="-83.0" name="btm"/>
  <outline>
    <contour>
      <point x="81.0" y="31.0" type="line"/>
      <point x="81.0" y="-248.0" type="line"/>
      <point x="188.0" y="-248.0" type="line"/>
      <point x="188.0" y="-83.0" type="line"/>
      <point x="182.0" y="10.0" type="line"/>
    </contour>
    <component base="b"/>
  </outline>
</glyph>
<glyph name="Aogonek" format="2">
  <advance width="687.0"/>
  <unicode hex="0104"/>
  <anchor x="344.0" y="0.0" name="bottom"/>
  <anchor x="332.0" y="-83.0" name="btm"/>
  <anchor x="618.0" y="10.0" name="ogonek"/>
  <anchor x="343.0" y="830.0" name="top"/>
  <outline>
    <contour>
      <point x="445.0" y="-147.0" type="curve"/>
      <point x="446.0" y="-214.0"/>
      <point x="497.0" y="-250.0"/>
      <point x="565.0" y="-250.0" type="curve" smooth="yes"/>
      <point x="606.0" y="-250.0"/>
      <point x="653.0" y="-242.0"/>
      <point x="681.0" y="-221.0" type="curve"/>
      <point x="681.0" y="-164.0" type="line"/>
      <point x="659.0" y="-172.0"/>
      <point x="635.0" y="-178.0"/>
      <point x="613.0" y="-178.0" type="curve" smooth="yes"/>
      <point x="579.0" y="-178.0"/>
      <point x="551.0" y="-168.0"/>
      <point x="550.0" y="-126.0" type="curve"/>
      <point x="549.0" y="-79.0"/>
      <point x="606.0" y="-27.0"/>
      <point x="668.0" y="5.0" type="curve"/>
      <point x="653.0" y="14.0" type="line"/>
      <point x="580.0" y="2.0" type="line"/>
      <point x="520.0" y="-27.0"/>
      <point x="444.0" y="-83.0"/>
    </contour>
    <component base="A"/>
  </outline>
</glyph>
<glyph name="Dcroat" format="2">
  <advance width="719.0"/>
  <unicode hex="0110"/>
  <anchor x="360.0" y="0.0" name="bottom"/>
  <anchor x="320.0" y="-83.0" name="btm"/>
  <anchor x="360.0" y="372.0" name="center"/>
  <anchor x="356.0" y="830.0" name="top"/>
  <outline>
    <contour>
      <point x="32.0" y="352.0" type="line"/>
      <point x="396.0" y="352.0" type="line"/>
      <point x="396.0" y="424.0" type="line"/>
      <point x="32.0" y="424.0" type="line"/>
    </contour>
    <component base="D"/>
  </outline>
</glyph>
<glyph name="dcroat" format="2">
  <advance width="612.88889"/>
  <unicode hex="0111"/>
  <anchor x="306.089" y="0.0" name="bottom"/>
  <anchor x="299.378" y="-83.0" name="btm"/>
  <anchor x="306.089" y="279.0" name="center"/>
  <anchor x="180.622" y="830.178" name="top"/>
  <anchor x="592.178" y="557.0" name="topright"/>
  <outline>
    <contour>
      <point x="288.444" y="636.756" type="line"/>
      <point x="599.467" y="636.756" type="line"/>
      <point x="599.467" y="709.133" type="line"/>
      <point x="288.444" y="709.133" type="line"/>
    </contour>
    <component base="d"/>
  </outline>
</glyph>
<glyph name="Hbar" format="2">
  <advance width="763.0"/>
  <unicode hex="0126"/>
  <outline>
    <contour>
      <point x="95.0" y="0.0" type="line"/>
      <point x="204.0" y="0.0" type="line"/>
      <point x="204.0" y="329.0" type="line"/>
      <point x="560.0" y="329.0" type="line"/>
      <point x="560.0" y="0.0" type="line"/>
      <point x="668.0" y="0.0" type="line"/>
      <point x="668.0" y="743.0" type="line"/>
      <point x="560.0" y="743.0" type="line"/>
      <point x="560.0" y="413.0" type="line"/>
      <point x="204.0" y="413.0" type="line"/>
      <point x="204.0" y="743.0" type="line"/>
      <point x="95.0" y="743.0" type="line"/>
    </contour>
    <contour>
      <point x="4.0" y="520.0" type="line"/>
      <point x="761.0" y="520.0" type="line"/>
      <point x="761.0" y="589.0" type="line"/>
      <point x="4.0" y="589.0" type="line"/>
    </contour>
  </outline>
</glyph>
<glyph name="hbar" format="2">
  <advance width="629.0"/>
  <unicode hex="0127"/>
  <anchor x="315.0" y="0.0" name="bottom"/>
  <anchor x="328.0" y="-83.0" name="btm"/>
  <anchor x="315.0" y="492.0" name="center"/>
  <anchor x="140.0" y="869.0" name="top"/>
  <outline>
    <contour>
      <point x="18.0" y="627.0" type="line"/>
      <point x="307.0" y="627.0" type="line"/>
      <point x="307.0" y="691.0" type="line"/>
      <point x="18.0" y="691.0" type="line"/>
    </contour>
    <component base="h"/>
  </outline>
</glyph>
<glyph name="idotless" format="2">
  <advance width="298.84444"/>
  <unicode hex="0131"/>
  <anchor x="149.422" y="0.0" name="bottom"/>
  <anchor x="149.6" y="-83.0" name="btm"/>
  <anchor x="222.667" y="25.0" name="ogonek"/>
  <anchor x="149.422" y="830.0" name="top"/>
  <outline>
    <contour>
      <point x="91.511" y="0.0" type="line"/>
      <point x="207.333" y="0.0" type="line"/>
      <point x="207.333" y="556.178" type="line"/>
      <point x="91.511" y="556.178" type="line"/>
    </contour>
  </outline>
</glyph>
<glyph name="kgreenlandic" format="2">
  <advance width="571.0"/>
  <unicode hex="0138"/>
  <anchor x="286.0" y="0.0" name="bottom"/>
  <anchor x="286.0" y="557.0" name="top"/>
  <outline>
    <contour>
      <point x="551.0" y="557.0" type="line"/>
      <point x="429.0" y="557.0" type="line"/>
      <point x="166.0" y="249.0" type="line"/>
      <point x="192.0" y="231.0" type="line"/>
      <point x="196.0" y="322.0" type="line"/>
      <point x="196.0" y="557.0" type="line"/>
      <point x="88.0" y="557.0" type="line"/>
      <point x="90.0" y="0.0" type="line"/>
      <point x="197.0" y="0.0" type="line"/>
      <point x="197.0" y="93.0" type="line"/>
      <point x="194.0" y="178.0" type="line"/>
      <point x="184.0" y="152.0" type="line"/>
    </contour>
    <contour>
      <point x="258.0" y="261.0" type="line"/>
      <point x="448.0" y="0.0" type="line"/>
      <point x="570.0" y="0.0" type="line"/>
      <point x="332.0" y="329.0" type="line"/>
    </contour>
  </outline>
</glyph>
<glyph name="Lslash" format="2">
  <advance width="527.0"/>
  <unicode hex="0141"/>
  <anchor x="264.0" y="0.0" name="bottom"/>
  <anchor x="294.0" y="-83.0" name="btm"/>
  <anchor x="264.0" y="372.0" name="center"/>
  <anchor x="149.0" y="830.0" name="top"/>
  <anchor x="507.0" y="743.0" name="topright"/>
  <outline>
    <contour>
      <point x="9.0" y="344.0" type="line"/>
      <point x="35.0" y="277.0" type="line"/>
      <point x="422.0" y="419.0" type="line"/>
      <point x="396.0" y="487.0" type="line"/>
    </contour>
    <component base="L"/>
  </outline>
</glyph>
<glyph name="lslash" format="2">
  <advance width="299.0"/>
  <unicode hex="0142"/>
  <anchor x="150.0" y="0.0" name="bottom"/>
  <anchor x="141.0" y="-83.0" name="btm"/>
  <anchor x="150.0" y="492.0" name="center"/>
  <anchor x="151.0" y="878.0" name="top"/>
  <anchor x="279.0" y="983.0" name="topright"/>
  <outline>
    <contour>
      <point x="15.0" y="377.0" type="line"/>
      <point x="291.0" y="483.0" type="line"/>
      <point x="291.0" y="562.0" type="line"/>
      <point x="15.0" y="451.0" type="line"/>
    </contour>
    <component base="l"/>
  </outline>
</glyph>
<glyph name="Eng" format="2">
  <advance width="776.2"/>
  <unicode hex="014A"/>
  <outline>
    <contour>
      <point x="208.822" y="0.0" type="line"/>
      <point x="208.822" y="447.511" type="line"/>
      <point x="196.911" y="667.956" type="line"/>
      <point x="150.978" y="667.956" type="line"/>
      <point x="260.8" y="466.867" type="line"/>
      <point x="558.911" y="19.689" type="line"/>
      <point x="558.911" y="-48.311"/>
      <point x="455.689" y="-124.244"/>
      <point x="372.689" y="-148.244" type="curve"/>
      <point x="400.933" y="-201.022" type="line"/>
      <point x="508.911" y="-189.267"/>
      <point x="642.311" y="-111.089"/>
      <point x="670.022" y="18.178" type="curve" smooth="yes"/>
      <point x="684.733" y="84.822"/>
      <point x="682.556" y="160.622"/>
      <point x="682.556" y="251.8" type="curve" smooth="yes"/>
      <point x="682.556" y="743.0" type="line"/>
      <point x="567.2" y="743.0" type="line"/>
      <point x="567.2" y="283.556" type="line"/>
      <point x="581.156" y="77.444" type="line"/>
      <point x="617.844" y="77.444" type="line"/>
      <point x="521.8" y="258.311" type="line"/>
      <point x="202.533" y="743.0" type="line"/>
      <point x="93.467" y="743.0" type="line"/>
      <point x="94.467" y="0.0" type="line"/>
    </contour>
  </outline>
</glyph>
<glyph name="eng" format="2">
  <advance width="625.0"/>
  <unicode hex="014B"/>
  <outline>
    <contour>
      <point x="86.0" y="0.0" type="line"/>
      <point x="193.0" y="0.0" type="line"/>
      <point x="193.0" y="424.0" type="line"/>
      <point x="238.0" y="457.0"/>
      <point x="297.0" y="474.0"/>
      <point x="333.0" y="475.0" type="curve" smooth="yes"/>
      <point x="417.0" y="479.0"/>
      <point x="434.0" y="438.0"/>
      <point x="434.0" y="347.0" type="curve" smooth="yes"/>
      <point x="434.0" y="-22.0" type="line" smooth="yes"/>
      <point x="434.0" y="-138.0"/>
      <point x="421.0" y="-172.0"/>
      <point x="364.0" y="-172.0" type="curve" smooth="yes"/>
      <point x="353.0" y="-172.0"/>
      <point x="322.0" y="-170.0"/>
      <point x="312.0" y="-167.0" type="curve"/>
      <point x="312.0" y="-241.0" type="line"/>
      <point x="320.0" y="-245.0"/>
      <point x="368.0" y="-248.0"/>
      <point x="387.0" y="-248.0" type="curve" smooth="yes"/>
      <point x="489.0" y="-248.0"/>
      <point x="542.0" y="-163.0"/>
      <point x="542.0" y="-8.0" type="curve" smooth="yes"/>
      <point x="542.0" y="349.0" type="line" smooth="yes"/>
      <point x="541.0" y="512.0"/>
      <point x="496.0" y="568.0"/>
      <point x="376.0" y="565.0" type="curve"/>
      <point x="303.0" y="563.0"/>
      <point x="223.0" y="525.0"/>
      <point x="182.0" y="497.0" type="curve"/>
      <point x="181.0" y="556.0" type="line"/>
      <point x="86.0" y="556.0" type="line"/>
    </contour>
  </outline>
</glyph>
<glyph name="OE" format="2">
  <advance width="1007.0"/>
  <unicode hex="0152"/>
  <anchor x="504.0" y="0.0" name="bottom"/>
  <anchor x="516.0" y="-83.0" name="btm"/>
  <anchor x="516.0" y="830.0" name="top"/>
  <outline>
    <contour>
      <point x="49.0" y="375.0" type="curve" smooth="yes"/>
      <point x="44.0" y="153.0"/>
      <point x="173.0" y="-12.0"/>
      <point x="378.0" y="-8.0" type="curve" smooth="yes"/>
      <point x="454.0" y="-6.0"/>
      <point x="500.0" y="16.0"/>
      <point x="546.0" y="49.0" type="curve"/>
      <point x="545.0" y="152.0" type="line"/>
      <point x="507.0" y="99.0"/>
      <point x="452.0" y="74.0"/>
      <point x="383.0" y="74.0" type="curve" smooth="yes"/>
      <point x="235.0" y="74.0"/>
      <point x="158.0" y="213.0"/>
      <point x="158.0" y="370.0" type="curve" smooth="yes"/>
      <point x="158.0" y="578.0"/>
      <point x="269.0" y="668.0"/>
      <point x="391.0" y="668.0" type="curve" smooth="yes"/>
      <point x="463.0" y="668.0"/>
      <point x="513.0" y="647.0"/>
      <point x="548.0" y="601.0" type="curve"/>
      <point x="538.0" y="715.0" type="line"/>
      <point x="495.0" y="745.0"/>
      <point x="436.0" y="752.0"/>
      <point x="393.0" y="751.0" type="curve" smooth="yes"/>
      <point x="193.0" y="744.0"/>
      <point x="54.0" y="621.0"/>
    </contour>
    <contour>
      <point x="508.0" y="0.0" type="line"/>
      <point x="971.0" y="0.0" type="line"/>
      <point x="971.0" y="85.0" type="line"/>
      <point x="617.0" y="85.0" type="line"/>
      <point x="617.0" y="341.0" type="line"/>
      <point x="851.0" y="341.0" type="line"/>
      <point x="851.0" y="425.0" type="line"/>
      <point x="617.0" y="425.0" type="line"/>
      <point x="617.0" y="659.0" type="line"/>
      <point x="936.0" y="659.0" type="line"/>
      <point x="936.0" y="743.0" type="line"/>
      <point x="508.0" y="743.0" type="line"/>
    </contour>
  </outline>
</glyph>
<glyph name="oe" format="2">
  <advance width="941.55556"/>
  <unicode hex="0153"/>
  <anchor x="470.778" y="0.0" name="bottom"/>
  <anchor x="494.733" y="-83.0" name="btm"/>
  <anchor x="494.733" y="830.0" name="top"/>
  <outline>
    <contour>
      <point x="683.533" y="-8.0" type="curve" smooth="yes"/>
      <point x="753.911" y="-8.0"/>
      <point x="838.733" y="13.067"/>
      <point x="875.733" y="43.067" type="curve"/>
      <point x="854.844" y="109.333" type="line"/>
      <point x="826.489" y="92.511"/>
      <point x="750.844" y="79.511"/>
      <point x="712.667" y="79.511" type="curve" smooth="yes"/>
      <point x="622.844" y="79.511"/>
      <point x="553.511" y="120.4"/>
      <point x="548.044" y="246.067" type="curve"/>
      <point x="542.578" y="424.8"/>
      <point x="602.022" y="482.311"/>
      <point x="680.067" y="482.311" type="curve" smooth="yes"/>
      <point x="771.911" y="482.311"/>
      <point x="790.444" y="406.356"/>
      <point x="785.444" y="326.0" type="curve"/>
      <point x="511.711" y="326.0" type="line"/>
      <point x="501.711" y="252.689" type="line"/>
      <point x="888.556" y="252.689" type="line"/>
      <point x="893.378" y="277.689"/>
      <point x="893.733" y="311.4"/>
      <point x="893.733" y="352.578" type="curve" smooth="yes"/>
      <point x="890.444" y="496.489"/>
      <point x="797.6" y="565.822"/>
      <point x="685.711" y="564.0" type="curve" smooth="yes"/>
      <point x="521.467" y="562.178"/>
      <point x="435.222" y="441.178"/>
      <point x="435.222" y="279.178" type="curve" smooth="yes"/>
      <point x="435.222" y="99.178"/>
      <point x="523.4" y="-8.0"/>
    </contour>
    <contour>
      <point x="295.733" y="73.689" type="curve" smooth="yes"/>
      <point x="205.222" y="75.511"/>
      <point x="164.711" y="172.556"/>
      <point x="164.711" y="288.467" type="curve" smooth="yes"/>
      <point x="164.711" y="412.911"/>
      <point x="211.333" y="483.311"/>
      <point x="301.378" y="481.489" type="curve" smooth="yes"/>
      <point x="394.533" y="480.489"/>
      <point x="435.044" y="387.089"/>
      <point x="435.044" y="271.533" type="curve" smooth="yes"/>
      <point x="435.044" y="146.378"/>
      <point x="388.244" y="71.867"/>
    </contour>
    <contour>
      <point x="293.556" y="-8.0" type="curve" smooth="yes"/>
      <point x="438.4" y="-8.0"/>
      <point x="544.867" y="88.0"/>
      <point x="547.867" y="267.0" type="curve" smooth="yes"/>
      <point x="549.044" y="425.0"/>
      <point x="484.933" y="564.0"/>
      <point x="304.378" y="564.0" type="curve"/>
      <point x="158.711" y="564.0"/>
      <point x="49.822" y="469.0"/>
      <point x="47.0" y="290.0" type="curve" smooth="yes"/>
      <point x="44.822" y="131.0"/>
      <point x="112.356" y="-8.0"/>
    </contour>
  </outline>
</glyph>
<glyph name="Tbar" format="2">
  <advance width="636.0"/>
  <unicode hex="0166"/>
  <anchor x="318.0" y="0.0" name="bottom"/>
  <anchor x="314.0" y="-83.0" name="btm"/>
  <anchor x="318.0" y="372.0" name="center"/>
  <anchor x="314.0" y="830.0" name="top"/>
  <outline>
    <contour>
      <point x="122.0" y="318.0" type="line"/>
      <point x="517.0" y="318.0" type="line"/>
      <point x="517.0" y="389.0" type="line"/>
      <point x="122.0" y="389.0" type="line"/>
    </contour>
    <component base="T"/>
  </outline>
</glyph>
<glyph name="tbar" format="2">
  <advance width="420.51111"/>
  <unicode hex="0167"/>
  <anchor x="210.667" y="0.0" name="bottom"/>
  <anchor x="242.311" y="-83.0" name="btm"/>
  <anchor x="210.667" y="279.0" name="center"/>
  <anchor x="188.8" y="913.0" name="top"/>
  <anchor x="400.511" y="557.0" name="topright"/>
  <outline>
    <contour>
      <point x="40.0" y="284.6" type="line"/>
      <point x="381.222" y="284.6" type="line"/>
      <point x="381.222" y="369.044" type="line"/>
      <point x="40.0" y="369.044" type="line"/>
    </contour>
    <component base="t"/>
  </outline>
</glyph>
<glyph name="Schwa" format="2">
  <advance width="747.71111"/>
  <unicode hex="018F"/>
  <anchor x="374.356" y="0.0" name="bottom"/>
  <anchor x="361.0" y="-83.0" name="btm"/>
  <anchor x="357.0" y="831.0" name="top"/>
  <outline>
    <contour>
      <point x="342.889" y="-8.0" type="curve" smooth="yes"/>
      <point x="575.889" y="-8.0"/>
      <point x="698.889" y="140.0"/>
      <point x="698.889" y="372.0" type="curve" smooth="yes"/>
      <point x="698.889" y="624.956"/>
      <point x="544.289" y="753.467"/>
      <point x="361.644" y="752.0" type="curve" smooth="yes"/>
      <point x="239.867" y="751.356"/>
      <point x="143.222" y="716.044"/>
      <point x="85.533" y="660.667" type="curve"/>
      <point x="113.422" y="567.689" type="line"/>
      <point x="169.356" y="624.889"/>
      <point x="251.178" y="659.244"/>
      <point x="359.644" y="659.244" type="curve" smooth="yes"/>
      <point x="486.622" y="659.244"/>
      <point x="578.6" y="556.556"/>
      <point x="578.6" y="381.0" type="curve" smooth="yes"/>
      <point x="578.6" y="212.911"/>
      <point x="508.444" y="81.4"/>
      <point x="355.533" y="81.933" type="curve" smooth="yes"/>
      <point x="209.2" y="82.289"/>
      <point x="156.289" y="203.0"/>
      <point x="162.289" y="313.0" type="curve"/>
      <point x="613.933" y="313.0" type="line"/>
      <point x="626.933" y="405.911" type="line"/>
      <point x="55.822" y="405.911" type="line"/>
      <point x="51.822" y="374.911"/>
      <point x="48.822" y="354.911"/>
      <point x="48.822" y="300.911" type="curve" smooth="yes"/>
      <point x="48.822" y="86.711"/>
      <point x="191.889" y="-8.0"/>
    </contour>
  </outline>
</glyph>
<glyph name="florin" format="2">
  <advance width="571.88889"/>
  <unicode hex="0192"/>
  <outline>
    <contour>
      <point x="147.8" y="-174.0" type="line"/>
      <point x="261.511" y="-174.0" type="line"/>
      <point x="316.156" y="470.733" type="line"/>
      <point x="460.2" y="470.733" type="line"/>
      <point x="466.556" y="557.0" type="line"/>
      <point x="322.689" y="557.0" type="line"/>
      <point x="329.333" y="615.622" type="line" smooth="yes"/>
      <point x="339.8" y="705.489"/>
      <point x="381.911" y="731.556"/>
      <point x="432.733" y="731.556" type="curve" smooth="yes"/>
      <point x="476.022" y="731.556"/>
      <point x="502.844" y="727.556"/>
      <point x="513.022" y="722.2" type="curve"/>
      <point x="519.556" y="813.644" type="line"/>
      <point x="512.022" y="816.822"/>
      <point x="486.711" y="822.822"/>
      <point x="443.533" y="822.822" type="curve" smooth="yes"/>
      <point x="331.822" y="822.822"/>
      <point x="233.622" y="761.244"/>
      <point x="213.156" y="589.6" type="curve" smooth="yes"/>
      <point x="209.156" y="557.0" type="line"/>
      <point x="109.644" y="531.422" type="line"/>
      <point x="105.289" y="470.733" type="line"/>
      <point x="202.8" y="470.733" type="line"/>
    </contour>
  </outline>
</glyph>
<glyph name="Ezh" format="2">
  <advance width="555.0"/>
  <unicode hex="01B7"/>
  <anchor x="278.0" y="0.0" name="bottom"/>
  <anchor x="285.0" y="830.0" name="top"/>
  <outline>
    <contour>
      <point x="184.0" y="-7.0" type="curve" smooth="yes"/>
      <point x="404.0" y="-7.0"/>
      <point x="493.0" y="100.0"/>
      <point x="493.0" y="232.0" type="curve" smooth="yes"/>
      <point x="493.0" y="309.0"/>
      <point x="432.0" y="419.0"/>
      <point x="282.0" y="419.0" type="curve"/>
      <point x="475.0" y="663.0" type="line"/>
      <point x="477.0" y="743.0" type="line"/>
      <point x="87.0" y="743.0" type="line"/>
      <point x="87.0" y="659.0" type="line"/>
      <point x="373.0" y="659.0" type="line"/>
      <point x="316.0" y="594.0" type="line"/>
      <point x="187.0" y="425.0" type="line"/>
      <point x="188.0" y="328.0" type="line"/>
      <point x="225.0" y="364.0" type="line"/>
      <point x="303.0" y="367.0"/>
      <point x="385.0" y="327.0"/>
      <point x="385.0" y="226.0" type="curve" smooth="yes"/>
      <point x="385.0" y="115.0"/>
      <point x="314.0" y="73.0"/>
      <point x="178.0" y="73.0" type="curve" smooth="yes"/>
      <point x="148.0" y="73.0"/>
      <point x="108.0" y="76.0"/>
      <point x="80.0" y="79.0" type="curve"/>
      <point x="82.0" y="-1.0" type="line"/>
      <point x="118.0" y="-4.0"/>
      <point x="148.0" y="-7.0"/>
    </contour>
  </outline>
</glyph>
<glyph name="jdotless" format="2">
  <advance width="280.0"/>
  <unicode hex="0237"/>
  <anchor x="140.0" y="-273.0" name="bottom"/>
  <anchor x="150.0" y="830.0" name="top"/>
  <outline>
    <contour>
      <point x="-39.0" y="-241.0" type="line"/>
      <point x="-31.0" y="-246.0"/>
      <point x="14.0" y="-248.0"/>
      <point x="29.0" y="-248.0" type="curve" smooth="yes"/>
      <point x="140.0" y="-248.0"/>
      <point x="202.0" y="-174.0"/>
      <point x="202.0" y="18.0" type="curve" smooth="yes"/>
      <point x="202.0" y="556.0" type="line"/>
      <point x="94.0" y="556.0" type="line"/>
      <point x="94.0" y="-23.0" type="line" smooth="yes"/>
      <point x="94.0" y="-121.0"/>
      <point x="77.0" y="-172.0"/>
      <point x="19.0" y="-172.0" type="curve" smooth="yes"/>
      <point x="2.0" y="-172.0"/>
      <point x="-28.0" y="-167.0"/>
      <point x="-39.0" y="-162.0" type="curve"/>
    </contour>
  </outline>
</glyph>
<glyph name="schwa" format="2">
  <advance width="548.0"/>
  <unicode hex="0259"/>
  <anchor x="256.496" y="-273.078" name="bottom"/>
  <anchor x="254.0" y="-83.0" name="btm"/>
  <anchor x="255.0" y="831.0" name="top"/>
  <outline>
    <contour>
      <point x="254.0" y="565.0" type="curve" smooth="yes"/>
      <point x="187.0" y="565.0"/>
      <point x="103.0" y="545.0"/>
      <point x="66.0" y="515.0" type="curve"/>
      <point x="87.0" y="453.0" type="line"/>
      <point x="114.0" y="470.0"/>
      <point x="188.0" y="484.0"/>
      <point x="225.0" y="484.0" type="curve" smooth="yes"/>
      <point x="316.0" y="484.0"/>
      <point x="389.0" y="443.0"/>
      <point x="395.0" y="312.0" type="curve" smooth="yes"/>
      <point x="402.0" y="129.0"/>
      <point x="338.0" y="69.0"/>
      <point x="258.0" y="69.0" type="curve" smooth="yes"/>
      <point x="160.0" y="69.0"/>
      <point x="143.0" y="151.0"/>
      <point x="148.0" y="231.0" type="curve"/>
      <point x="427.0" y="231.0" type="line"/>
      <point x="437.0" y="302.0" type="line"/>
      <point x="52.0" y="302.0" type="line"/>
      <point x="47.0" y="277.0"/>
      <point x="47.0" y="244.0"/>
      <point x="47.0" y="203.0" type="curve" smooth="yes"/>
      <point x="51.0" y="63.0"/>
      <point x="141.0" y="-9.0"/>
      <point x="252.0" y="-7.0" type="curve" smooth="yes"/>
      <point x="415.0" y="-5.0"/>
      <point x="501.0" y="116.0"/>
      <point x="501.0" y="278.0" type="curve" smooth="yes"/>
      <point x="501.0" y="458.0"/>
      <point x="412.0" y="565.0"/>
    </contour>
  </outline>
</glyph>
<glyph name="ezh" format="2">
  <advance width="459.0"/>
  <unicode hex="0292"/>
  <anchor x="230.0" y="0.0" name="bottom"/>
  <anchor x="220.0" y="831.0" name="top"/>
  <outline>
    <contour>
      <point x="144.0" y="-147.0" type="curve" smooth="yes"/>
      <point x="322.0" y="-147.0"/>
      <point x="419.0" y="-53.0"/>
      <point x="419.0" y="79.0" type="curve" smooth="yes"/>
      <point x="419.0" y="183.0"/>
      <point x="334.0" y="238.0"/>
      <point x="229.0" y="252.0" type="curve"/>
      <point x="411.0" y="516.0" type="line"/>
      <point x="381.0" y="557.0" type="line"/>
      <point x="43.0" y="557.0" type="line"/>
      <point x="43.0" y="480.0" type="line"/>
      <point x="289.0" y="480.0" type="line"/>
      <point x="238.0" y="427.0" type="line"/>
      <point x="112.0" y="230.0" type="line"/>
      <point x="160.0" y="180.0" type="line"/>
      <point x="243.0" y="180.0"/>
      <point x="311.0" y="164.0"/>
      <point x="311.0" y="67.0" type="curve" smooth="yes"/>
      <point x="311.0" y="-13.0"/>
      <point x="245.0" y="-72.0"/>
      <point x="127.0" y="-72.0" type="curve" smooth="yes"/>
      <point x="94.0" y="-72.0"/>
      <point x="72.0" y="-69.0"/>
      <point x="43.0" y="-64.0" type="curve"/>
      <point x="44.0" y="-143.0" type="line"/>
      <point x="77.0" y="-144.0"/>
      <point x="109.0" y="-147.0"/>
    </contour>
  </outline>
</glyph>
<glyph name="commaturnedmod" format="2">
  <unicode hex="02BB"/>
  <outline>
    <contour>
      <point x="6.0" y="628.0" type="curve" smooth="yes"/>
      <point x="11.0" y="628.0" type="line" smooth="yes"/>
      <point x="26.0" y="628.0"/>
      <point x="65.0" y="635.0"/>
      <point x="65.0" y="676.0" type="curve" smooth="yes"/>
      <point x="65.0" y="699.0"/>
      <point x="54.0" y="709.0"/>
      <point x="42.0" y="717.0" type="curve" smooth="yes"/>
      <point x="30.0" y="725.0"/>
      <point x="16.0" y="735.0"/>
      <point x="16.0" y="757.0" type="curve" smooth="yes"/>
      <point x="16.0" y="791.0"/>
      <point x="33.0" y="825.0"/>
      <point x="58.0" y="836.0" type="curve"/>
      <point x="58.0" y="843.0" type="line"/>
      <point x="25.0" y="864.0" type="line"/>
      <point x="23.0" y="864.0" type="line"/>
      <point x="10.0" y="860.0"/>
      <point x="-68.0" y="805.0"/>
      <point x="-68.0" y="716.0" type="curve" smooth="yes"/>
      <point x="-68.0" y="659.0"/>
      <point x="-39.0" y="628.0"/>
    </contour>
  </outline>
</glyph>
<glyph name="circumflex" format="2">
  <advance width="408.0"/>
  <unicode hex="02C6"/>
  <anchor x="206.0" y="830.0" name="_top"/>
  <outline>
    <contour>
      <point x="84.0" y="631.0" type="line"/>
      <point x="206.0" y="740.0" type="line"/>
      <point x="319.0" y="632.0" type="line"/>
      <point x="385.0" y="659.0" type="line"/>
      <point x="254.0" y="821.0" type="line"/>
      <point x="158.0" y="821.0" type="line"/>
      <point x="23.0" y="659.0" type="line"/>
    </contour>
  </outline>
</glyph>
<glyph name="caron" format="2">
  <advance width="402.0"/>
  <unicode hex="02C7"/>
  <anchor x="205.0" y="816.0" name="_top"/>
  <outline>
    <contour>
      <point x="23.0" y="794.0" type="line"/>
      <point x="158.0" y="631.0" type="line"/>
      <point x="254.0" y="631.0" type="line"/>
      <point x="385.0" y="793.0" type="line"/>
      <point x="319.0" y="821.0" type="line"/>
      <point x="206.0" y="712.0" type="line"/>
      <point x="84.0" y="821.0" type="line"/>
    </contour>
  </outline>
</glyph>
<glyph name="verticallinemod" format="2">
  <unicode hex="02C8"/>
  <outline>
    <contour>
      <point x="51.067" y="1040.0" type="line"/>
      <point x="-51.067" y="1040.0" type="line"/>
      <point x="-30.711" y="664.911" type="line"/>
      <point x="29.533" y="664.911" type="line"/>
    </contour>
  </outline>
</glyph>
<glyph name="firsttonechinese" format="2">
  <advance width="320.62222"/>
  <unicode hex="02C9"/>
  <anchor x="159.133" y="830.178" name="_top"/>
  <outline>
    <contour>
      <point x="24.533" y="866.289" type="line"/>
      <point x="296.089" y="866.289" type="line"/>
      <point x="296.089" y="949.022" type="line"/>
      <point x="24.533" y="949.022" type="line"/>
    </contour>
  </outline>
</glyph>
<glyph name="secondtonechinese" format="2">
  <unicode hex="02CA"/>
  <anchor x="0.0" y="830.0" name="_top"/>
  <anchor x="0.0" y="983.0" name="top"/>
  <outline>
    <contour>
      <point x="-9.0" y="632.0" type="line"/>
      <point x="26.0" y="646.0"/>
      <point x="154.0" y="764.0"/>
      <point x="178.0" y="805.0" type="curve"/>
      <point x="101.0" y="871.0" type="line"/>
      <point x="54.0" y="803.0"/>
      <point x="-8.0" y="737.0"/>
      <point x="-64.0" y="676.0" type="curve"/>
    </contour>
  </outline>
</glyph>
<glyph name="breve" format="2">
  <unicode hex="02D8"/>
  <anchor x="191.0" y="830.0" name="_top"/>
  <outline>
    <contour>
      <point x="191.0" y="639.0" type="curve" smooth="yes"/>
      <point x="297.0" y="639.0"/>
      <point x="367.0" y="730.0"/>
      <point x="359.0" y="823.0" type="curve"/>
      <point x="286.0" y="823.0" type="line"/>
      <point x="285.0" y="810.0"/>
      <point x="285.0" y="723.0"/>
      <point x="192.0" y="723.0" type="curve" smooth="yes"/>
      <point x="99.0" y="723.0"/>
      <point x="100.0" y="810.0"/>
      <point x="99.0" y="823.0" type="curve"/>
      <point x="24.0" y="823.0" type="line"/>
      <point x="16.0" y="730.0"/>
      <point x="80.0" y="639.0"/>
    </contour>
  </outline>
</glyph>
<glyph name="dotaccent" format="2">
  <advance width="197.0"/>
  <unicode hex="02D9"/>
  <anchor x="99.0" y="830.0" name="_top"/>
  <outline>
    <contour>
      <point x="93.0" y="658.0" type="curve" smooth="yes"/>
      <point x="134.0" y="658.0"/>
      <point x="172.0" y="689.0"/>
      <point x="172.0" y="734.0" type="curve" smooth="yes"/>
      <point x="172.0" y="771.0"/>
      <point x="150.0" y="800.0"/>
      <point x="104.0" y="800.0" type="curve" smooth="yes"/>
      <point x="65.0" y="800.0"/>
      <point x="24.0" y="766.0"/>
      <point x="24.0" y="724.0" type="curve" smooth="yes"/>
      <point x="24.0" y="683.0"/>
      <point x="57.0" y="658.0"/>
    </contour>
  </outline>
</glyph>
<glyph name="ring" format="2">
  <advance width="357.0"/>
  <unicode hex="02DA"/>
  <anchor x="178.0" y="830.0" name="_top"/>
  <outline>
    <contour>
      <point x="177.0" y="648.0" type="curve" smooth="yes"/>
      <point x="261.0" y="648.0"/>
      <point x="334.0" y="691.0"/>
      <point x="335.0" y="784.0" type="curve" smooth="yes"/>
      <point x="335.0" y="868.0"/>
      <point x="273.0" y="915.0"/>
      <point x="178.0" y="915.0" type="curve" smooth="yes"/>
      <point x="102.0" y="915.0"/>
      <point x="23.0" y="878.0"/>
      <point x="22.0" y="785.0" type="curve" smooth="yes"/>
      <point x="21.0" y="702.0"/>
      <point x="83.0" y="648.0"/>
    </contour>
    <contour>
      <point x="177.0" y="710.0" type="curve" smooth="yes"/>
      <point x="128.0" y="711.0"/>
      <point x="98.0" y="741.0"/>
      <point x="98.0" y="785.0" type="curve" smooth="yes"/>
      <point x="98.0" y="838.0"/>
      <point x="138.0" y="854.0"/>
      <point x="177.0" y="854.0" type="curve" smooth="yes"/>
      <point x="224.0" y="854.0"/>
      <point x="260.0" y="829.0"/>
      <point x="260.0" y="784.0" type="curve" smooth="yes"/>
      <point x="260.0" y="731.0"/>
      <point x="226.0" y="709.0"/>
    </contour>
  </outline>
</glyph>
<glyph name="ogonek" format="2">
  <advance width="313.0"/>
  <unicode hex="02DB"/>
  <outline>
    <contour>
      <point x="147.0" y="-250.0" type="curve" smooth="yes"/>
      <point x="215.0" y="-250.0"/>
      <point x="260.0" y="-229.0"/>
      <point x="285.0" y="-213.0" type="curve"/>
      <point x="276.0" y="-155.0" type="line"/>
      <point x="260.0" y="-162.0"/>
      <point x="220.0" y="-179.0"/>
      <point x="184.0" y="-179.0" type="curve" smooth="yes"/>
      <point x="142.0" y="-179.0"/>
      <point x="121.0" y="-163.0"/>
      <point x="121.0" y="-128.0" type="curve" smooth="yes"/>
      <point x="120.0" y="-80.0"/>
      <point x="192.0" y="-21.0"/>
      <point x="250.0" y="2.0" type="curve"/>
      <point x="202.0" y="4.0" type="line"/>
      <point x="153.0" y="-1.0" type="line"/>
      <point x="87.0" y="-31.0"/>
      <point x="24.0" y="-87.0"/>
      <point x="25.0" y="-147.0" type="curve" smooth="yes"/>
      <point x="26.0" y="-213.0"/>
      <point x="85.0" y="-250.0"/>
    </contour>
  </outline>
</glyph>
<glyph name="tilde" format="2">
  <advance width="453.88889"/>
  <unicode hex="02DC"/>
  <anchor x="228.889" y="830.178" name="_top"/>
  <outline>
    <contour>
      <point x="66.311" y="675.111" type="line"/>
      <point x="85.956" y="696.467"/>
      <point x="116.6" y="723.467"/>
      <point x="153.644" y="723.467" type="curve" smooth="yes"/>
      <point x="205.533" y="723.467"/>
      <point x="215.711" y="656.0"/>
      <point x="298.0" y="656.0" type="curve" smooth="yes"/>
      <point x="360.667" y="656.0"/>
      <point x="407.844" y="699.067"/>
      <point x="432.311" y="753.2" type="curve"/>
      <point x="386.933" y="792.044" type="line"/>
      <point x="367.289" y="769.511"/>
      <point x="342.289" y="742.978"/>
      <point x="300.244" y="742.978" type="curve" smooth="yes"/>
      <point x="250.244" y="742.978"/>
      <point x="235.489" y="809.444"/>
      <point x="156.422" y="809.444" type="curve" smooth="yes"/>
      <point x="94.578" y="809.444"/>
      <point x="43.578" y="762.089"/>
      <point x="21.756" y="710.778" type="curve"/>
    </contour>
  </outline>
</glyph>
<glyph name="hungarumlaut" format="2">
  <advance width="505.0"/>
  <unicode hex="02DD"/>
  <anchor x="203.0" y="816.0" name="_top"/>
  <outline>
    <contour>
      <point x="71.0" y="644.0" type="line"/>
      <point x="108.0" y="669.0"/>
      <point x="196.0" y="772.0"/>
      <point x="226.0" y="824.0" type="curve"/>
      <point x="147.0" y="878.0" type="line"/>
      <point x="21.0" y="679.0" type="line"/>
    </contour>
    <contour>
      <point x="313.0" y="644.0" type="line"/>
      <point x="353.0" y="667.0"/>
      <point x="445.0" y="772.0"/>
      <point x="470.0" y="820.0" type="curve"/>
      <point x="395.0" y="874.0" type="line"/>
      <point x="264.0" y="679.0" type="line"/>
    </contour>
  </outline>
</glyph>
<glyph name="gravecomb" format="2">
  <unicode hex="0300"/>
  <anchor x="0.0" y="830.0" name="_top"/>
  <anchor x="-67.0" y="871.0" name="top"/>
  <outline>
    <contour>
      <point x="54.0" y="676.0" type="line"/>
      <point x="-1.0" y="738.0"/>
      <point x="-65.0" y="811.0"/>
      <point x="-111.0" y="871.0" type="curve"/>
      <point x="-188.0" y="805.0" type="line"/>
      <point x="-155.0" y="755.0"/>
      <point x="-40.0" y="650.0"/>
      <point x="0.0" y="632.0" type="curve"/>
    </contour>
  </outline>
</glyph>
<glyph name="acutecomb" format="2">
  <unicode hex="0301"/>
  <anchor x="0.0" y="830.0" name="_top"/>
  <anchor x="-59.0" y="993.0" name="top"/>
  <outline>
    <contour>
      <point x="-31.0" y="635.0" type="line"/>
      <point x="4.0" y="649.0"/>
      <point x="132.0" y="781.0"/>
      <point x="156.0" y="822.0" type="curve"/>
      <point x="79.0" y="884.0" type="line"/>
      <point x="32.0" y="816.0"/>
      <point x="-30.0" y="740.0"/>
      <point x="-86.0" y="679.0" type="curve"/>
    </contour>
  </outline>
</glyph>
<glyph name="circumflexcomb" format="2">
  <unicode hex="0302"/>
  <anchor x="0.0" y="830.0" name="_top"/>
  <anchor x="0.0" y="1057.0" name="top"/>
  <outline>
    <contour>
      <point x="-130.0" y="621.0" type="line"/>
      <point x="0.0" y="730.0" type="line"/>
      <point x="125.0" y="622.0" type="line"/>
      <point x="181.0" y="649.0" type="line"/>
      <point x="47.0" y="819.0" type="line"/>
      <point x="-42.0" y="819.0" type="line"/>
      <point x="-181.0" y="649.0" type="line"/>
    </contour>
  </outline>
</glyph>
<glyph name="tildecomb" format="2">
  <unicode hex="0303"/>
  <anchor x="0.0" y="830.0" name="_top"/>
  <anchor x="0.0" y="1007.0" name="top"/>
  <outline>
    <contour>
      <point x="65.0" y="646.0" type="curve" smooth="yes"/>
      <point x="117.0" y="646.0"/>
      <point x="165.0" y="688.0"/>
      <point x="177.0" y="744.0" type="curve"/>
      <point x="134.0" y="771.0" type="line"/>
      <point x="122.0" y="746.0"/>
      <point x="101.0" y="728.0"/>
      <point x="63.0" y="728.0" type="curve" smooth="yes"/>
      <point x="19.0" y="728.0"/>
      <point x="3.0" y="795.0"/>
      <point x="-65.0" y="795.0" type="curve" smooth="yes"/>
      <point x="-127.0" y="795.0"/>
      <point x="-159.0" y="743.0"/>
      <point x="-177.0" y="694.0" type="curve"/>
      <point x="-137.0" y="670.0" type="line"/>
      <point x="-124.0" y="694.0"/>
      <point x="-108.0" y="714.0"/>
      <point x="-64.0" y="714.0" type="curve" smooth="yes"/>
      <point x="-19.0" y="714.0"/>
      <point x="-7.0" y="646.0"/>
    </contour>
  </outline>
</glyph>
<glyph name="macroncomb" format="2">
  <unicode hex="0304"/>
  <anchor x="0.0" y="830.0" name="_top"/>
  <anchor x="0.0" y="985.0" name="top"/>
  <outline>
    <contour>
      <point x="-133.0" y="660.0" type="line"/>
      <point x="135.0" y="660.0" type="line"/>
      <point x="135.0" y="739.0" type="line"/>
      <point x="-133.0" y="739.0" type="line"/>
    </contour>
  </outline>
</glyph>
<glyph name="brevecomb" format="2">
  <unicode hex="0306"/>
  <anchor x="0.0" y="830.0" name="_top"/>
  <anchor x="0.0" y="983.0" name="top"/>
  <outline>
    <contour>
      <point x="0.0" y="639.0" type="curve" smooth="yes"/>
      <point x="106.0" y="639.0"/>
      <point x="176.0" y="730.0"/>
      <point x="168.0" y="823.0" type="curve"/>
      <point x="95.0" y="823.0" type="line"/>
      <point x="94.0" y="810.0"/>
      <point x="94.0" y="723.0"/>
      <point x="1.0" y="723.0" type="curve" smooth="yes"/>
      <point x="-92.0" y="723.0"/>
      <point x="-91.0" y="810.0"/>
      <point x="-92.0" y="823.0" type="curve"/>
      <point x="-167.0" y="823.0" type="line"/>
      <point x="-175.0" y="730.0"/>
      <point x="-111.0" y="639.0"/>
    </contour>
  </outline>
</glyph>
<glyph name="dotaccentcomb" format="2">
  <unicode hex="0307"/>
  <anchor x="0.0" y="830.0" name="_top"/>
  <anchor x="0.0" y="987.0" name="top"/>
  <outline>
    <contour>
      <point x="-5.0" y="648.0" type="curve" smooth="yes"/>
      <point x="36.0" y="648.0"/>
      <point x="74.0" y="679.0"/>
      <point x="74.0" y="724.0" type="curve" smooth="yes"/>
      <point x="74.0" y="761.0"/>
      <point x="52.0" y="790.0"/>
      <point x="6.0" y="790.0" type="curve" smooth="yes"/>
      <point x="-33.0" y="790.0"/>
      <point x="-74.0" y="756.0"/>
      <point x="-74.0" y="714.0" type="curve" smooth="yes"/>
      <point x="-74.0" y="673.0"/>
      <point x="-41.0" y="648.0"/>
    </contour>
  </outline>
</glyph>
<glyph name="dieresiscomb" format="2">
  <unicode hex="0308"/>
  <anchor x="0.0" y="830.0" name="_top"/>
  <anchor x="0.0" y="1013.0" name="top"/>
  <outline>
    <contour>
      <point x="-117.0" y="653.0" type="curve" smooth="yes"/>
      <point x="-78.0" y="653.0"/>
      <point x="-42.0" y="682.0"/>
      <point x="-42.0" y="725.0" type="curve" smooth="yes"/>
      <point x="-42.0" y="760.0"/>
      <point x="-61.0" y="789.0"/>
      <point x="-105.0" y="789.0" type="curve" smooth="yes"/>
      <point x="-142.0" y="789.0"/>
      <point x="-181.0" y="757.0"/>
      <point x="-181.0" y="716.0" type="curve" smooth="yes"/>
      <point x="-181.0" y="677.0"/>
      <point x="-152.0" y="653.0"/>
    </contour>
    <contour>
      <point x="107.0" y="653.0" type="curve" smooth="yes"/>
      <point x="146.0" y="653.0"/>
      <point x="182.0" y="682.0"/>
      <point x="182.0" y="725.0" type="curve" smooth="yes"/>
      <point x="182.0" y="760.0"/>
      <point x="163.0" y="789.0"/>
      <point x="119.0" y="789.0" type="curve" smooth="yes"/>
      <point x="81.0" y="789.0"/>
      <point x="43.0" y="757.0"/>
      <point x="43.0" y="716.0" type="curve" smooth="yes"/>
      <point x="43.0" y="677.0"/>
      <point x="72.0" y="653.0"/>
    </contour>
  </outline>
</glyph>
<glyph name="hookabovecomb" format="2">
  <unicode hex="0309"/>
  <anchor x="0.0" y="831.0" name="_top"/>
  <anchor x="0.0" y="1009.0" name="top"/>
  <outline>
    <contour>
      <point x="-23.0" y="643.0" type="curve"/>
      <point x="25.0" y="643.0" type="line"/>
      <point x="17.0" y="668.0"/>
      <point x="29.0" y="695.0"/>
      <point x="37.0" y="702.0" type="curve" smooth="yes"/>
      <point x="65.0" y="727.0"/>
      <point x="102.0" y="741.0"/>
      <point x="102.0" y="797.0" type="curve" smooth="yes"/>
      <point x="102.0" y="855.0"/>
      <point x="54.0" y="891.0"/>
      <point x="-11.0" y="891.0" type="curve" smooth="yes"/>
      <point x="-36.0" y="891.0"/>
      <point x="-77.0" y="885.0"/>
      <point x="-99.0" y="870.0" type="curve"/>
      <point x="-97.0" y="807.0" type="line"/>
      <point x="-85.0" y="814.0"/>
      <point x="-57.0" y="823.0"/>
      <point x="-33.0" y="823.0" type="curve" smooth="yes"/>
      <point x="1.0" y="823.0"/>
      <point x="20.0" y="811.0"/>
      <point x="20.0" y="784.0" type="curve"/>
      <point x="20.0" y="741.0"/>
      <point x="-35.0" y="738.0"/>
      <point x="-35.0" y="689.0" type="curve"/>
      <point x="-35.0" y="671.0"/>
      <point x="-29.0" y="657.0"/>
    </contour>
  </outline>
</glyph>
<glyph name="ringcomb" format="2">
  <unicode hex="030A"/>
  <anchor x="0.0" y="830.0" name="_top"/>
  <anchor x="83.0" y="1037.0" name="top"/>
  <outline>
    <contour>
      <point x="-2.0" y="648.0" type="curve" smooth="yes"/>
      <point x="82.0" y="648.0"/>
      <point x="156.0" y="691.0"/>
      <point x="157.0" y="784.0" type="curve" smooth="yes"/>
      <point x="158.0" y="868.0"/>
      <point x="94.0" y="915.0"/>
      <point x="-1.0" y="915.0" type="curve" smooth="yes"/>
      <point x="-77.0" y="915.0"/>
      <point x="-156.0" y="878.0"/>
      <point x="-157.0" y="785.0" type="curve" smooth="yes"/>
      <point x="-158.0" y="702.0"/>
      <point x="-96.0" y="648.0"/>
    </contour>
    <contour>
      <point x="-2.0" y="710.0" type="curve" smooth="yes"/>
      <point x="-51.0" y="711.0"/>
      <point x="-81.0" y="741.0"/>
      <point x="-81.0" y="785.0" type="curve" smooth="yes"/>
      <point x="-81.0" y="838.0"/>
      <point x="-41.0" y="854.0"/>
      <point x="-2.0" y="854.0" type="curve" smooth="yes"/>
      <point x="45.0" y="854.0"/>
      <point x="81.0" y="829.0"/>
      <point x="81.0" y="784.0" type="curve" smooth="yes"/>
      <point x="81.0" y="731.0"/>
      <point x="47.0" y="709.0"/>
    </contour>
  </outline>
</glyph>
<glyph name="hungarumlautcomb" format="2">
  <unicode hex="030B"/>
  <anchor x="0.0" y="816.0" name="_top"/>
  <anchor x="43.0" y="878.0" name="top"/>
  <outline>
    <contour>
      <point x="-132.0" y="644.0" type="line"/>
      <point x="-95.0" y="669.0"/>
      <point x="-7.0" y="772.0"/>
      <point x="23.0" y="824.0" type="curve"/>
      <point x="-56.0" y="878.0" type="line"/>
      <point x="-98.0" y="812.0"/>
      <point x="-140.0" y="745.0"/>
      <point x="-182.0" y="679.0" type="curve"/>
    </contour>
    <contour>
      <point x="110.0" y="644.0" type="line"/>
      <point x="150.0" y="667.0"/>
      <point x="242.0" y="772.0"/>
      <point x="267.0" y="820.0" type="curve"/>
      <point x="192.0" y="874.0" type="line"/>
      <point x="148.0" y="809.0"/>
      <point x="105.0" y="744.0"/>
      <point x="61.0" y="679.0" type="curve"/>
    </contour>
  </outline>
</glyph>
<glyph name="caroncomb" format="2">
  <unicode hex="030C"/>
  <anchor x="0.0" y="830.0" name="_top"/>
  <anchor x="0.0" y="1018.0" name="top"/>
  <outline>
    <contour>
      <point x="-182.0" y="808.0" type="line"/>
      <point x="-47.0" y="645.0" type="line"/>
      <point x="49.0" y="645.0" type="line"/>
      <point x="180.0" y="807.0" type="line"/>
      <point x="114.0" y="835.0" type="line"/>
      <point x="1.0" y="726.0" type="line"/>
      <point x="-121.0" y="835.0" type="line"/>
    </contour>
  </outline>
</glyph>
<glyph name="dblgravecomb" format="2">
  <unicode hex="030F"/>
  <anchor x="0.0" y="816.0" name="_top"/>
  <anchor x="-44.0" y="878.0" name="top"/>
  <outline>
    <contour>
      <point x="131.0" y="644.0" type="curve"/>
      <point x="181.0" y="679.0" type="line"/>
      <point x="139.0" y="745.0"/>
      <point x="97.0" y="812.0"/>
      <point x="55.0" y="878.0" type="curve"/>
      <point x="-25.0" y="824.0" type="line"/>
      <point x="5.0" y="772.0"/>
      <point x="94.0" y="669.0"/>
    </contour>
    <contour>
      <point x="-112.0" y="644.0" type="curve"/>
      <point x="-63.0" y="679.0" type="line"/>
      <point x="-106.0" y="744.0"/>
      <point x="-150.0" y="809.0"/>
      <point x="-193.0" y="874.0" type="curve"/>
      <point x="-269.0" y="820.0" type="line"/>
      <point x="-243.0" y="772.0"/>
      <point x="-152.0" y="667.0"/>
    </contour>
  </outline>
</glyph>
<glyph name="breveinvertedcomb" format="2">
  <unicode hex="0311"/>
  <anchor x="0.0" y="830.0" name="_top"/>
  <anchor x="0.0" y="983.0" name="top"/>
  <outline>
    <contour>
      <point x="0.0" y="823.0" type="curve" smooth="yes"/>
      <point x="-111.0" y="823.0"/>
      <point x="-175.0" y="732.0"/>
      <point x="-167.0" y="639.0" type="curve"/>
      <point x="-92.0" y="639.0" type="line"/>
      <point x="-91.0" y="652.0"/>
      <point x="-92.0" y="739.0"/>
      <point x="1.0" y="739.0" type="curve" smooth="yes"/>
      <point x="94.0" y="739.0"/>
      <point x="94.0" y="652.0"/>
      <point x="95.0" y="639.0" type="curve"/>
      <point x="168.0" y="639.0" type="line"/>
      <point x="176.0" y="732.0"/>
      <point x="106.0" y="823.0"/>
    </contour>
  </outline>
</glyph>
<glyph name="horncomb" format="2">
  <unicode hex="031B"/>
  <anchor x="86.089" y="557.0" name="_topright"/>
  <anchor x="86.089" y="557.0" name="topright"/>
  <outline>
    <contour>
      <point x="-10.0" y="489.511" type="line"/>
      <point x="87.0" y="489.511"/>
      <point x="182.178" y="565.733"/>
      <point x="182.178" y="662.044" type="curve" smooth="yes"/>
      <point x="182.178" y="669.044"/>
      <point x="181.178" y="676.044"/>
      <point x="180.178" y="684.044" type="curve"/>
      <point x="102.0" y="684.044" type="line"/>
      <point x="103.0" y="680.044"/>
      <point x="102.0" y="674.044"/>
      <point x="101.0" y="667.044" type="curve" smooth="yes"/>
      <point x="95.0" y="626.044"/>
      <point x="72.0" y="556.822"/>
      <point x="-10.0" y="556.822" type="curve"/>
    </contour>
  </outline>
</glyph>
<glyph name="dotbelowcomb" format="2">
  <unicode hex="0323"/>
  <anchor x="-0.533" y="0.0" name="_bottom"/>
  <anchor x="0.0" y="-83.0" name="_btm"/>
  <anchor x="-0.533" y="-215.089" name="bottom"/>
  <outline>
    <contour>
      <point x="-5.356" y="-215.089" type="curve" smooth="yes"/>
      <point x="37.6" y="-215.089"/>
      <point x="76.844" y="-182.133"/>
      <point x="76.844" y="-136.244" type="curve" smooth="yes"/>
      <point x="76.844" y="-97.289"/>
      <point x="52.711" y="-67.222"/>
      <point x="5.289" y="-67.222" type="curve" smooth="yes"/>
      <point x="-35.844" y="-67.222"/>
      <point x="-77.733" y="-102.644"/>
      <point x="-77.733" y="-145.889" type="curve" smooth="yes"/>
      <point x="-77.733" y="-188.311"/>
      <point x="-43.844" y="-215.089"/>
    </contour>
  </outline>
</glyph>
<glyph name="dieresisbelowcomb" format="2">
  <unicode hex="0324"/>
  <anchor x="1.0" y="0.0" name="_bottom"/>
  <anchor x="0.0" y="-83.0" name="_btm"/>
  <anchor x="0.0" y="830.0" name="_top"/>
  <anchor x="1.0" y="-197.0" name="bottom"/>
  <outline>
    <contour>
      <point x="-117.0" y="-197.0" type="curve" smooth="yes"/>
      <point x="-78.0" y="-197.0"/>
      <point x="-42.0" y="-168.0"/>
      <point x="-42.0" y="-125.0" type="curve" smooth="yes"/>
      <point x="-42.0" y="-90.0"/>
      <point x="-61.0" y="-61.0"/>
      <point x="-105.0" y="-61.0" type="curve" smooth="yes"/>
      <point x="-142.0" y="-61.0"/>
      <point x="-181.0" y="-93.0"/>
      <point x="-181.0" y="-134.0" type="curve" smooth="yes"/>
      <point x="-181.0" y="-173.0"/>
      <point x="-152.0" y="-197.0"/>
    </contour>
    <contour>
      <point x="107.0" y="-197.0" type="curve" smooth="yes"/>
      <point x="146.0" y="-197.0"/>
      <point x="182.0" y="-168.0"/>
      <point x="182.0" y="-125.0" type="curve" smooth="yes"/>
      <point x="182.0" y="-90.0"/>
      <point x="163.0" y="-61.0"/>
      <point x="119.0" y="-61.0" type="curve" smooth="yes"/>
      <point x="81.0" y="-61.0"/>
      <point x="43.0" y="-93.0"/>
      <point x="43.0" y="-134.0" type="curve" smooth="yes"/>
      <point x="43.0" y="-173.0"/>
      <point x="72.0" y="-197.0"/>
    </contour>
  </outline>
</glyph>
<glyph name="commaaccentcomb" format="2">
  <unicode hex="0326"/>
  <anchor x="82.0" y="0.0" name="_bottom"/>
  <anchor x="76.0" y="-83.0" name="_btm"/>
  <anchor x="82.0" y="-273.0" name="bottom"/>
  <outline>
    <contour>
      <point x="70.0" y="-273.0" type="line"/>
      <point x="100.0" y="-260.0"/>
      <point x="144.0" y="-211.0"/>
      <point x="144.0" y="-144.0" type="curve" smooth="yes"/>
      <point x="144.0" y="-89.0"/>
      <point x="121.0" y="-51.0"/>
      <point x="97.0" y="-40.0" type="curve"/>
      <point x="20.0" y="-85.0" type="line"/>
      <point x="20.0" y="-109.0" type="line"/>
      <point x="40.0" y="-114.0"/>
      <point x="52.0" y="-145.0"/>
      <point x="52.0" y="-170.0" type="curve" smooth="yes"/>
      <point x="52.0" y="-201.0"/>
      <point x="43.0" y="-229.0"/>
      <point x="33.0" y="-241.0" type="curve"/>
      <point x="33.0" y="-253.0" type="line"/>
    </contour>
  </outline>
</glyph>
<glyph name="cedillacomb" format="2">
  <unicode hex="0327"/>
  <anchor x="-41.867" y="0.0" name="_bottom"/>
  <anchor x="0.0" y="-83.0" name="_btm"/>
  <anchor x="-41.867" y="-227.0" name="bottom"/>
  <outline>
    <contour>
      <point x="-138.178" y="-213.0" type="line"/>
      <point x="-127.0" y="-221.0"/>
      <point x="-90.511" y="-227.0"/>
      <point x="-63.333" y="-227.0" type="curve" smooth="yes"/>
      <point x="-5.733" y="-227.0"/>
      <point x="54.556" y="-190.178"/>
      <point x="55.089" y="-105.533" type="curve" smooth="yes"/>
      <point x="55.444" y="-52.6"/>
      <point x="47.089" y="-8.467"/>
      <point x="26.556" y="15.0" type="curve"/>
      <point x="5.022" y="17.0" type="line"/>
      <point x="-39.778" y="15.0" type="line"/>
      <point x="-30.6" y="-3.644"/>
      <point x="-24.244" y="-32.044"/>
      <point x="-24.6" y="-75.044" type="curve" smooth="yes"/>
      <point x="-24.956" y="-127.511"/>
      <point x="-50.956" y="-148.044"/>
      <point x="-91.178" y="-148.044" type="curve" smooth="yes"/>
      <point x="-106.178" y="-148.044"/>
      <point x="-121.822" y="-147.044"/>
      <point x="-130.644" y="-141.867" type="curve"/>
    </contour>
  </outline>
</glyph>
<glyph name="macronbelowcomb" format="2">
  <unicode hex="0331"/>
  <anchor x="0.0" y="0.0" name="_bottom"/>
  <anchor x="0.0" y="-83.0" name="_btm"/>
  <anchor x="0.0" y="-157.0" name="bottom"/>
  <outline>
    <contour>
      <point x="-134.0" y="-157.0" type="line"/>
      <point x="134.0" y="-157.0" type="line"/>
      <point x="134.0" y="-78.0" type="line"/>
      <point x="-134.0" y="-78.0" type="line"/>
    </contour>
  </outline>
</glyph>
<glyph name="slashshortcomb" format="2">
  <unicode hex="0337"/>
  <anchor x="0.0" y="227.0" name="_center"/>
  <outline>
    <contour>
      <point x="146.222" y="555.0" type="line"/>
      <point x="-234.778" y="-101.0" type="line"/>
      <point x="-144.222" y="-101.0" type="line"/>
      <point x="234.778" y="555.0" type="line"/>
    </contour>
  </outline>
</glyph>
<glyph name="pi" format="2">
  <advance width="763.73333"/>
  <unicode hex="03C0"/>
  <outline>
    <contour>
      <point x="54.378" y="445.622" type="curve"/>
      <point x="109.089" y="417.667" type="line"/>
      <point x="126.444" y="436.133"/>
      <point x="151.911" y="460.956"/>
      <point x="198.622" y="460.956" type="curve" smooth="yes"/>
      <point x="569.867" y="460.133" type="line" smooth="yes"/>
      <point x="660.356" y="460.133"/>
      <point x="710.644" y="496.911"/>
      <point x="715.644" y="593.0" type="curve"/>
      <point x="642.2" y="593.0" type="line"/>
      <point x="633.2" y="567.0"/>
      <point x="611.978" y="557.0"/>
      <point x="571.978" y="557.0" type="curve" smooth="yes"/>
      <point x="215.622" y="557.0" type="line" smooth="yes"/>
      <point x="145.667" y="557.0"/>
      <point x="104.556" y="539.933"/>
      <point x="78.556" y="504.111" type="curve" smooth="yes"/>
      <point x="65.844" y="487.044"/>
      <point x="55.378" y="458.156"/>
    </contour>
    <contour>
      <point x="449.933" y="124.489" type="line"/>
      <point x="444.578" y="41.489"/>
      <point x="474.4" y="-12.0"/>
      <point x="551.356" y="-12.0" type="curve" smooth="yes"/>
      <point x="638.089" y="-12.0"/>
      <point x="703.978" y="53.111"/>
      <point x="715.933" y="112.756" type="curve"/>
      <point x="663.222" y="143.156" type="line"/>
      <point x="648.511" y="116.689"/>
      <point x="616.867" y="76.8"/>
      <point x="586.089" y="76.8" type="curve" smooth="yes"/>
      <point x="567.267" y="76.8"/>
      <point x="551.156" y="89.4"/>
      <point x="553.156" y="131.4" type="curve" smooth="yes"/>
      <point x="569.978" y="529.0" type="line"/>
      <point x="479.0" y="528.0" type="line"/>
    </contour>
    <contour>
      <point x="85.222" y="48.6" type="curve"/>
      <point x="153.956" y="-12.0" type="line"/>
      <point x="184.733" y="-5.533"/>
      <point x="211.444" y="8.0"/>
      <point x="230.622" y="25.0" type="curve" smooth="yes"/>
      <point x="274.622" y="66.0"/>
      <point x="302.733" y="98.0"/>
      <point x="308.733" y="209.0" type="curve" smooth="yes"/>
      <point x="325.733" y="528.0" type="line"/>
      <point x="231.4" y="528.0" type="line"/>
      <point x="207.978" y="238.0" type="line" smooth="yes"/>
      <point x="201.8" y="169.0"/>
      <point x="195.378" y="118.178"/>
      <point x="142.267" y="79.356" type="curve" smooth="yes"/>
      <point x="118.333" y="62.067"/>
      <point x="94.044" y="50.6"/>
    </contour>
  </outline>
</glyph>
